<svg width="97" height="95" viewBox="0 0 97 95" fill="none" xmlns="http://www.w3.org/2000/svg">
<g filter="url(#filter0_f_225_176)">
<g filter="url(#filter1_f_225_176)">
<path d="M54.7866 31.2183L51.0284 29.456C50.0555 28.9998 49.0492 28.6183 48.0183 28.3148L46.9143 27.9899C45.1667 27.4755 43.3732 27.1322 41.5592 26.9649V26.9649C39.3298 26.7592 37.0817 26.9291 34.9085 27.4673L33.456 27.8271C31.2416 28.3756 29.081 29.1219 27.0002 30.057L25.4991 30.7316L20.3733 33.5261L24.798 36.6679M54.7866 31.2183L58.501 34.3112C58.7622 34.5286 59.0056 34.7664 59.2291 35.0223L60.6981 36.7047M54.7866 31.2183L56.1831 30.584C56.5886 30.3998 57.0122 30.2583 57.447 30.1618L58.4721 29.9342C59.0709 29.8013 59.6856 29.7548 60.2975 29.7963L62.0553 29.9153M60.6981 36.7047L62.2028 38.4279C62.4026 38.6568 62.586 38.8995 62.7515 39.1544L64.9414 42.527M60.6981 36.7047L57.6145 40.4082C57.391 40.6766 57.1897 40.9628 57.0128 41.264L55.2498 44.2644L53.669 47.2853C53.4634 47.6782 53.299 48.0914 53.1785 48.5183L51.9954 52.7099C51.8559 53.2044 51.7762 53.7138 51.758 54.2273L51.6419 57.5119C51.6285 57.8903 51.6486 58.2692 51.702 58.644L52.3315 63.0653L53.7555 68.5471L55.259 72.2782M60.6981 36.7047L56.6129 39.2611C56.3168 39.4464 56.0061 39.6072 55.6838 39.742L52.4731 41.0845L49.4462 42.1789C48.9108 42.3725 48.3519 42.494 47.7844 42.5402L42.6225 42.9608L39.1512 42.8458C38.5822 42.8269 38.0183 42.7325 37.4743 42.565L33.3116 41.2833L31.132 40.3891C29.1002 39.5554 27.1838 38.4647 25.4295 37.1435L24.798 36.6679M29.9279 49.2819L35.181 49.6375C35.6485 49.6692 36.118 49.6496 36.5812 49.5791L37.121 49.4969M29.9279 49.2819L25.8306 47.9578C25.44 47.8316 25.0624 47.6682 24.7029 47.4698L20.9171 45.3809L17.0679 42.5772L19.1348 40.7724L21.6432 38.582C21.9839 38.2846 22.355 38.0239 22.7504 37.8044L24.798 36.6679M29.9279 49.2819C29.4576 49.5991 28.4853 50.2613 28.3581 50.3724C28.2661 50.4527 27.7179 51.0291 27.2386 51.5371C26.912 51.8832 26.6263 52.2656 26.3853 52.6759L26.15 53.0763C25.8735 53.5469 25.6581 54.0507 25.5091 54.5757L24.3585 58.6285L24.1719 59.9124M44.83 58.9672V58.9672C45.636 55.849 46.9131 52.8721 48.6172 50.1391L48.7311 49.9565L50.442 46.7812L51.8147 44.1814L51.1989 44.4389L49.3313 45.5093L46.9954 46.8857C46.5804 47.1302 46.1392 47.3272 45.6802 47.4731L41.806 48.7042C41.4864 48.8058 41.1593 48.8821 40.8277 48.9326L37.121 49.4969M44.83 58.9672L44.3489 62.4088C44.2831 62.8792 44.2697 63.3555 44.309 63.8288L44.4853 65.9534M44.83 58.9672L42.5684 57.019L41.1451 55.6393C40.8778 55.3802 40.6336 55.0983 40.4151 54.7969L39.3753 53.3621L37.8884 51.0176L37.121 49.4969M55.259 72.2782L55.2712 72.3083C55.5396 72.9744 55.9179 73.5908 56.3903 74.1318L58.3145 76.3354L61.734 72.2287L62.2641 71.4501C63.7866 69.2143 65.0068 66.787 65.8932 64.2313V64.2313C66.8574 61.4513 67.4466 58.5551 67.6454 55.6194L67.7227 54.4776C67.7403 54.217 67.7383 53.9555 67.7167 53.6952L67.6092 52.3991C67.4284 50.2199 67.0242 48.0651 66.403 45.9685L66.1782 45.2098C65.897 44.2607 65.4805 43.3571 64.9414 42.527V42.527M55.259 72.2782L53.6501 74.5237L51.0659 77.3407L48.999 79.1455L47.5782 76.7811C46.4717 74.9397 45.6809 72.9261 45.2387 70.8238L44.6618 68.0811L44.4853 65.9534M44.4853 65.9534L42.8164 66.9304M28.4969 50.5314L29.1312 52.6932C29.2751 53.1835 29.4769 53.6549 29.7326 54.0974L30.4433 55.3278L32.4602 58.2794L34.4039 60.5053L36.7842 62.9104L39.3436 64.8788L42.8164 66.9304M42.8164 66.9304L42.1775 67.3043C41.8622 67.4889 41.5318 67.6462 41.1898 67.7745L38.3269 68.849L34.9357 69.6462C34.5623 69.734 34.1818 69.7882 33.7988 69.808L32.498 69.8755M24.1719 59.9124L23.7986 62.4801L23.6108 65.2534C23.5882 65.5881 23.5918 65.9239 23.6216 66.258L23.832 68.6157L24.2749 68.7974C26.2867 69.6228 28.4475 70.023 30.6215 69.9729V69.9729L32.498 69.8755M24.1719 59.9124L25.3482 61.6874L26.8552 63.7341L28.66 65.8011L29.6318 66.914L30.6036 68.0269L32.498 69.8755M67.4294 36.7116L67.4082 36.6299C67.2952 36.1951 66.5083 33.6447 66.3353 33.2301V33.2301C66.3268 33.2096 66.3152 33.1864 66.3035 33.1675L66.0852 32.8136C65.7947 32.3424 65.4373 31.9159 65.0243 31.5474L64.8189 31.364C64.5253 31.102 64.2065 30.8696 63.8673 30.6703L63.1657 30.258C62.8272 30.0591 62.447 29.9418 62.0553 29.9153V29.9153M67.4294 36.7116L67.3488 37.9029L67.3381 38.0601C67.2788 38.936 67.0164 39.7861 66.5717 40.543V40.543V40.543C66.2299 41.2116 65.7638 41.8089 65.1982 42.3028L64.9414 42.527M67.4294 36.7116L68.0885 36.267C68.5872 35.9307 69.1306 35.666 69.7028 35.4809L69.8991 35.4174C70.2123 35.316 70.5328 35.2389 70.8579 35.1867L71.077 35.1515C71.908 35.0181 72.7572 35.0493 73.5761 35.2435L74.1025 35.3682L74.5761 35.4536C75.1405 35.5552 75.6763 35.7774 76.1469 36.105V36.105M76.1469 36.105L75.9647 36.6688C75.8349 37.0705 75.7778 37.4921 75.7959 37.9138L75.7993 37.9927C75.8174 38.411 75.9184 38.8216 76.0966 39.2005L76.1716 39.3601C76.3735 39.7895 76.6916 40.1537 77.0898 40.4116V40.4116C77.5325 40.6983 78.0534 40.8401 78.5803 40.8174L78.6709 40.8135C78.9688 40.8007 79.2628 40.7408 79.542 40.636L80.0532 40.4441C80.5464 40.259 80.9752 39.9346 81.2874 39.5102V39.5102C81.7191 38.9235 81.8972 38.1879 81.7817 37.4687L81.7484 37.2607C81.6812 36.8423 81.5321 36.4413 81.3096 36.0806L81.2795 36.0318C81.0763 35.7023 80.82 35.4087 80.5208 35.1629L80.2073 34.9053C80.057 34.7818 79.8891 34.6815 79.7091 34.6076V34.6076C79.3185 34.4473 78.8864 34.4181 78.4777 34.5243L78.3542 34.5563C78.2473 34.5841 78.1425 34.6194 78.0406 34.662L78.0061 34.6765C77.7225 34.7951 77.4598 34.9586 77.2282 35.1609L76.1469 36.105ZM62.0553 29.9153L62.1911 29.7387C62.5365 29.2897 62.8204 28.7965 63.0355 28.2724V28.2724C63.2955 27.6386 63.4517 26.967 63.4979 26.2835L63.5289 25.8264L63.4909 24.1783L63.473 22.2323M63.473 22.2323L64.3083 20.9425V20.9425C64.8424 20.1178 65.0737 19.1178 64.9465 18.1435V18.1435L64.7985 17.5734C64.6629 17.0515 64.3759 16.5814 63.9735 16.2224V16.2224C63.5491 15.8435 63.0171 15.6039 62.4504 15.553C61.9523 15.5083 61.4986 15.4784 61.534 15.5189C61.5606 15.5495 61.3922 15.5889 61.1615 15.6269C60.6182 15.7163 60.0999 15.9305 59.6852 16.2926V16.2926C59.3724 16.5657 59.1275 16.9079 58.9699 17.2921L58.9421 17.3599C58.7651 17.7911 58.7038 18.261 58.7641 18.7231V18.7231C58.8326 19.2474 59.0547 19.7397 59.4024 20.138L59.6285 20.3968C59.8615 20.6637 60.1306 20.8968 60.428 21.0894L61.2696 21.6344L62.0851 22.0512C62.2156 22.1179 62.3543 22.1671 62.4976 22.1976L63.1075 22.3273C63.2375 22.3549 63.3729 22.3197 63.473 22.2323V22.2323Z" stroke="white" stroke-width="3.56748"/>
</g>
<g filter="url(#filter2_f_225_176)">
<path d="M54.7866 31.2183L51.0284 29.456C50.0555 28.9998 49.0492 28.6183 48.0183 28.3148L46.9143 27.9899C45.1667 27.4755 43.3732 27.1322 41.5592 26.9649V26.9649C39.3298 26.7592 37.0817 26.9291 34.9085 27.4673L33.456 27.8271C31.2416 28.3756 29.081 29.1219 27.0002 30.057L25.4991 30.7316L20.3733 33.5261L24.798 36.6679M54.7866 31.2183L58.501 34.3112C58.7622 34.5286 59.0056 34.7664 59.2291 35.0223L60.6981 36.7047M54.7866 31.2183L56.1831 30.584C56.5886 30.3998 57.0122 30.2583 57.447 30.1618L58.4721 29.9342C59.0709 29.8013 59.6856 29.7548 60.2975 29.7963L62.0553 29.9153M60.6981 36.7047L62.2028 38.4279C62.4026 38.6568 62.586 38.8995 62.7515 39.1544L64.9414 42.527M60.6981 36.7047L57.6145 40.4082C57.391 40.6766 57.1897 40.9628 57.0128 41.264L55.2498 44.2644L53.669 47.2853C53.4634 47.6782 53.299 48.0914 53.1785 48.5183L51.9954 52.7099C51.8559 53.2044 51.7762 53.7138 51.758 54.2273L51.6419 57.5119C51.6285 57.8903 51.6486 58.2692 51.702 58.644L52.3315 63.0653L53.7555 68.5471L55.259 72.2782M60.6981 36.7047L56.6129 39.2611C56.3168 39.4464 56.0061 39.6072 55.6838 39.742L52.4731 41.0845L49.4462 42.1789C48.9108 42.3725 48.3519 42.494 47.7844 42.5402L42.6225 42.9608L39.1512 42.8458C38.5822 42.8269 38.0183 42.7325 37.4743 42.565L33.3116 41.2833L31.132 40.3891C29.1002 39.5554 27.1838 38.4647 25.4295 37.1435L24.798 36.6679M29.9279 49.2819L35.181 49.6375C35.6485 49.6692 36.118 49.6496 36.5812 49.5791L37.121 49.4969M29.9279 49.2819L25.8306 47.9578C25.44 47.8316 25.0624 47.6682 24.7029 47.4698L20.9171 45.3809L17.0679 42.5772L19.1348 40.7724L21.6432 38.582C21.9839 38.2846 22.355 38.0239 22.7504 37.8044L24.798 36.6679M29.9279 49.2819C29.4576 49.5991 28.4853 50.2613 28.3581 50.3724C28.2661 50.4527 27.7179 51.0291 27.2386 51.5371C26.912 51.8832 26.6263 52.2656 26.3853 52.6759L26.15 53.0763C25.8735 53.5469 25.6581 54.0507 25.5091 54.5757L24.3585 58.6285L24.1719 59.9124M44.83 58.9672V58.9672C45.636 55.849 46.9131 52.8721 48.6172 50.1391L48.7311 49.9565L50.442 46.7812L51.8147 44.1814L51.1989 44.4389L49.3313 45.5093L46.9954 46.8857C46.5804 47.1302 46.1392 47.3272 45.6802 47.4731L41.806 48.7042C41.4864 48.8058 41.1593 48.8821 40.8277 48.9326L37.121 49.4969M44.83 58.9672L44.3489 62.4088C44.2831 62.8792 44.2697 63.3555 44.309 63.8288L44.4853 65.9534M44.83 58.9672L42.5684 57.019L41.1451 55.6393C40.8778 55.3802 40.6336 55.0983 40.4151 54.7969L39.3753 53.3621L37.8884 51.0176L37.121 49.4969M55.259 72.2782L55.2712 72.3083C55.5396 72.9744 55.9179 73.5908 56.3903 74.1318L58.3145 76.3354L61.734 72.2287L62.2641 71.4501C63.7866 69.2143 65.0068 66.787 65.8932 64.2313V64.2313C66.8574 61.4513 67.4466 58.5551 67.6454 55.6194L67.7227 54.4776C67.7403 54.217 67.7383 53.9555 67.7167 53.6952L67.6092 52.3991C67.4284 50.2199 67.0242 48.0651 66.403 45.9685L66.1782 45.2098C65.897 44.2607 65.4805 43.3571 64.9414 42.527V42.527M55.259 72.2782L53.6501 74.5237L51.0659 77.3407L48.999 79.1455L47.5782 76.7811C46.4717 74.9397 45.6809 72.9261 45.2387 70.8238L44.6618 68.0811L44.4853 65.9534M44.4853 65.9534L42.8164 66.9304M28.4969 50.5314L29.1312 52.6932C29.2751 53.1835 29.4769 53.6549 29.7326 54.0974L30.4433 55.3278L32.4602 58.2794L34.4039 60.5053L36.7842 62.9104L39.3436 64.8788L42.8164 66.9304M42.8164 66.9304L42.1775 67.3043C41.8622 67.4889 41.5318 67.6462 41.1898 67.7745L38.3269 68.849L34.9357 69.6462C34.5623 69.734 34.1818 69.7882 33.7988 69.808L32.498 69.8755M24.1719 59.9124L23.7986 62.4801L23.6108 65.2534C23.5882 65.5881 23.5918 65.9239 23.6216 66.258L23.832 68.6157L24.2749 68.7974C26.2867 69.6228 28.4475 70.023 30.6215 69.9729V69.9729L32.498 69.8755M24.1719 59.9124L25.3482 61.6874L26.8552 63.7341L28.66 65.8011L29.6318 66.914L30.6036 68.0269L32.498 69.8755M67.4294 36.7116L67.4082 36.6299C67.2952 36.1951 66.5083 33.6447 66.3353 33.2301V33.2301C66.3268 33.2096 66.3152 33.1864 66.3035 33.1675L66.0852 32.8136C65.7947 32.3424 65.4373 31.9159 65.0243 31.5474L64.8189 31.364C64.5253 31.102 64.2065 30.8696 63.8673 30.6703L63.1657 30.258C62.8272 30.0591 62.447 29.9418 62.0553 29.9153V29.9153M67.4294 36.7116L67.3488 37.9029L67.3381 38.0601C67.2788 38.936 67.0164 39.7861 66.5717 40.543V40.543V40.543C66.2299 41.2116 65.7638 41.8089 65.1982 42.3028L64.9414 42.527M67.4294 36.7116L68.0885 36.267C68.5872 35.9307 69.1306 35.666 69.7028 35.4809L69.8991 35.4174C70.2123 35.316 70.5328 35.2389 70.8579 35.1867L71.077 35.1515C71.908 35.0181 72.7572 35.0493 73.5761 35.2435L74.1025 35.3682L74.5761 35.4536C75.1405 35.5552 75.6763 35.7774 76.1469 36.105V36.105M76.1469 36.105L75.9647 36.6688C75.8349 37.0705 75.7778 37.4921 75.7959 37.9138L75.7993 37.9927C75.8174 38.411 75.9184 38.8216 76.0966 39.2005L76.1716 39.3601C76.3735 39.7895 76.6916 40.1537 77.0898 40.4116V40.4116C77.5325 40.6983 78.0534 40.8401 78.5803 40.8174L78.6709 40.8135C78.9688 40.8007 79.2628 40.7408 79.542 40.636L80.0532 40.4441C80.5464 40.259 80.9752 39.9346 81.2874 39.5102V39.5102C81.7191 38.9235 81.8972 38.1879 81.7817 37.4687L81.7484 37.2607C81.6812 36.8423 81.5321 36.4413 81.3096 36.0806L81.2795 36.0318C81.0763 35.7023 80.82 35.4087 80.5208 35.1629L80.2073 34.9053C80.057 34.7818 79.8891 34.6815 79.7091 34.6076V34.6076C79.3185 34.4473 78.8864 34.4181 78.4777 34.5243L78.3542 34.5563C78.2473 34.5841 78.1425 34.6194 78.0406 34.662L78.0061 34.6765C77.7225 34.7951 77.4598 34.9586 77.2282 35.1609L76.1469 36.105ZM62.0553 29.9153L62.1911 29.7387C62.5365 29.2897 62.8204 28.7965 63.0355 28.2724V28.2724C63.2955 27.6386 63.4517 26.967 63.4979 26.2835L63.5289 25.8264L63.4909 24.1783L63.473 22.2323M63.473 22.2323L64.3083 20.9425V20.9425C64.8424 20.1178 65.0737 19.1178 64.9465 18.1435V18.1435L64.7985 17.5734C64.6629 17.0515 64.3759 16.5814 63.9735 16.2224V16.2224C63.5491 15.8435 63.0171 15.6039 62.4504 15.553C61.9523 15.5083 61.4986 15.4784 61.534 15.5189C61.5606 15.5495 61.3922 15.5889 61.1615 15.6269C60.6182 15.7163 60.0999 15.9305 59.6852 16.2926V16.2926C59.3724 16.5657 59.1275 16.9079 58.9699 17.2921L58.9421 17.3599C58.7651 17.7911 58.7038 18.261 58.7641 18.7231V18.7231C58.8326 19.2474 59.0547 19.7397 59.4024 20.138L59.6285 20.3968C59.8615 20.6637 60.1306 20.8968 60.428 21.0894L61.2696 21.6344L62.0851 22.0512C62.2156 22.1179 62.3543 22.1671 62.4976 22.1976L63.1075 22.3273C63.2375 22.3549 63.3729 22.3197 63.473 22.2323V22.2323Z" stroke="#FFF500" stroke-width="3.56748"/>
</g>
</g>
<defs>
<filter id="filter0_f_225_176" x="10.2109" y="9.71631" width="77.3887" height="76.1738" filterUnits="userSpaceOnUse" color-interpolation-filters="sRGB">
<feFlood flood-opacity="0" result="BackgroundImageFix"/>
<feBlend mode="normal" in="SourceGraphic" in2="BackgroundImageFix" result="shape"/>
<feGaussianBlur stdDeviation="2" result="effect1_foregroundBlur_225_176"/>
</filter>
<filter id="filter1_f_225_176" x="8.50296" y="8.00833" width="80.8046" height="79.5898" filterUnits="userSpaceOnUse" color-interpolation-filters="sRGB">
<feFlood flood-opacity="0" result="BackgroundImageFix"/>
<feBlend mode="normal" in="SourceGraphic" in2="BackgroundImageFix" result="shape"/>
<feGaussianBlur stdDeviation="2.85399" result="effect1_foregroundBlur_225_176"/>
</filter>
<filter id="filter2_f_225_176" x="12.7839" y="12.2893" width="72.2427" height="71.0278" filterUnits="userSpaceOnUse" color-interpolation-filters="sRGB">
<feFlood flood-opacity="0" result="BackgroundImageFix"/>
<feBlend mode="normal" in="SourceGraphic" in2="BackgroundImageFix" result="shape"/>
<feGaussianBlur stdDeviation="0.713497" result="effect1_foregroundBlur_225_176"/>
</filter>
</defs>
</svg>
