<svg width="147" height="147" viewBox="0 0 147 147" fill="none" xmlns="http://www.w3.org/2000/svg">
<g filter="url(#filter0_f_225_179)">
<path d="M65.4155 53.4992L60.5491 55.1486C59.2892 55.5756 58.0637 56.0979 56.8831 56.7111L55.6189 57.3677C53.6175 58.407 51.722 59.6385 49.959 61.0447V61.0447C47.7923 62.7729 45.931 64.8524 44.4524 67.1965L43.4641 68.7633C41.9575 71.1518 40.6686 73.6709 39.6128 76.2902L38.8512 78.1797L36.6714 85.07L43.3159 84.0806M65.4155 53.4992L71.3838 53.0751C71.8034 53.0453 72.2246 53.0488 72.6436 53.0857L75.3979 53.3279M65.4155 53.4992L66.1183 51.7354C66.3223 51.2232 66.5792 50.7336 66.8846 50.2746L67.6046 49.1923C68.0252 48.5602 68.5342 47.9916 69.116 47.5038L70.7873 46.1027M75.3979 53.3279L78.2188 53.576C78.5935 53.6089 78.9654 53.6685 79.3317 53.7541L84.1789 54.8871M75.3979 53.3279L75.8207 59.2786C75.8513 59.7099 75.9171 60.1379 76.0174 60.5586L77.0164 64.7491L78.1956 68.8016C78.349 69.3287 78.5566 69.8386 78.8151 70.3229L81.3534 75.0796C81.6528 75.6408 82.0185 76.1639 82.4426 76.6379L85.1556 79.6699C85.4681 80.0192 85.811 80.3402 86.1801 80.6291L90.5334 84.0364L96.5056 87.7092L101.047 89.7509M75.3979 53.3279L73.9429 59.1134C73.8374 59.5327 73.6979 59.9428 73.5258 60.3394L71.8107 64.2913L70.0468 67.8639C69.7347 68.4959 69.34 69.0836 68.873 69.6116L64.6253 74.4136L61.4276 77.2876C60.9035 77.7587 60.3191 78.158 59.6897 78.475L54.8744 80.9003L52.1617 81.971C49.6329 82.9692 46.9866 83.6388 44.2874 83.9637L43.3159 84.0806M58.7125 90.9429L63.7074 86.7556C64.1518 86.383 64.5542 85.9629 64.9072 85.5028L65.3187 84.9665M58.7125 90.9429L53.9192 93.2743C53.4622 93.4966 52.985 93.6746 52.494 93.8057L47.3227 95.1872L41.482 95.985L41.7796 92.6013L42.1408 88.4948C42.1898 87.9371 42.2976 87.3861 42.4624 86.8511L43.3159 84.0806M58.7125 90.9429C58.5647 91.6294 58.2645 93.0544 58.2462 93.2626C58.233 93.4132 58.2379 94.3979 58.2455 95.2625C58.2508 95.8515 58.3237 96.4378 58.4603 97.0108L58.5936 97.5701C58.7503 98.2273 58.9901 98.8618 59.3072 99.4583L61.7554 104.063L62.6898 105.369M80.3221 86.8106V86.8106C78.3677 83.3356 76.955 79.5827 76.1328 75.6815L76.0779 75.4208L74.8824 71.1189L73.8786 67.6207L73.5496 68.3787L72.8001 70.9357L71.895 74.1677C71.7342 74.7418 71.5093 75.296 71.2246 75.8199L68.8215 80.2413C68.6232 80.606 68.3967 80.9547 68.144 81.2841L65.3187 84.9665M80.3221 86.8106L82.8438 90.2957C83.1885 90.772 83.585 91.2087 84.026 91.5976L86.0053 93.3432M80.3221 86.8106L76.6324 87.0107L74.1786 86.9994C73.7178 86.9973 73.258 86.9551 72.8045 86.8734L70.6458 86.4842L67.3079 85.666L65.3187 84.9665M101.047 89.7509L101.084 89.7674C101.895 90.1319 102.761 90.3578 103.647 90.4357L107.254 90.7529L106.786 84.1542L106.591 83.0045C106.033 79.7029 105.041 76.4895 103.641 73.4478V73.4478C102.118 70.1391 100.16 67.0482 97.82 64.2568L96.91 63.1712C96.7023 62.9234 96.4762 62.6916 96.2337 62.4778L95.0263 61.4129C92.9961 59.6224 90.7875 58.0453 88.435 56.7062L87.5837 56.2216C86.5188 55.6154 85.372 55.1659 84.1789 54.8871V54.8871M101.047 89.7509L101.537 93.1354L101.645 97.8663L101.348 101.25L98.0517 100.358C95.4847 99.6625 93.052 98.5429 90.8544 97.0452L87.9874 95.0913L86.0053 93.3432M86.0053 93.3432L85.3531 95.6466M58.5065 93.2855L60.9266 94.6715C61.4755 94.9859 62.06 95.2337 62.6676 95.4095L64.3573 95.8984L68.689 96.804L72.333 97.1245L76.5205 97.2304L80.4934 96.793L85.3531 95.6466M85.3531 95.6466L85.1034 96.5283C84.9802 96.9634 84.8201 97.3871 84.6248 97.795L82.9903 101.209L80.6464 104.829C80.3884 105.228 80.0951 105.602 79.7702 105.949L78.6668 107.124M62.6898 105.369L64.5584 107.982L66.769 110.619C67.0357 110.937 67.327 111.234 67.6401 111.506L69.8497 113.431L70.401 113.213C72.9048 112.225 75.1771 110.729 77.075 108.82V108.82L78.6668 107.124M62.6898 105.369L65.2621 105.945L68.3626 106.48L71.7463 106.778L73.5683 106.938L75.3903 107.098L78.6668 107.124M81.4132 47.5618L81.3242 47.507C80.8505 47.2157 77.9609 45.6136 77.4509 45.3918V45.3918C77.4257 45.3808 77.3955 45.3701 77.3689 45.3632L76.8705 45.2344C76.207 45.063 75.5223 44.9886 74.8375 45.0137L74.4969 45.0262C74.0101 45.0441 73.5262 45.1099 73.0524 45.2229L72.0726 45.4565C71.5998 45.5692 71.1598 45.7904 70.7873 46.1027V46.1027M81.4132 47.5618L82.3628 48.6945L82.4881 48.844C83.1863 49.6768 83.681 50.6607 83.933 51.7179V51.7179V51.7179C84.2013 52.6078 84.2973 53.5408 84.2158 54.4667L84.1789 54.8871M81.4132 47.5618L81.6204 46.5996C81.7771 45.8717 82.0353 45.1695 82.3874 44.5135L82.5082 44.2884C82.701 43.9294 82.921 43.5857 83.1664 43.2604L83.3319 43.041C83.9594 42.2093 84.7442 41.509 85.6418 40.98L86.2187 40.64L86.7148 40.3101C87.3058 39.9169 87.9747 39.6558 88.6758 39.5446V39.5446M88.6758 39.5446L88.9966 40.2043C89.2251 40.6741 89.5356 41.0995 89.9135 41.4604L89.9842 41.528C90.359 41.886 90.8013 42.1659 91.2852 42.3514L91.4891 42.4295C92.0376 42.6397 92.6339 42.6922 93.2106 42.5809V42.5809C93.8516 42.4573 94.4383 42.1372 94.8892 41.6651L94.9668 41.5838C95.2217 41.3169 95.4328 41.0113 95.5922 40.6784L95.8841 40.0687C96.1657 39.4805 96.2703 38.8231 96.1851 38.1766V38.1766C96.0674 37.2825 95.5956 36.4731 94.8757 35.93L94.6675 35.773C94.2488 35.4571 93.7718 35.2269 93.2639 35.0956L93.1952 35.0779C92.7312 34.958 92.2506 34.9157 91.7728 34.9528L91.272 34.9916C91.0319 35.0103 90.7959 35.0647 90.5719 35.1531V35.1531C90.0857 35.345 89.6749 35.6894 89.401 36.1347L89.3183 36.2692C89.2467 36.3857 89.1834 36.5071 89.129 36.6325L89.1105 36.675C88.959 37.0241 88.8648 37.3954 88.8314 37.7745L88.6758 39.5446ZM70.7873 46.1027L70.7571 45.8286C70.6804 45.1316 70.511 44.4478 70.2536 43.7955V43.7955C69.9422 43.0067 69.5057 42.2732 68.9609 41.6233L68.5965 41.1886L67.1493 39.7499L65.4646 38.0279M65.4646 38.0279L65.1043 36.1601V36.1601C64.8739 34.9658 64.2228 33.8746 63.2738 33.1139V33.1139L62.6528 32.7319C62.0842 32.3823 61.4248 32.2087 60.7577 32.2332V32.2332C60.0539 32.259 59.3734 32.5012 58.8239 32.9417C58.3409 33.329 57.9103 33.6914 57.9765 33.6972C58.0265 33.7016 57.91 33.8812 57.7366 34.113C57.3283 34.6587 57.0492 35.2943 56.9895 35.9733V35.9733C56.9444 36.4854 57.0192 37.0008 57.2079 37.479L57.2413 37.5634C57.4531 38.1 57.8013 38.5721 58.2514 38.933V38.933C58.7621 39.3423 59.3826 39.5914 60.0345 39.6487L60.4583 39.686C60.8953 39.7244 61.3354 39.7018 61.7661 39.6187L62.9847 39.3836L64.0702 39.0564C64.2439 39.004 64.41 38.929 64.5641 38.8333L65.2197 38.426C65.3595 38.3393 65.4502 38.1918 65.4646 38.0279V38.0279Z" stroke="white" stroke-width="4.41619"/>
</g>
<g filter="url(#filter1_f_225_179)">
<path d="M65.4155 53.4992L60.5491 55.1486C59.2892 55.5756 58.0637 56.0979 56.8831 56.7111L55.6189 57.3677C53.6175 58.407 51.722 59.6385 49.959 61.0447V61.0447C47.7923 62.7729 45.931 64.8524 44.4524 67.1965L43.4641 68.7633C41.9575 71.1518 40.6686 73.6709 39.6128 76.2902L38.8512 78.1797L36.6714 85.07L43.3159 84.0806M65.4155 53.4992L71.3838 53.0751C71.8034 53.0453 72.2246 53.0488 72.6436 53.0857L75.3979 53.3279M65.4155 53.4992L66.1183 51.7354C66.3223 51.2232 66.5792 50.7336 66.8846 50.2746L67.6046 49.1923C68.0252 48.5602 68.5342 47.9916 69.116 47.5038L70.7873 46.1027M75.3979 53.3279L78.2188 53.576C78.5935 53.6089 78.9654 53.6685 79.3317 53.7541L84.1789 54.8871M75.3979 53.3279L75.8207 59.2786C75.8513 59.7099 75.9171 60.1379 76.0174 60.5586L77.0164 64.7491L78.1956 68.8016C78.349 69.3287 78.5566 69.8386 78.8151 70.3229L81.3534 75.0796C81.6528 75.6408 82.0185 76.1639 82.4426 76.6379L85.1556 79.6699C85.4681 80.0192 85.811 80.3402 86.1801 80.6291L90.5334 84.0364L96.5056 87.7092L101.047 89.7509M75.3979 53.3279L73.9429 59.1134C73.8374 59.5327 73.6979 59.9428 73.5258 60.3394L71.8107 64.2913L70.0468 67.8639C69.7347 68.4959 69.34 69.0836 68.873 69.6116L64.6253 74.4136L61.4276 77.2876C60.9035 77.7587 60.3191 78.158 59.6897 78.475L54.8744 80.9003L52.1617 81.971C49.6329 82.9692 46.9866 83.6388 44.2874 83.9637L43.3159 84.0806M58.7125 90.9429L63.7074 86.7556C64.1518 86.383 64.5542 85.9629 64.9072 85.5028L65.3187 84.9665M58.7125 90.9429L53.9192 93.2743C53.4622 93.4966 52.985 93.6746 52.494 93.8057L47.3227 95.1872L41.482 95.985L41.7796 92.6013L42.1408 88.4948C42.1898 87.9371 42.2976 87.3861 42.4624 86.8511L43.3159 84.0806M58.7125 90.9429C58.5647 91.6294 58.2645 93.0544 58.2462 93.2626C58.233 93.4132 58.2379 94.3979 58.2455 95.2625C58.2508 95.8515 58.3237 96.4378 58.4603 97.0108L58.5936 97.5701C58.7503 98.2273 58.9901 98.8618 59.3072 99.4583L61.7554 104.063L62.6898 105.369M80.3221 86.8106V86.8106C78.3677 83.3356 76.955 79.5827 76.1328 75.6815L76.0779 75.4208L74.8824 71.1189L73.8786 67.6207L73.5496 68.3787L72.8001 70.9357L71.895 74.1677C71.7342 74.7418 71.5093 75.296 71.2246 75.8199L68.8215 80.2413C68.6232 80.606 68.3967 80.9547 68.144 81.2841L65.3187 84.9665M80.3221 86.8106L82.8438 90.2957C83.1885 90.772 83.585 91.2087 84.026 91.5976L86.0053 93.3432M80.3221 86.8106L76.6324 87.0107L74.1786 86.9994C73.7178 86.9973 73.258 86.9551 72.8045 86.8734L70.6458 86.4842L67.3079 85.666L65.3187 84.9665M101.047 89.7509L101.084 89.7674C101.895 90.1319 102.761 90.3578 103.647 90.4357L107.254 90.7529L106.786 84.1542L106.591 83.0045C106.033 79.7029 105.041 76.4895 103.641 73.4478V73.4478C102.118 70.1391 100.16 67.0482 97.82 64.2568L96.91 63.1712C96.7023 62.9234 96.4762 62.6916 96.2337 62.4778L95.0263 61.4129C92.9961 59.6224 90.7875 58.0453 88.435 56.7062L87.5837 56.2216C86.5188 55.6154 85.372 55.1659 84.1789 54.8871V54.8871M101.047 89.7509L101.537 93.1354L101.645 97.8663L101.348 101.25L98.0517 100.358C95.4847 99.6625 93.052 98.5429 90.8544 97.0452L87.9874 95.0913L86.0053 93.3432M86.0053 93.3432L85.3531 95.6466M58.5065 93.2855L60.9266 94.6715C61.4755 94.9859 62.06 95.2337 62.6676 95.4095L64.3573 95.8984L68.689 96.804L72.333 97.1245L76.5205 97.2304L80.4934 96.793L85.3531 95.6466M85.3531 95.6466L85.1034 96.5283C84.9802 96.9634 84.8201 97.3871 84.6248 97.795L82.9903 101.209L80.6464 104.829C80.3884 105.228 80.0951 105.602 79.7702 105.949L78.6668 107.124M62.6898 105.369L64.5584 107.982L66.769 110.619C67.0357 110.937 67.327 111.234 67.6401 111.506L69.8497 113.431L70.401 113.213C72.9048 112.225 75.1771 110.729 77.075 108.82V108.82L78.6668 107.124M62.6898 105.369L65.2621 105.945L68.3626 106.48L71.7463 106.778L73.5683 106.938L75.3903 107.098L78.6668 107.124M81.4132 47.5618L81.3242 47.507C80.8505 47.2157 77.9609 45.6136 77.4509 45.3918V45.3918C77.4257 45.3808 77.3955 45.3701 77.3689 45.3632L76.8705 45.2344C76.207 45.063 75.5223 44.9886 74.8375 45.0137L74.4969 45.0262C74.0101 45.0441 73.5262 45.1099 73.0524 45.2229L72.0726 45.4565C71.5998 45.5692 71.1598 45.7904 70.7873 46.1027V46.1027M81.4132 47.5618L82.3628 48.6945L82.4881 48.844C83.1863 49.6768 83.681 50.6607 83.933 51.7179V51.7179V51.7179C84.2013 52.6078 84.2973 53.5408 84.2158 54.4667L84.1789 54.8871M81.4132 47.5618L81.6204 46.5996C81.7771 45.8717 82.0353 45.1695 82.3874 44.5135L82.5082 44.2884C82.701 43.9294 82.921 43.5857 83.1664 43.2604L83.3319 43.041C83.9594 42.2093 84.7442 41.509 85.6418 40.98L86.2187 40.64L86.7148 40.3101C87.3058 39.9169 87.9747 39.6558 88.6758 39.5446V39.5446M88.6758 39.5446L88.9966 40.2043C89.2251 40.6741 89.5356 41.0995 89.9135 41.4604L89.9842 41.528C90.359 41.886 90.8013 42.1659 91.2852 42.3514L91.4891 42.4295C92.0376 42.6397 92.6339 42.6922 93.2106 42.5809V42.5809C93.8516 42.4573 94.4383 42.1372 94.8892 41.6651L94.9668 41.5838C95.2217 41.3169 95.4328 41.0113 95.5922 40.6784L95.8841 40.0687C96.1657 39.4805 96.2703 38.8231 96.1851 38.1766V38.1766C96.0674 37.2825 95.5956 36.4731 94.8757 35.93L94.6675 35.773C94.2488 35.4571 93.7718 35.2269 93.2639 35.0956L93.1952 35.0779C92.7312 34.958 92.2506 34.9157 91.7728 34.9528L91.272 34.9916C91.0319 35.0103 90.7959 35.0647 90.5719 35.1531V35.1531C90.0857 35.345 89.6749 35.6894 89.401 36.1347L89.3183 36.2692C89.2467 36.3857 89.1834 36.5071 89.129 36.6325L89.1105 36.675C88.959 37.0241 88.8648 37.3954 88.8314 37.7745L88.6758 39.5446ZM70.7873 46.1027L70.7571 45.8286C70.6804 45.1316 70.511 44.4478 70.2536 43.7955V43.7955C69.9422 43.0067 69.5057 42.2732 68.9609 41.6233L68.5965 41.1886L67.1493 39.7499L65.4646 38.0279M65.4646 38.0279L65.1043 36.1601V36.1601C64.8739 34.9658 64.2228 33.8746 63.2738 33.1139V33.1139L62.6528 32.7319C62.0842 32.3823 61.4248 32.2087 60.7577 32.2332V32.2332C60.0539 32.259 59.3734 32.5012 58.8239 32.9417C58.3409 33.329 57.9103 33.6914 57.9765 33.6972C58.0265 33.7016 57.91 33.8812 57.7366 34.113C57.3283 34.6587 57.0492 35.2943 56.9895 35.9733V35.9733C56.9444 36.4854 57.0192 37.0008 57.2079 37.479L57.2413 37.5634C57.4531 38.1 57.8013 38.5721 58.2514 38.933V38.933C58.7621 39.3423 59.3826 39.5914 60.0345 39.6487L60.4583 39.686C60.8953 39.7244 61.3354 39.7018 61.7661 39.6187L62.9847 39.3836L64.0702 39.0564C64.2439 39.004 64.41 38.929 64.5641 38.8333L65.2197 38.426C65.3595 38.3393 65.4502 38.1918 65.4646 38.0279V38.0279Z" stroke="#FFF500" stroke-width="4.41619"/>
</g>
<defs>
<filter id="filter0_f_225_179" x="26.4341" y="22.957" width="90.2724" height="100.086" filterUnits="userSpaceOnUse" color-interpolation-filters="sRGB">
<feFlood flood-opacity="0" result="BackgroundImageFix"/>
<feBlend mode="normal" in="SourceGraphic" in2="BackgroundImageFix" result="shape"/>
<feGaussianBlur stdDeviation="3.53295" result="effect1_foregroundBlur_225_179"/>
</filter>
<filter id="filter1_f_225_179" x="31.7335" y="28.2565" width="79.6736" height="89.4875" filterUnits="userSpaceOnUse" color-interpolation-filters="sRGB">
<feFlood flood-opacity="0" result="BackgroundImageFix"/>
<feBlend mode="normal" in="SourceGraphic" in2="BackgroundImageFix" result="shape"/>
<feGaussianBlur stdDeviation="0.883237" result="effect1_foregroundBlur_225_179"/>
</filter>
</defs>
</svg>
