<svg width="152" height="153" viewBox="0 0 152 153" fill="none" xmlns="http://www.w3.org/2000/svg">
<g filter="url(#filter0_f_225_182)">
<path d="M63.1963 56.7801L58.3758 59.5521C57.1278 60.2697 55.9362 61.0814 54.8115 61.9799L53.607 62.9423C51.7003 64.4656 49.9462 66.1707 48.3695 68.0334V68.0334C46.4317 70.3228 44.8918 72.9209 43.8138 75.7198L43.0932 77.5905C41.9948 80.4424 41.1548 83.3873 40.5834 86.3895L40.1711 88.5553L39.3024 96.3279L46.1491 93.8836M63.1963 56.7801L69.4438 55.0778C69.8829 54.9581 70.3309 54.8735 70.7835 54.8247L73.7584 54.5041M63.1963 56.7801L63.5724 54.76C63.6816 54.1735 63.8516 53.5998 64.0795 53.0484L64.617 51.7483C64.9309 50.989 65.3519 50.2785 65.8673 49.6386L67.3478 47.8005M73.7584 54.5041L76.8053 54.1757C77.2101 54.1321 77.6174 54.1173 78.0242 54.1313L83.408 54.3174M73.7584 54.5041L75.4556 60.7331C75.5786 61.1846 75.7383 61.6252 75.9329 62.0508L77.8727 66.2901L79.9748 70.3452C80.2482 70.8727 80.5756 71.3704 80.9516 71.8304L84.6443 76.348C85.0799 76.8809 85.5778 77.3596 86.1275 77.7739L89.6439 80.4238C90.049 80.729 90.4803 80.9979 90.9328 81.2272L96.2694 83.9314L103.38 86.5779L108.631 87.7927M73.7584 54.5041L73.4274 60.9517C73.4034 61.419 73.3413 61.8836 73.2417 62.3408L72.2499 66.8961L71.1267 71.0592C70.928 71.7956 70.6322 72.5024 70.2471 73.1608L66.7448 79.1501L63.9528 82.8722C63.4952 83.4823 62.9585 84.0288 62.3568 84.4973L57.7533 88.0825L55.0979 89.7883C52.6225 91.3784 49.9535 92.6445 47.156 93.5556L46.1491 93.8836M63.9349 97.9392L68.3594 92.4459C68.7531 91.9571 69.0921 91.4266 69.3704 90.864L69.6947 90.2083M63.9349 97.9392L59.3351 101.42C58.8965 101.752 58.4271 102.041 57.9334 102.283L52.733 104.835L46.6995 106.907L46.3056 103.252L45.8275 98.8165C45.7626 98.2142 45.7615 97.6066 45.8242 97.004L46.1491 93.8836M63.9349 97.9392C63.922 98.699 63.9022 100.275 63.9265 100.5C63.944 100.662 64.1557 101.707 64.3453 102.623C64.4744 103.247 64.6747 103.855 64.94 104.434L65.1989 105C65.5031 105.665 65.8908 106.288 66.3526 106.855L69.9178 111.23L71.1838 112.421M86.0103 89.0187V89.0187C83.2064 85.7394 80.9193 82.0515 79.228 78.0822L79.1149 77.8169L76.9433 73.5004L75.1437 69.9971L74.9535 70.8708L74.6942 73.7428L74.4112 77.364C74.3609 78.0073 74.2385 78.6428 74.0461 79.2587L72.4223 84.4569C72.2884 84.8858 72.121 85.3035 71.9218 85.7062L69.6947 90.2083M86.0103 89.0187L89.4187 92.1898C89.8845 92.6232 90.3971 93.0036 90.9468 93.324L93.4144 94.7621M86.0103 89.0187L82.135 90.0052L79.5275 90.508C79.0378 90.6025 78.5409 90.6541 78.0422 90.6625L75.6688 90.7021L71.9533 90.5337L69.6947 90.2083M108.631 87.7927L108.673 87.8025C109.61 88.0194 110.577 88.0775 111.534 87.9744L115.431 87.5544L113.549 80.6471L113.101 79.4673C111.816 76.0791 110.089 72.8756 107.964 69.9401V69.9401C105.653 66.7468 102.926 63.8759 99.856 61.4033L98.6621 60.4417C98.3896 60.2222 98.101 60.0235 97.7987 59.8474L96.2934 58.9701C93.7625 57.4951 91.0867 56.284 88.3083 55.3558L87.3028 55.0199C86.045 54.5998 84.7333 54.3631 83.408 54.3174V54.3174M108.631 87.7927L109.86 91.2832L110.968 96.2832L111.362 99.938L107.675 99.6819C104.804 99.4825 101.987 98.8042 99.3392 97.6752L95.8855 96.2022L93.4144 94.7621M93.4144 94.7621L93.2052 97.3443M64.2076 100.469L67.0677 101.433C67.7164 101.652 68.3889 101.792 69.0709 101.852L70.9673 102.016L75.7562 102.069L79.6921 101.645L84.1601 100.879L88.2863 99.5809L93.2052 97.3443M93.2052 97.3443L93.125 98.3328C93.0855 98.8205 93.0045 99.304 92.8827 99.778L91.8636 103.746L90.1346 108.081C89.9442 108.558 89.7115 109.017 89.4391 109.453L88.5143 110.932M71.1838 112.421L73.7157 114.803L76.6159 117.138C76.9658 117.42 77.3372 117.674 77.7268 117.898L80.4765 119.478L81.0161 119.131C83.467 117.557 85.5657 115.492 87.1801 113.067V113.067L88.5143 110.932M71.1838 112.421L74.0356 112.493L77.4396 112.41L81.0944 112.017L83.0624 111.804L85.0303 111.592L88.5143 110.932M78.9351 47.1205L78.8291 47.081C78.2651 46.8711 74.8612 45.7763 74.2732 45.6479V45.6479C74.2441 45.6415 74.2098 45.6364 74.1801 45.6347L73.6239 45.6025C72.8837 45.5597 72.1411 45.6245 71.4194 45.7947L71.0603 45.8795C70.5473 46.0005 70.0474 46.172 69.568 46.3913L68.5767 46.8449C68.0985 47.0637 67.6777 47.3909 67.3478 47.8005V47.8005M78.9351 47.1205L80.1809 48.1238L80.3453 48.2563C81.2612 48.994 81.9928 49.9348 82.4821 51.0043V51.0043V51.0043C82.9537 51.8929 83.2513 52.8632 83.3591 53.8634L83.408 54.3174M78.9351 47.1205L78.9532 46.0555C78.9669 45.2499 79.0937 44.4502 79.3299 43.6798L79.411 43.4155C79.5403 42.9939 79.7018 42.5829 79.8941 42.1861L80.0237 41.9184C80.5154 40.9038 81.2018 39.9956 82.0438 39.2457L82.585 38.7638L83.0423 38.3094C83.5873 37.768 84.2427 37.3505 84.9637 37.0854V37.0854M84.9637 37.0854L85.4427 37.7184C85.7839 38.1693 86.2028 38.5558 86.6797 38.8597L86.7689 38.9165C87.2419 39.218 87.7702 39.4224 88.3229 39.5178L88.5558 39.558C89.1821 39.6661 89.8262 39.5967 90.4152 39.3576V39.3576C91.0698 39.0918 91.6255 38.6289 92.0052 38.0331L92.0705 37.9306C92.2852 37.5938 92.4452 37.225 92.5445 36.8382L92.7265 36.1296C92.9021 35.446 92.8752 34.7262 92.6492 34.0576V34.0576C92.3366 33.1331 91.666 32.3728 90.7878 31.9472L90.5338 31.8242C90.0229 31.5766 89.4682 31.4323 88.9015 31.3995L88.8248 31.3951C88.3071 31.3651 87.7879 31.4211 87.2884 31.5607L86.7649 31.707C86.5139 31.7771 86.2748 31.8844 86.0555 32.0252V32.0252C85.5796 32.331 85.2157 32.7828 85.0184 33.313L84.9588 33.4731C84.9072 33.6118 84.8655 33.754 84.834 33.8985L84.8233 33.9475C84.7357 34.35 84.7135 34.7639 84.7577 35.1734L84.9637 37.0854ZM67.3478 47.8005L67.2583 47.5159C67.0305 46.7919 66.7073 46.1015 66.2971 45.463V45.463C65.8011 44.6908 65.1838 44.0037 64.469 43.428L63.991 43.043L62.1527 41.8191L60.0029 40.3443M60.0029 40.3443L59.2285 38.437V38.437C58.7333 37.2173 57.8133 36.1954 56.6461 35.5868V35.5868L55.9066 35.3116C55.2296 35.0597 54.4932 35.0137 53.7901 35.1796V35.1796C53.0483 35.3546 52.3767 35.7546 51.8857 36.3376C51.4541 36.85 51.0729 37.3251 51.1445 37.3174C51.1985 37.3116 51.1125 37.5267 50.977 37.8091C50.658 38.4742 50.495 39.2075 50.574 39.941V39.941C50.6336 40.494 50.8212 41.0256 51.1218 41.4936L51.1749 41.5763C51.5124 42.1016 51.9811 42.5297 52.5347 42.8184V42.8184C53.1628 43.1459 53.8737 43.2801 54.578 43.2042L55.0357 43.1549C55.5076 43.1041 55.9702 42.9877 56.4099 42.8091L57.6544 42.3039L58.7383 41.7287C58.9117 41.6367 59.0722 41.5222 59.2157 41.3883L59.8264 40.8184C59.9566 40.697 60.022 40.5213 60.0029 40.3443V40.3443Z" stroke="white" stroke-width="4.7792"/>
</g>
<g filter="url(#filter1_f_225_182)">
<path d="M63.1963 56.7801L58.3758 59.5521C57.1278 60.2697 55.9362 61.0814 54.8115 61.9799L53.607 62.9423C51.7003 64.4656 49.9462 66.1707 48.3695 68.0334V68.0334C46.4317 70.3228 44.8918 72.9209 43.8138 75.7198L43.0932 77.5905C41.9948 80.4424 41.1548 83.3873 40.5834 86.3895L40.1711 88.5553L39.3024 96.3279L46.1491 93.8836M63.1963 56.7801L69.4438 55.0778C69.8829 54.9581 70.3309 54.8735 70.7835 54.8247L73.7584 54.5041M63.1963 56.7801L63.5724 54.76C63.6816 54.1735 63.8516 53.5998 64.0795 53.0484L64.617 51.7483C64.9309 50.989 65.3519 50.2785 65.8673 49.6386L67.3478 47.8005M73.7584 54.5041L76.8053 54.1757C77.2101 54.1321 77.6174 54.1173 78.0242 54.1313L83.408 54.3174M73.7584 54.5041L75.4556 60.7331C75.5786 61.1846 75.7383 61.6252 75.9329 62.0508L77.8727 66.2901L79.9748 70.3452C80.2482 70.8727 80.5756 71.3704 80.9516 71.8304L84.6443 76.348C85.0799 76.8809 85.5778 77.3596 86.1275 77.7739L89.6439 80.4238C90.049 80.729 90.4803 80.9979 90.9328 81.2272L96.2694 83.9314L103.38 86.5779L108.631 87.7927M73.7584 54.5041L73.4274 60.9517C73.4034 61.419 73.3413 61.8836 73.2417 62.3408L72.2499 66.8961L71.1267 71.0592C70.928 71.7956 70.6322 72.5024 70.2471 73.1608L66.7448 79.1501L63.9528 82.8722C63.4952 83.4823 62.9585 84.0288 62.3568 84.4973L57.7533 88.0825L55.0979 89.7883C52.6225 91.3784 49.9535 92.6445 47.156 93.5556L46.1491 93.8836M63.9349 97.9392L68.3594 92.4459C68.7531 91.9571 69.0921 91.4266 69.3704 90.864L69.6947 90.2083M63.9349 97.9392L59.3351 101.42C58.8965 101.752 58.4271 102.041 57.9334 102.283L52.733 104.835L46.6995 106.907L46.3056 103.252L45.8275 98.8165C45.7626 98.2142 45.7615 97.6066 45.8242 97.004L46.1491 93.8836M63.9349 97.9392C63.922 98.699 63.9022 100.275 63.9265 100.5C63.944 100.662 64.1557 101.707 64.3453 102.623C64.4744 103.247 64.6747 103.855 64.94 104.434L65.1989 105C65.5031 105.665 65.8908 106.288 66.3526 106.855L69.9178 111.23L71.1838 112.421M86.0103 89.0187V89.0187C83.2064 85.7394 80.9193 82.0515 79.228 78.0822L79.1149 77.8169L76.9433 73.5004L75.1437 69.9971L74.9535 70.8708L74.6942 73.7428L74.4112 77.364C74.3609 78.0073 74.2385 78.6428 74.0461 79.2587L72.4223 84.4569C72.2884 84.8858 72.121 85.3035 71.9218 85.7062L69.6947 90.2083M86.0103 89.0187L89.4187 92.1898C89.8845 92.6232 90.3971 93.0036 90.9468 93.324L93.4144 94.7621M86.0103 89.0187L82.135 90.0052L79.5275 90.508C79.0378 90.6025 78.5409 90.6541 78.0422 90.6625L75.6688 90.7021L71.9533 90.5337L69.6947 90.2083M108.631 87.7927L108.673 87.8025C109.61 88.0194 110.577 88.0775 111.534 87.9744L115.431 87.5544L113.549 80.6471L113.101 79.4673C111.816 76.0791 110.089 72.8756 107.964 69.9401V69.9401C105.653 66.7468 102.926 63.8759 99.856 61.4033L98.6621 60.4417C98.3896 60.2222 98.101 60.0235 97.7987 59.8474L96.2934 58.9701C93.7625 57.4951 91.0867 56.284 88.3083 55.3558L87.3028 55.0199C86.045 54.5998 84.7333 54.3631 83.408 54.3174V54.3174M108.631 87.7927L109.86 91.2832L110.968 96.2832L111.362 99.938L107.675 99.6819C104.804 99.4825 101.987 98.8042 99.3392 97.6752L95.8855 96.2022L93.4144 94.7621M93.4144 94.7621L93.2052 97.3443M64.2076 100.469L67.0677 101.433C67.7164 101.652 68.3889 101.792 69.0709 101.852L70.9673 102.016L75.7562 102.069L79.6921 101.645L84.1601 100.879L88.2863 99.5809L93.2052 97.3443M93.2052 97.3443L93.125 98.3328C93.0855 98.8205 93.0045 99.304 92.8827 99.778L91.8636 103.746L90.1346 108.081C89.9442 108.558 89.7115 109.017 89.4391 109.453L88.5143 110.932M71.1838 112.421L73.7157 114.803L76.6159 117.138C76.9658 117.42 77.3372 117.674 77.7268 117.898L80.4765 119.478L81.0161 119.131C83.467 117.557 85.5657 115.492 87.1801 113.067V113.067L88.5143 110.932M71.1838 112.421L74.0356 112.493L77.4396 112.41L81.0944 112.017L83.0624 111.804L85.0303 111.592L88.5143 110.932M78.9351 47.1205L78.8291 47.081C78.2651 46.8711 74.8612 45.7763 74.2732 45.6479V45.6479C74.2441 45.6415 74.2098 45.6364 74.1801 45.6347L73.6239 45.6025C72.8837 45.5597 72.1411 45.6245 71.4194 45.7947L71.0603 45.8795C70.5473 46.0005 70.0474 46.172 69.568 46.3913L68.5767 46.8449C68.0985 47.0637 67.6777 47.3909 67.3478 47.8005V47.8005M78.9351 47.1205L80.1809 48.1238L80.3453 48.2563C81.2612 48.994 81.9928 49.9348 82.4821 51.0043V51.0043V51.0043C82.9537 51.8929 83.2513 52.8632 83.3591 53.8634L83.408 54.3174M78.9351 47.1205L78.9532 46.0555C78.9669 45.2499 79.0937 44.4502 79.3299 43.6798L79.411 43.4155C79.5403 42.9939 79.7018 42.5829 79.8941 42.1861L80.0237 41.9184C80.5154 40.9038 81.2018 39.9956 82.0438 39.2457L82.585 38.7638L83.0423 38.3094C83.5873 37.768 84.2427 37.3505 84.9637 37.0854V37.0854M84.9637 37.0854L85.4427 37.7184C85.7839 38.1693 86.2028 38.5558 86.6797 38.8597L86.7689 38.9165C87.2419 39.218 87.7702 39.4224 88.3229 39.5178L88.5558 39.558C89.1821 39.6661 89.8262 39.5967 90.4152 39.3576V39.3576C91.0698 39.0918 91.6255 38.6289 92.0052 38.0331L92.0705 37.9306C92.2852 37.5938 92.4452 37.225 92.5445 36.8382L92.7265 36.1296C92.9021 35.446 92.8752 34.7262 92.6492 34.0576V34.0576C92.3366 33.1331 91.666 32.3728 90.7878 31.9472L90.5338 31.8242C90.0229 31.5766 89.4682 31.4323 88.9015 31.3995L88.8248 31.3951C88.3071 31.3651 87.7879 31.4211 87.2884 31.5607L86.7649 31.707C86.5139 31.7771 86.2748 31.8844 86.0555 32.0252V32.0252C85.5796 32.331 85.2157 32.7828 85.0184 33.313L84.9588 33.4731C84.9072 33.6118 84.8655 33.754 84.834 33.8985L84.8233 33.9475C84.7357 34.35 84.7135 34.7639 84.7577 35.1734L84.9637 37.0854ZM67.3478 47.8005L67.2583 47.5159C67.0305 46.7919 66.7073 46.1015 66.2971 45.463V45.463C65.8011 44.6908 65.1838 44.0037 64.469 43.428L63.991 43.043L62.1527 41.8191L60.0029 40.3443M60.0029 40.3443L59.2285 38.437V38.437C58.7333 37.2173 57.8133 36.1954 56.6461 35.5868V35.5868L55.9066 35.3116C55.2296 35.0597 54.4932 35.0137 53.7901 35.1796V35.1796C53.0483 35.3546 52.3767 35.7546 51.8857 36.3376C51.4541 36.85 51.0729 37.3251 51.1445 37.3174C51.1985 37.3116 51.1125 37.5267 50.977 37.8091C50.658 38.4742 50.495 39.2075 50.574 39.941V39.941C50.6336 40.494 50.8212 41.0256 51.1218 41.4936L51.1749 41.5763C51.5124 42.1016 51.9811 42.5297 52.5347 42.8184V42.8184C53.1628 43.1459 53.8737 43.2801 54.578 43.2042L55.0357 43.1549C55.5076 43.1041 55.9702 42.9877 56.4099 42.8091L57.6544 42.3039L58.7383 41.7287C58.9117 41.6367 59.0722 41.5222 59.2157 41.3883L59.8264 40.8184C59.9566 40.697 60.022 40.5213 60.0029 40.3443V40.3443Z" stroke="#FFF500" stroke-width="4.7792"/>
</g>
<defs>
<filter id="filter0_f_225_182" x="28.8552" y="21.3508" width="97.2641" height="108.569" filterUnits="userSpaceOnUse" color-interpolation-filters="sRGB">
<feFlood flood-opacity="0" result="BackgroundImageFix"/>
<feBlend mode="normal" in="SourceGraphic" in2="BackgroundImageFix" result="shape"/>
<feGaussianBlur stdDeviation="3.82336" result="effect1_foregroundBlur_225_182"/>
</filter>
<filter id="filter1_f_225_182" x="34.5903" y="27.0859" width="85.7941" height="97.0992" filterUnits="userSpaceOnUse" color-interpolation-filters="sRGB">
<feFlood flood-opacity="0" result="BackgroundImageFix"/>
<feBlend mode="normal" in="SourceGraphic" in2="BackgroundImageFix" result="shape"/>
<feGaussianBlur stdDeviation="0.955839" result="effect1_foregroundBlur_225_182"/>
</filter>
</defs>
</svg>
