<svg width="99" height="101" viewBox="0 0 99 101" fill="none" xmlns="http://www.w3.org/2000/svg">
<g filter="url(#filter0_f_225_185)">
<g filter="url(#filter1_f_225_185)">
<path d="M32.5541 43.2144L30.6619 47.1517C30.172 48.1711 29.7605 49.2262 29.4308 50.3081L29.0778 51.4666C28.519 53.3006 28.1398 55.1846 27.9456 57.092V57.092C27.7069 59.4361 27.8631 61.8036 28.4078 64.096L28.7719 65.6282C29.3269 67.964 30.0907 70.2453 31.054 72.4444L31.749 74.0309L34.6385 79.4531L37.9892 74.828M32.5541 43.2144L35.8461 39.3363C36.0775 39.0637 36.3302 38.8099 36.6017 38.5772L38.3869 37.0481M32.5541 43.2144L31.9005 41.7384C31.7107 41.3098 31.5661 40.8626 31.4688 40.4041L31.2396 39.3229C31.1057 38.6915 31.0629 38.0441 31.1126 37.4006L31.2555 35.5519M38.3869 37.0481L40.2154 35.4819C40.4582 35.2738 40.7156 35.0833 40.9854 34.9117L44.5565 32.6408M38.3869 37.0481L42.2535 40.3303C42.5337 40.5682 42.8329 40.7828 43.1481 40.9721L46.288 42.8574L49.4513 44.5512C49.8628 44.7715 50.296 44.9486 50.744 45.0797L55.1433 46.3666C55.6623 46.5184 56.1976 46.6074 56.7378 46.6317L60.1933 46.7867C60.5914 46.8046 60.9903 46.7872 61.3853 46.7348L66.0444 46.1166L71.8276 44.6728L75.7691 43.1278M38.3869 37.0481L41.0364 41.3728C41.2284 41.6863 41.3945 42.0149 41.5331 42.3554L42.9139 45.7476L44.0352 48.944C44.2336 49.5095 44.3559 50.0988 44.3989 50.6965L44.7899 56.133L44.6341 59.7849C44.6086 60.3835 44.5036 60.976 44.3218 61.5469L42.9314 65.9147L41.9685 68.1995C41.0709 70.3294 39.9039 72.3353 38.4959 74.1683L37.9892 74.828M51.3151 69.5557L51.7419 64.0309C51.7799 63.5393 51.7639 63.045 51.6944 62.5569L51.6133 61.9879M51.3151 69.5557L49.8807 73.8542C49.7439 74.2641 49.5682 74.6599 49.3559 75.0362L47.1196 78.9993L44.1306 83.0222L42.2519 80.8289L39.972 78.1672C39.6623 77.8058 39.3917 77.4126 39.1647 76.9942L37.9892 74.828M51.3151 69.5557C51.6442 70.0537 52.3314 71.0836 52.447 71.2186C52.5306 71.3162 53.1317 71.8988 53.6615 72.4084C54.0225 72.7555 54.422 73.0599 54.8514 73.3177L55.2704 73.5694C55.7629 73.865 56.291 74.0967 56.842 74.2588L61.0955 75.5102L62.4448 75.7194M61.6567 53.9699V53.9699C58.3832 53.0905 55.2631 51.7168 52.4041 49.8961L52.213 49.7744L48.8886 47.9422L46.1664 46.4715L46.4312 47.1222L47.5389 49.0983L48.964 51.5703C49.2172 52.0095 49.4201 52.4757 49.5691 52.9602L50.8259 57.0497C50.9296 57.3871 51.0067 57.7321 51.0565 58.0815L51.6133 61.9879M61.6567 53.9699L65.2737 54.5107C65.7681 54.5846 66.2692 54.6034 66.7677 54.5668L69.0054 54.4026M61.6567 53.9699L59.5838 56.3305L58.1176 57.8145C57.8423 58.0932 57.5432 58.3474 57.2238 58.5743L55.7035 59.6543L53.2213 61.1955L51.6133 61.9879M75.7691 43.1278L75.8009 43.1153C76.5046 42.8395 77.1571 42.4476 77.7311 41.9559L80.0694 39.9529L75.7818 36.3133L74.9677 35.7476C72.63 34.123 70.0878 32.8146 67.4072 31.8562V31.8562C64.4912 30.8137 61.4492 30.1647 58.3617 29.9262L57.1609 29.8334C56.8869 29.8122 56.6116 29.8117 56.3375 29.8318L54.9724 29.932C52.6773 30.1005 50.4056 30.5043 48.193 31.137L47.3922 31.366C46.3906 31.6525 45.4356 32.0818 44.5565 32.6408V32.6408M75.7691 43.1278L78.1162 44.8435L81.0548 47.5912L82.9334 49.7844L80.4311 51.2559C78.4821 52.402 76.3552 53.214 74.1383 53.6584L71.2462 54.2381L69.0054 54.4026M69.0054 54.4026L70.0167 56.1687M52.6157 71.0741L54.897 70.4282C55.4145 70.2817 55.9126 70.0739 56.3808 69.8094L57.6828 69.0737L60.8092 66.9807L63.1711 64.9575L65.7259 62.4766L67.823 59.8028L70.0167 56.1687M70.0167 56.1687L70.4039 56.8448C70.595 57.1784 70.7572 57.5277 70.8888 57.8888L71.991 60.9125L72.7961 64.4892C72.8847 64.883 72.9379 65.284 72.955 65.6873L73.013 67.0569M62.4448 75.7194L65.1432 76.138L68.0599 76.3633C68.4119 76.3905 68.7653 76.39 69.1172 76.362L71.6005 76.1641L71.7962 75.6999C72.6849 73.591 73.1277 71.321 73.0967 69.0327V69.0327L73.013 67.0569M62.4448 75.7194L64.3245 74.4993L66.4935 72.9338L68.6867 71.0552L69.8677 70.0436L71.0486 69.032L73.013 67.0569M38.4615 29.9643L38.3753 29.9858C37.9166 30.1004 35.2247 30.903 34.7867 31.0809V31.0809C34.765 31.0897 34.7405 31.1016 34.7205 31.1137L34.3458 31.3399C33.8471 31.641 33.3947 32.0128 33.0027 32.4437L32.8077 32.6581C32.5291 32.9644 32.2813 33.2976 32.0681 33.6526L31.6273 34.3868C31.4146 34.741 31.2873 35.1399 31.2555 35.5519V35.5519M38.4615 29.9643L39.7144 30.0611L39.8797 30.0739C40.8009 30.145 41.6929 30.4297 42.485 30.9053V30.9053V30.9053C43.1852 31.2716 43.8091 31.7682 44.3232 32.3684L44.5565 32.6408M38.4615 29.9643L38.0002 29.2662C37.6512 28.7381 37.3782 28.1636 37.189 27.5595L37.1241 27.3523C37.0206 27.0217 36.9427 26.6836 36.891 26.3411L36.8562 26.1101C36.7241 25.2342 36.7655 24.3409 36.9779 23.481L37.1145 22.9283L37.209 22.4307C37.3217 21.8378 37.5609 21.2762 37.9103 20.7842V20.7842M37.9103 20.7842L38.5018 20.9816C38.9232 21.1222 39.3663 21.1865 39.8103 21.1716L39.8934 21.1688C40.3338 21.1541 40.7669 21.0518 41.1674 20.8681L41.3361 20.7908C41.79 20.5826 42.1765 20.2515 42.4519 19.835V19.835C42.758 19.372 42.9125 18.8252 42.8939 18.2705L42.8907 18.1751C42.8801 17.8615 42.82 17.5515 42.7126 17.2567L42.5157 16.7167C42.3259 16.1958 41.9887 15.7413 41.5453 15.4085V15.4085C40.9321 14.9483 40.1598 14.7535 39.4017 14.8679L39.1825 14.9009C38.7415 14.9675 38.318 15.1203 37.9362 15.3508L37.8846 15.382C37.5358 15.5926 37.2243 15.8594 36.9626 16.1718L36.6884 16.4991C36.5569 16.656 36.4496 16.8318 36.3701 17.0204V17.0204C36.1975 17.4299 36.1624 17.8844 36.2701 18.3155L36.3026 18.4458C36.3307 18.5586 36.3669 18.6692 36.4107 18.7769L36.4255 18.8133C36.5475 19.113 36.717 19.3911 36.9275 19.6368L37.9103 20.7842ZM31.2555 35.5519L31.071 35.4073C30.6019 35.0393 30.0858 34.7356 29.5364 34.504V34.504C28.872 34.224 28.1668 34.053 27.4479 33.9974L26.9672 33.9603L25.2324 33.9838L23.1843 33.9832M23.1843 33.9832L21.8353 33.0912V33.0912C20.9727 32.5209 19.9226 32.2674 18.896 32.3915V32.3915L18.2947 32.5417C17.7441 32.6791 17.2465 32.9765 16.8646 33.3963V33.3963C16.4617 33.8392 16.2041 34.3967 16.145 34.9925C16.0929 35.5162 16.057 35.9934 16.0999 35.9566C16.1323 35.9288 16.1722 36.1064 16.2098 36.3496C16.2985 36.9223 16.5187 37.4699 16.8956 37.91V37.91C17.1799 38.2418 17.5376 38.503 17.9403 38.6727L18.0114 38.7027C18.4634 38.8931 18.9573 38.9624 19.4442 38.9035V38.9035C19.9966 38.8367 20.5169 38.6079 20.9395 38.2459L21.2142 38.0106C21.4974 37.7681 21.7454 37.4872 21.9511 37.1762L22.533 36.296L22.9798 35.4419C23.0513 35.3053 23.1045 35.1598 23.138 35.0092L23.2806 34.3687C23.311 34.2322 23.2753 34.0894 23.1843 33.9832V33.9832Z" stroke="white" stroke-width="3.7545"/>
</g>
<g filter="url(#filter2_f_225_185)">
<path d="M32.5541 43.2144L30.6619 47.1517C30.172 48.1711 29.7605 49.2262 29.4308 50.3081L29.0778 51.4666C28.519 53.3006 28.1398 55.1846 27.9456 57.092V57.092C27.7069 59.4361 27.8631 61.8036 28.4078 64.096L28.7719 65.6282C29.3269 67.964 30.0907 70.2453 31.054 72.4444L31.749 74.0309L34.6385 79.4531L37.9892 74.828M32.5541 43.2144L35.8461 39.3363C36.0775 39.0637 36.3302 38.8099 36.6017 38.5772L38.3869 37.0481M32.5541 43.2144L31.9005 41.7384C31.7107 41.3098 31.5661 40.8626 31.4688 40.4041L31.2396 39.3229C31.1057 38.6915 31.0629 38.0441 31.1126 37.4006L31.2555 35.5519M38.3869 37.0481L40.2154 35.4819C40.4582 35.2738 40.7156 35.0833 40.9854 34.9117L44.5565 32.6408M38.3869 37.0481L42.2535 40.3303C42.5337 40.5682 42.8329 40.7828 43.1481 40.9721L46.288 42.8574L49.4513 44.5512C49.8628 44.7715 50.296 44.9486 50.744 45.0797L55.1433 46.3666C55.6623 46.5184 56.1976 46.6074 56.7378 46.6317L60.1933 46.7867C60.5914 46.8046 60.9903 46.7872 61.3853 46.7348L66.0444 46.1166L71.8276 44.6728L75.7691 43.1278M38.3869 37.0481L41.0364 41.3728C41.2284 41.6863 41.3945 42.0149 41.5331 42.3554L42.9139 45.7476L44.0352 48.944C44.2336 49.5095 44.3559 50.0988 44.3989 50.6965L44.7899 56.133L44.6341 59.7849C44.6086 60.3835 44.5036 60.976 44.3218 61.5469L42.9314 65.9147L41.9685 68.1995C41.0709 70.3294 39.9039 72.3353 38.4959 74.1683L37.9892 74.828M51.3151 69.5557L51.7419 64.0309C51.7799 63.5393 51.7639 63.045 51.6944 62.5569L51.6133 61.9879M51.3151 69.5557L49.8807 73.8542C49.7439 74.2641 49.5682 74.6599 49.3559 75.0362L47.1196 78.9993L44.1306 83.0222L42.2519 80.8289L39.972 78.1672C39.6623 77.8058 39.3917 77.4126 39.1647 76.9942L37.9892 74.828M51.3151 69.5557C51.6442 70.0537 52.3314 71.0836 52.447 71.2186C52.5306 71.3162 53.1317 71.8988 53.6615 72.4084C54.0225 72.7555 54.422 73.0599 54.8514 73.3177L55.2704 73.5694C55.7629 73.865 56.291 74.0967 56.842 74.2588L61.0955 75.5102L62.4448 75.7194M61.6567 53.9699V53.9699C58.3832 53.0905 55.2631 51.7168 52.4041 49.8961L52.213 49.7744L48.8886 47.9422L46.1664 46.4715L46.4312 47.1222L47.5389 49.0983L48.964 51.5703C49.2172 52.0095 49.4201 52.4757 49.5691 52.9602L50.8259 57.0497C50.9296 57.3871 51.0067 57.7321 51.0565 58.0815L51.6133 61.9879M61.6567 53.9699L65.2737 54.5107C65.7681 54.5846 66.2692 54.6034 66.7677 54.5668L69.0054 54.4026M61.6567 53.9699L59.5838 56.3305L58.1176 57.8145C57.8423 58.0932 57.5432 58.3474 57.2238 58.5743L55.7035 59.6543L53.2213 61.1955L51.6133 61.9879M75.7691 43.1278L75.8009 43.1153C76.5046 42.8395 77.1571 42.4476 77.7311 41.9559L80.0694 39.9529L75.7818 36.3133L74.9677 35.7476C72.63 34.123 70.0878 32.8146 67.4072 31.8562V31.8562C64.4912 30.8137 61.4492 30.1647 58.3617 29.9262L57.1609 29.8334C56.8869 29.8122 56.6116 29.8117 56.3375 29.8318L54.9724 29.932C52.6773 30.1005 50.4056 30.5043 48.193 31.137L47.3922 31.366C46.3906 31.6525 45.4356 32.0818 44.5565 32.6408V32.6408M75.7691 43.1278L78.1162 44.8435L81.0548 47.5912L82.9334 49.7844L80.4311 51.2559C78.4821 52.402 76.3552 53.214 74.1383 53.6584L71.2462 54.2381L69.0054 54.4026M69.0054 54.4026L70.0167 56.1687M52.6157 71.0741L54.897 70.4282C55.4145 70.2817 55.9126 70.0739 56.3808 69.8094L57.6828 69.0737L60.8092 66.9807L63.1711 64.9575L65.7259 62.4766L67.823 59.8028L70.0167 56.1687M70.0167 56.1687L70.4039 56.8448C70.595 57.1784 70.7572 57.5277 70.8888 57.8888L71.991 60.9125L72.7961 64.4892C72.8847 64.883 72.9379 65.284 72.955 65.6873L73.013 67.0569M62.4448 75.7194L65.1432 76.138L68.0599 76.3633C68.4119 76.3905 68.7653 76.39 69.1172 76.362L71.6005 76.1641L71.7962 75.6999C72.6849 73.591 73.1277 71.321 73.0967 69.0327V69.0327L73.013 67.0569M62.4448 75.7194L64.3245 74.4993L66.4935 72.9338L68.6867 71.0552L69.8677 70.0436L71.0486 69.032L73.013 67.0569M38.4615 29.9643L38.3753 29.9858C37.9166 30.1004 35.2247 30.903 34.7867 31.0809V31.0809C34.765 31.0897 34.7405 31.1016 34.7205 31.1137L34.3458 31.3399C33.8471 31.641 33.3947 32.0128 33.0027 32.4437L32.8077 32.6581C32.5291 32.9644 32.2813 33.2976 32.0681 33.6526L31.6273 34.3868C31.4146 34.741 31.2873 35.1399 31.2555 35.5519V35.5519M38.4615 29.9643L39.7144 30.0611L39.8797 30.0739C40.8009 30.145 41.6929 30.4297 42.485 30.9053V30.9053V30.9053C43.1852 31.2716 43.8091 31.7682 44.3232 32.3684L44.5565 32.6408M38.4615 29.9643L38.0002 29.2662C37.6512 28.7381 37.3782 28.1636 37.189 27.5595L37.1241 27.3523C37.0206 27.0217 36.9427 26.6836 36.891 26.3411L36.8562 26.1101C36.7241 25.2342 36.7655 24.3409 36.9779 23.481L37.1145 22.9283L37.209 22.4307C37.3217 21.8378 37.5609 21.2762 37.9103 20.7842V20.7842M37.9103 20.7842L38.5018 20.9816C38.9232 21.1222 39.3663 21.1865 39.8103 21.1716L39.8934 21.1688C40.3338 21.1541 40.7669 21.0518 41.1674 20.8681L41.3361 20.7908C41.79 20.5826 42.1765 20.2515 42.4519 19.835V19.835C42.758 19.372 42.9125 18.8252 42.8939 18.2705L42.8907 18.1751C42.8801 17.8615 42.82 17.5515 42.7126 17.2567L42.5157 16.7167C42.3259 16.1958 41.9887 15.7413 41.5453 15.4085V15.4085C40.9321 14.9483 40.1598 14.7535 39.4017 14.8679L39.1825 14.9009C38.7415 14.9675 38.318 15.1203 37.9362 15.3508L37.8846 15.382C37.5358 15.5926 37.2243 15.8594 36.9626 16.1718L36.6884 16.4991C36.5569 16.656 36.4496 16.8318 36.3701 17.0204V17.0204C36.1975 17.4299 36.1624 17.8844 36.2701 18.3155L36.3026 18.4458C36.3307 18.5586 36.3669 18.6692 36.4107 18.7769L36.4255 18.8133C36.5475 19.113 36.717 19.3911 36.9275 19.6368L37.9103 20.7842ZM31.2555 35.5519L31.071 35.4073C30.6019 35.0393 30.0858 34.7356 29.5364 34.504V34.504C28.872 34.224 28.1668 34.053 27.4479 33.9974L26.9672 33.9603L25.2324 33.9838L23.1843 33.9832M23.1843 33.9832L21.8353 33.0912V33.0912C20.9727 32.5209 19.9226 32.2674 18.896 32.3915V32.3915L18.2947 32.5417C17.7441 32.6791 17.2465 32.9765 16.8646 33.3963V33.3963C16.4617 33.8392 16.2041 34.3967 16.145 34.9925C16.0929 35.5162 16.057 35.9934 16.0999 35.9566C16.1323 35.9288 16.1722 36.1064 16.2098 36.3496C16.2985 36.9223 16.5187 37.4699 16.8956 37.91V37.91C17.1799 38.2418 17.5376 38.503 17.9403 38.6727L18.0114 38.7027C18.4634 38.8931 18.9573 38.9624 19.4442 38.9035V38.9035C19.9966 38.8367 20.5169 38.6079 20.9395 38.2459L21.2142 38.0106C21.4974 37.7681 21.7454 37.4872 21.9511 37.1762L22.533 36.296L22.9798 35.4419C23.0513 35.3053 23.1045 35.1598 23.138 35.0092L23.2806 34.3687C23.311 34.2322 23.2753 34.0894 23.1843 33.9832V33.9832Z" stroke="#FFF500" stroke-width="3.7545"/>
</g>
</g>
<defs>
<filter id="filter0_f_225_185" x="10.2031" y="8.9585" width="79.6152" height="81.0708" filterUnits="userSpaceOnUse" color-interpolation-filters="sRGB">
<feFlood flood-opacity="0" result="BackgroundImageFix"/>
<feBlend mode="normal" in="SourceGraphic" in2="BackgroundImageFix" result="shape"/>
<feGaussianBlur stdDeviation="2" result="effect1_foregroundBlur_225_185"/>
</filter>
<filter id="filter1_f_225_185" x="8.19593" y="6.9513" width="83.6296" height="85.0852" filterUnits="userSpaceOnUse" color-interpolation-filters="sRGB">
<feFlood flood-opacity="0" result="BackgroundImageFix"/>
<feBlend mode="normal" in="SourceGraphic" in2="BackgroundImageFix" result="shape"/>
<feGaussianBlur stdDeviation="3.0036" result="effect1_foregroundBlur_225_185"/>
</filter>
<filter id="filter2_f_225_185" x="12.7013" y="11.4567" width="74.6188" height="76.0744" filterUnits="userSpaceOnUse" color-interpolation-filters="sRGB">
<feFlood flood-opacity="0" result="BackgroundImageFix"/>
<feBlend mode="normal" in="SourceGraphic" in2="BackgroundImageFix" result="shape"/>
<feGaussianBlur stdDeviation="0.750899" result="effect1_foregroundBlur_225_185"/>
</filter>
</defs>
</svg>
