<svg width="126" height="126" viewBox="0 0 126 126" fill="none" xmlns="http://www.w3.org/2000/svg">
<g filter="url(#filter0_f_225_173)">
<g filter="url(#filter1_f_225_173)">
<path d="M57.3004 45.3697L53.0726 46.4693C51.9781 46.754 50.9068 47.1216 49.8681 47.569L48.7558 48.0481C46.9949 48.8064 45.3119 49.7342 43.7306 50.8183V50.8183C41.7872 52.1506 40.0811 53.7995 38.6833 55.6963L37.749 56.9641C36.3248 58.8969 35.077 60.9537 34.0209 63.1098L33.2589 64.6652L30.9872 70.3739L36.6822 69.9432M57.3004 45.3697L62.3873 45.3769C62.7449 45.3774 63.1019 45.4062 63.4549 45.4632L65.7754 45.8379M57.3004 45.3697L58.0047 43.9173C58.2092 43.4955 58.4571 43.0962 58.7442 42.7257L59.4213 41.8523C59.8168 41.3421 60.2833 40.8912 60.8066 40.5134L62.3099 39.428M65.7754 45.8379L68.1522 46.2215C68.4679 46.2725 68.7796 46.3458 69.0849 46.4409L73.1254 47.6995M65.7754 45.8379L65.7683 50.9097C65.7678 51.2773 65.7973 51.6443 65.8565 52.0071L66.4461 55.6218L67.197 59.1306C67.2947 59.587 67.4394 60.0321 67.6288 60.4587L69.4889 64.648C69.7083 65.1422 69.9862 65.6083 70.3167 66.0363L72.4309 68.774C72.6745 69.0893 72.9454 69.3826 73.2407 69.6502L76.7227 72.8069L81.5611 76.2882L85.2869 78.2985M65.7754 45.8379L64.1862 50.6542C64.071 51.0033 63.9276 51.3425 63.7572 51.6682L62.0601 54.9138L60.3449 57.8348C60.0415 58.3515 59.6707 58.8256 59.2422 59.2446L55.3454 63.0554L52.4573 65.296C51.9839 65.6632 51.4638 65.9659 50.9107 66.196L46.6786 67.9567L44.3125 68.6979C42.107 69.3889 39.8219 69.7941 37.5132 69.9037L36.6822 69.9432M49.3161 76.7081L53.8087 73.4644C54.2084 73.1758 54.5754 72.8442 54.9031 72.4757L55.2849 72.0463M49.3161 76.7081L45.1084 78.3905C44.7072 78.5509 44.2915 78.6724 43.8672 78.7535L39.3974 79.6072L34.3957 79.9248L34.856 77.0739L35.4145 73.614C35.4904 73.1441 35.6157 72.6836 35.7883 72.24L36.6822 69.9432M49.3161 76.7081C49.1485 77.2811 48.8064 78.471 48.7781 78.6464C48.7576 78.7733 48.7013 79.6085 48.6547 80.3421C48.6229 80.8419 48.6487 81.3435 48.7293 81.8378L48.808 82.3202C48.9005 82.8871 49.0648 83.4399 49.2971 83.9652L51.0901 88.0203L51.8021 89.1853M67.8937 74.5318V74.5318C66.45 71.4651 65.4827 68.1961 65.0252 64.8376L64.9946 64.6131L64.2452 60.8919L63.609 57.864L63.2835 58.4865L62.4908 60.6087L61.5247 63.2936C61.3531 63.7705 61.1284 64.2267 60.8548 64.6534L58.5454 68.2548C58.3549 68.5519 58.1414 68.8337 57.9069 69.0974L55.2849 72.0463M67.8937 74.5318L69.8178 77.6419C70.0808 78.067 70.3902 78.4617 70.7402 78.8185L72.3113 80.4203M67.8937 74.5318L64.7527 74.4748L62.6727 74.3145C62.2821 74.2844 61.8948 74.2204 61.5153 74.1232L59.7087 73.6605L56.9286 72.7617L55.2849 72.0463M85.2869 78.2985L85.317 78.3147C85.9821 78.6736 86.7028 78.9184 87.449 79.0388L90.4885 79.5295L90.4964 73.9054L90.4022 72.9186C90.1318 70.0847 89.4881 67.2989 88.4876 64.6337V64.6337C87.3994 61.7345 85.9294 58.9933 84.1167 56.4826L83.4117 55.5062C83.2508 55.2833 83.0734 55.0729 82.8809 54.8767L81.9224 53.8995C80.311 52.2565 78.5351 50.7835 76.6226 49.5035L75.9305 49.0403C75.0648 48.4608 74.12 48.0093 73.1254 47.6995V47.6995M85.2869 78.2985L85.4938 81.1984L85.2951 85.2166L84.8349 88.0675L82.095 87.1083C79.961 86.3612 77.967 85.2624 76.1956 83.8574L73.8846 82.0244L72.3113 80.4203M72.3113 80.4203L71.6167 82.3334M48.9974 78.6818L50.9643 80.0058C51.4105 80.3061 51.8908 80.5521 52.3953 80.7385L53.798 81.2569L57.4154 82.2909L60.4856 82.7866L64.0298 83.1337L67.4256 83.0069L71.6167 82.3334M71.6167 82.3334L71.3508 83.0657C71.2196 83.427 71.0578 83.7765 70.8672 84.1104L69.2714 86.9051L67.0616 89.8305C66.8183 90.1526 66.5466 90.4522 66.2498 90.7258L65.2419 91.655M51.8021 89.1853L53.2261 91.5153L54.9386 93.8871C55.1452 94.1733 55.3739 94.4428 55.6226 94.6933L57.378 96.4609L57.8588 96.3103C60.0427 95.6261 62.0614 94.4975 63.7879 92.9954V92.9954L65.2419 91.655M51.8021 89.1853L53.9479 89.8317L56.5441 90.4758L59.395 90.9361L60.9301 91.1839L62.4652 91.4317L65.2419 91.655M71.2304 41.3181L71.1583 41.2662C70.7745 40.9901 68.4228 39.454 68.0039 39.2346V39.2346C67.9832 39.2238 67.9583 39.2128 67.9361 39.2053L67.5214 39.0655C66.9694 38.8794 66.3933 38.7743 65.8112 38.7535L65.5216 38.7431C65.1077 38.7284 64.6933 38.7545 64.2846 38.8212L63.4394 38.959C63.0316 39.0256 62.6449 39.1861 62.3099 39.428V39.428M71.2304 41.3181L71.966 42.3369L72.0631 42.4714C72.6039 43.2205 72.9629 44.0852 73.1117 44.997V44.997V44.997C73.2845 45.7682 73.3086 46.5652 73.1826 47.3453L73.1254 47.6995M71.2304 41.3181L71.4652 40.515C71.6428 39.9074 71.9049 39.3278 72.2438 38.7932L72.36 38.6098C72.5455 38.3172 72.7532 38.0393 72.9813 37.7785L73.1351 37.6026C73.7183 36.9359 74.4268 36.3904 75.2204 35.997L75.7305 35.7441L76.1714 35.4948C76.6967 35.1977 77.2799 35.0174 77.8812 34.9663V34.9663M77.8812 34.9663L78.1127 35.5453C78.2777 35.9578 78.5148 36.3376 78.813 36.6668L78.8688 36.7284C79.1647 37.055 79.5225 37.3195 79.9215 37.5065L80.0896 37.5853C80.5417 37.7973 81.0441 37.8784 81.5399 37.8195V37.8195C82.0911 37.754 82.6082 37.5186 83.0196 37.146L83.0904 37.0819C83.3229 36.8713 83.5207 36.6251 83.6763 36.3526L83.9613 35.8535C84.2362 35.3721 84.3653 34.8211 84.3328 34.2676V34.2676C84.2879 33.5023 83.9376 32.787 83.3605 32.2822L83.1937 32.1363C82.858 31.8426 82.4677 31.6182 82.0451 31.4757L81.9879 31.4564C81.6018 31.3262 81.1969 31.2608 80.7894 31.2629L80.3624 31.2651C80.1577 31.2661 79.9543 31.2978 79.7589 31.359V31.359C79.3348 31.4918 78.9653 31.7587 78.7057 32.1194L78.6273 32.2283C78.5594 32.3227 78.4983 32.4218 78.4445 32.5248L78.4262 32.5596C78.2763 32.8464 78.1736 33.1554 78.122 33.4748L77.8812 34.9663ZM62.3099 39.428L62.3011 39.1938C62.2789 38.598 62.1773 38.0078 61.9991 37.4388V37.4388C61.7835 36.7508 61.4585 36.102 61.0364 35.5175L60.7541 35.1265L59.6154 33.8176L58.2927 32.254M58.2927 32.254L58.1019 30.6481V30.6481C57.9799 29.6212 57.4949 28.656 56.7369 27.9526V27.9526L56.2338 27.5905C55.7731 27.2591 55.2247 27.0714 54.6575 27.0512V27.0512C54.0592 27.0298 53.4673 27.1934 52.9743 27.5332C52.5409 27.8318 52.1535 28.1127 52.2093 28.1217C52.2514 28.1285 52.1416 28.2736 51.9803 28.4595C51.6005 28.8972 51.3248 29.419 51.2325 29.9911V29.9911C51.1628 30.4225 51.1946 30.8642 51.3252 31.2812L51.3483 31.3548C51.4949 31.8229 51.7612 32.2446 52.1207 32.5782V32.5782C52.5286 32.9567 53.0394 33.206 53.5887 33.2947L53.9458 33.3524C54.3139 33.4118 54.6885 33.4196 55.0588 33.3756L56.1065 33.2512L57.0471 33.0404C57.1976 33.0067 57.343 32.9533 57.4796 32.8816L58.0606 32.5766C58.1844 32.5116 58.2704 32.392 58.2927 32.254V32.254Z" stroke="white" stroke-width="3.7545"/>
</g>
<g filter="url(#filter2_f_225_173)">
<path d="M57.3004 45.3697L53.0726 46.4693C51.9781 46.754 50.9068 47.1216 49.8681 47.569L48.7558 48.0481C46.9949 48.8064 45.3119 49.7342 43.7306 50.8183V50.8183C41.7872 52.1506 40.0811 53.7995 38.6833 55.6963L37.749 56.9641C36.3248 58.8969 35.077 60.9537 34.0209 63.1098L33.2589 64.6652L30.9872 70.3739L36.6822 69.9432M57.3004 45.3697L62.3873 45.3769C62.7449 45.3774 63.1019 45.4062 63.4549 45.4632L65.7754 45.8379M57.3004 45.3697L58.0047 43.9173C58.2092 43.4955 58.4571 43.0962 58.7442 42.7257L59.4213 41.8523C59.8168 41.3421 60.2833 40.8912 60.8066 40.5134L62.3099 39.428M65.7754 45.8379L68.1522 46.2215C68.4679 46.2725 68.7796 46.3458 69.0849 46.4409L73.1254 47.6995M65.7754 45.8379L65.7683 50.9097C65.7678 51.2773 65.7973 51.6443 65.8565 52.0071L66.4461 55.6218L67.197 59.1306C67.2947 59.587 67.4394 60.0321 67.6288 60.4587L69.4889 64.648C69.7083 65.1422 69.9862 65.6083 70.3167 66.0363L72.4309 68.774C72.6745 69.0893 72.9454 69.3826 73.2407 69.6502L76.7227 72.8069L81.5611 76.2882L85.2869 78.2985M65.7754 45.8379L64.1862 50.6542C64.071 51.0033 63.9276 51.3425 63.7572 51.6682L62.0601 54.9138L60.3449 57.8348C60.0415 58.3515 59.6707 58.8256 59.2422 59.2446L55.3454 63.0554L52.4573 65.296C51.9839 65.6632 51.4638 65.9659 50.9107 66.196L46.6786 67.9567L44.3125 68.6979C42.107 69.3889 39.8219 69.7941 37.5132 69.9037L36.6822 69.9432M49.3161 76.7081L53.8087 73.4644C54.2084 73.1758 54.5754 72.8442 54.9031 72.4757L55.2849 72.0463M49.3161 76.7081L45.1084 78.3905C44.7072 78.5509 44.2915 78.6724 43.8672 78.7535L39.3974 79.6072L34.3957 79.9248L34.856 77.0739L35.4145 73.614C35.4904 73.1441 35.6157 72.6836 35.7883 72.24L36.6822 69.9432M49.3161 76.7081C49.1485 77.2811 48.8064 78.471 48.7781 78.6464C48.7576 78.7733 48.7013 79.6085 48.6547 80.3421C48.6229 80.8419 48.6487 81.3435 48.7293 81.8378L48.808 82.3202C48.9005 82.8871 49.0648 83.4399 49.2971 83.9652L51.0901 88.0203L51.8021 89.1853M67.8937 74.5318V74.5318C66.45 71.4651 65.4827 68.1961 65.0252 64.8376L64.9946 64.6131L64.2452 60.8919L63.609 57.864L63.2835 58.4865L62.4908 60.6087L61.5247 63.2936C61.3531 63.7705 61.1284 64.2267 60.8548 64.6534L58.5454 68.2548C58.3549 68.5519 58.1414 68.8337 57.9069 69.0974L55.2849 72.0463M67.8937 74.5318L69.8178 77.6419C70.0808 78.067 70.3902 78.4617 70.7402 78.8185L72.3113 80.4203M67.8937 74.5318L64.7527 74.4748L62.6727 74.3145C62.2821 74.2844 61.8948 74.2204 61.5153 74.1232L59.7087 73.6605L56.9286 72.7617L55.2849 72.0463M85.2869 78.2985L85.317 78.3147C85.9821 78.6736 86.7028 78.9184 87.449 79.0388L90.4885 79.5295L90.4964 73.9054L90.4022 72.9186C90.1318 70.0847 89.4881 67.2989 88.4876 64.6337V64.6337C87.3994 61.7345 85.9294 58.9933 84.1167 56.4826L83.4117 55.5062C83.2508 55.2833 83.0734 55.0729 82.8809 54.8767L81.9224 53.8995C80.311 52.2565 78.5351 50.7835 76.6226 49.5035L75.9305 49.0403C75.0648 48.4608 74.12 48.0093 73.1254 47.6995V47.6995M85.2869 78.2985L85.4938 81.1984L85.2951 85.2166L84.8349 88.0675L82.095 87.1083C79.961 86.3612 77.967 85.2624 76.1956 83.8574L73.8846 82.0244L72.3113 80.4203M72.3113 80.4203L71.6167 82.3334M48.9974 78.6818L50.9643 80.0058C51.4105 80.3061 51.8908 80.5521 52.3953 80.7385L53.798 81.2569L57.4154 82.2909L60.4856 82.7866L64.0298 83.1337L67.4256 83.0069L71.6167 82.3334M71.6167 82.3334L71.3508 83.0657C71.2196 83.427 71.0578 83.7765 70.8672 84.1104L69.2714 86.9051L67.0616 89.8305C66.8183 90.1526 66.5466 90.4522 66.2498 90.7258L65.2419 91.655M51.8021 89.1853L53.2261 91.5153L54.9386 93.8871C55.1452 94.1733 55.3739 94.4428 55.6226 94.6933L57.378 96.4609L57.8588 96.3103C60.0427 95.6261 62.0614 94.4975 63.7879 92.9954V92.9954L65.2419 91.655M51.8021 89.1853L53.9479 89.8317L56.5441 90.4758L59.395 90.9361L60.9301 91.1839L62.4652 91.4317L65.2419 91.655M71.2304 41.3181L71.1583 41.2662C70.7745 40.9901 68.4228 39.454 68.0039 39.2346V39.2346C67.9832 39.2238 67.9583 39.2128 67.9361 39.2053L67.5214 39.0655C66.9694 38.8794 66.3933 38.7743 65.8112 38.7535L65.5216 38.7431C65.1077 38.7284 64.6933 38.7545 64.2846 38.8212L63.4394 38.959C63.0316 39.0256 62.6449 39.1861 62.3099 39.428V39.428M71.2304 41.3181L71.966 42.3369L72.0631 42.4714C72.6039 43.2205 72.9629 44.0852 73.1117 44.997V44.997V44.997C73.2845 45.7682 73.3086 46.5652 73.1826 47.3453L73.1254 47.6995M71.2304 41.3181L71.4652 40.515C71.6428 39.9074 71.9049 39.3278 72.2438 38.7932L72.36 38.6098C72.5455 38.3172 72.7532 38.0393 72.9813 37.7785L73.1351 37.6026C73.7183 36.9359 74.4268 36.3904 75.2204 35.997L75.7305 35.7441L76.1714 35.4948C76.6967 35.1977 77.2799 35.0174 77.8812 34.9663V34.9663M77.8812 34.9663L78.1127 35.5453C78.2777 35.9578 78.5148 36.3376 78.813 36.6668L78.8688 36.7284C79.1647 37.055 79.5225 37.3195 79.9215 37.5065L80.0896 37.5853C80.5417 37.7973 81.0441 37.8784 81.5399 37.8195V37.8195C82.0911 37.754 82.6082 37.5186 83.0196 37.146L83.0904 37.0819C83.3229 36.8713 83.5207 36.6251 83.6763 36.3526L83.9613 35.8535C84.2362 35.3721 84.3653 34.8211 84.3328 34.2676V34.2676C84.2879 33.5023 83.9376 32.787 83.3605 32.2822L83.1937 32.1363C82.858 31.8426 82.4677 31.6182 82.0451 31.4757L81.9879 31.4564C81.6018 31.3262 81.1969 31.2608 80.7894 31.2629L80.3624 31.2651C80.1577 31.2661 79.9543 31.2978 79.7589 31.359V31.359C79.3348 31.4918 78.9653 31.7587 78.7057 32.1194L78.6273 32.2283C78.5594 32.3227 78.4983 32.4218 78.4445 32.5248L78.4262 32.5596C78.2763 32.8464 78.1736 33.1554 78.122 33.4748L77.8812 34.9663ZM62.3099 39.428L62.3011 39.1938C62.2789 38.598 62.1773 38.0078 61.9991 37.4388V37.4388C61.7835 36.7508 61.4585 36.102 61.0364 35.5175L60.7541 35.1265L59.6154 33.8176L58.2927 32.254M58.2927 32.254L58.1019 30.6481V30.6481C57.9799 29.6212 57.4949 28.656 56.7369 27.9526V27.9526L56.2338 27.5905C55.7731 27.2591 55.2247 27.0714 54.6575 27.0512V27.0512C54.0592 27.0298 53.4673 27.1934 52.9743 27.5332C52.5409 27.8318 52.1535 28.1127 52.2093 28.1217C52.2514 28.1285 52.1416 28.2736 51.9803 28.4595C51.6005 28.8972 51.3248 29.419 51.2325 29.9911V29.9911C51.1628 30.4225 51.1946 30.8642 51.3252 31.2812L51.3483 31.3548C51.4949 31.8229 51.7612 32.2446 52.1207 32.5782V32.5782C52.5286 32.9567 53.0394 33.206 53.5887 33.2947L53.9458 33.3524C54.3139 33.4118 54.6885 33.4196 55.0588 33.3756L56.1065 33.2512L57.0471 33.0404C57.1976 33.0067 57.343 32.9533 57.4796 32.8816L58.0606 32.5766C58.1844 32.5116 58.2704 32.392 58.2927 32.254V32.254Z" stroke="#FFF500" stroke-width="3.7545"/>
</g>
</g>
<defs>
<filter id="filter0_f_225_173" x="24.1309" y="21.1719" width="72.2422" height="81.4214" filterUnits="userSpaceOnUse" color-interpolation-filters="sRGB">
<feFlood flood-opacity="0" result="BackgroundImageFix"/>
<feBlend mode="normal" in="SourceGraphic" in2="BackgroundImageFix" result="shape"/>
<feGaussianBlur stdDeviation="2" result="effect1_foregroundBlur_225_173"/>
</filter>
<filter id="filter1_f_225_173" x="22.1237" y="19.1647" width="76.2566" height="85.4358" filterUnits="userSpaceOnUse" color-interpolation-filters="sRGB">
<feFlood flood-opacity="0" result="BackgroundImageFix"/>
<feBlend mode="normal" in="SourceGraphic" in2="BackgroundImageFix" result="shape"/>
<feGaussianBlur stdDeviation="3.0036" result="effect1_foregroundBlur_225_173"/>
</filter>
<filter id="filter2_f_225_173" x="26.6291" y="23.6701" width="67.2458" height="76.425" filterUnits="userSpaceOnUse" color-interpolation-filters="sRGB">
<feFlood flood-opacity="0" result="BackgroundImageFix"/>
<feBlend mode="normal" in="SourceGraphic" in2="BackgroundImageFix" result="shape"/>
<feGaussianBlur stdDeviation="0.750899" result="effect1_foregroundBlur_225_173"/>
</filter>
</defs>
</svg>
