<svg width="1280" height="441" viewBox="0 0 1280 441" fill="none" xmlns="http://www.w3.org/2000/svg">
<path d="M620.337 242.033L757.809 234.436L778.634 421.54L638.565 434.605L620.337 242.033Z" fill="#DD00FF"/>
<path d="M751.327 404.406L731.435 406.431L674.961 313.225L685.263 411.131L664.646 413.229L648.85 263.108L670.048 260.95L724.836 350.688L714.913 256.383L735.53 254.285L751.327 404.406Z" fill="black"/>
<path d="M0.00181131 0.692664L7.59504 7.06743C131.891 111.418 279.903 183.654 438.624 217.426L445.701 218.932C571.608 245.722 701.621 246.795 827.934 222.086V222.086C992.625 189.87 1145.91 114.834 1272.35 4.53282L1280.99 -3.0001" stroke="#AD8AFF" stroke-width="5"/>
<path d="M961.889 188.839L1045.13 154.606L1123.29 302.697L1049.45 340.926L961.889 188.839Z" fill="url(#paint0_linear_235_546)"/>
<path d="M1091.68 301.858L1070.85 313.867L1005.61 204.455L1026.44 192.446L1091.68 301.858Z" fill="black"/>
<path d="M1083 136.472L1179.33 78.1228L1274.62 209.503L1188.84 280.384L1083 136.472Z" fill="url(#paint1_linear_235_546)"/>
<path d="M1255.1 203.558L1237.78 215.939L1220.18 201.19L1189.6 223.049L1198.33 244.142L1181.01 256.524L1130.58 131.247L1149.62 117.643L1255.1 203.558ZM1201.39 184.389L1156.71 146.918L1179.15 200.286L1201.39 184.389Z" fill="black"/>
<path d="M309.474 181.785L429.472 218.332L402.577 398.126L280.276 377.096L309.474 181.785Z" fill="#DD00FF"/>
<path d="M347.715 365.183C325.651 363.072 310.683 352.551 301.3 338.337L316.81 316.993C323.897 328.028 335.631 337.817 351.49 339.334C364.935 340.62 372.231 333.709 373.017 325.752C375.461 301.044 307.591 311.672 312.789 259.116C315.088 235.874 333.541 218.193 360.604 220.782C378.876 222.53 393.382 230.682 403.496 244.543L387.724 265.017C379.452 253.657 367.517 247.653 355.795 246.532C345.28 245.526 338.86 250.619 338.032 258.994C335.837 281.19 403.327 272.639 398.171 324.777C395.645 350.322 378.743 368.151 347.715 365.183Z" fill="black"/>
<path d="M460.508 224.012L580.867 239.054L574.129 440.599L454.449 435.962L460.508 224.012Z" fill="#DD00FF"/>
<path d="M558.524 405.776L468.407 403.628L471.889 262.375L562.006 264.524L561.353 290.995L498.348 289.493L497.612 319.353L559.281 320.824L558.628 347.295L496.959 345.825L496.171 377.802L559.176 379.305L558.524 405.776Z" fill="black"/>
<path d="M809.775 227.994L927.736 197.9L975.986 382.946L851.962 409.487L809.775 227.994Z" fill="#DD00FF"/>
<path d="M899.384 373.156L853.208 384.35L823.922 267.48L870.098 256.287C906.793 247.392 938.091 264.525 946.916 299.743C955.741 334.962 936.079 364.262 899.384 373.156ZM893.895 351.254C917.071 345.637 926.419 325.714 921.458 305.914C916.277 285.239 899.64 272.358 875.586 278.189L854.342 283.339L872.651 356.404L893.895 351.254Z" fill="black"/>
<path d="M168.914 118.246L272.921 168.455L209.731 343.637L95.2864 297.496L168.914 118.246Z" fill="#DD00FF"/>
<path d="M198.408 319.499L179.742 312.439L172.336 204.183L136.417 296.053L117.071 288.736L172.146 147.869L192.038 155.392L199.539 259.805L234.137 171.314L253.484 178.632L198.408 319.499Z" fill="black"/>
<path d="M77.9287 61.3541L135.512 100.85L63.8327 252.074L10.5102 211.282L77.9287 61.3541Z" fill="#DD00FF"/>
<path d="M51.5429 216.087L32.2352 206.974L85.8105 97.1631L105.118 106.276L51.5429 216.087Z" fill="black"/>
<defs>
<linearGradient id="paint0_linear_235_546" x1="1081.44" y1="224.576" x2="1009.63" y2="236.272" gradientUnits="userSpaceOnUse">
<stop stop-color="#DD00FF"/>
</linearGradient>
<linearGradient id="paint1_linear_235_546" x1="1137.8" y1="115.78" x2="1232.01" y2="250.107" gradientUnits="userSpaceOnUse">
<stop stop-color="#DD00FF"/>
</linearGradient>
</defs>
</svg>
