<svg width="401" height="382" viewBox="0 0 401 382" fill="none" xmlns="http://www.w3.org/2000/svg">
<g filter="url(#filter0_f_195_873)">
<ellipse cx="200.539" cy="191.394" rx="96.5394" ry="87.3935" fill="#DBBA03"/>
</g>
<mask id="path-2-outside-1_195_873" maskUnits="userSpaceOnUse" x="141.467" y="181.595" width="119" height="21" fill="black">
<rect fill="white" x="141.467" y="181.595" width="119" height="21"/>
<path d="M151.5 200.901C150.278 200.901 149.132 200.689 148.062 200.264C147.01 199.84 146.084 199.246 145.287 198.482C144.506 197.701 143.886 196.775 143.428 195.706C142.986 194.619 142.766 193.423 142.766 192.115C142.766 190.808 142.986 189.62 143.428 188.55C143.886 187.464 144.506 186.538 145.287 185.774C146.084 184.994 147.01 184.391 148.062 183.966C149.132 183.542 150.278 183.33 151.5 183.33C152.247 183.33 152.935 183.415 153.563 183.584C154.208 183.754 154.794 183.992 155.32 184.297C155.863 184.603 156.347 184.96 156.771 185.367C157.213 185.774 157.603 186.216 157.943 186.691L156.16 187.684C155.668 186.971 155.006 186.386 154.174 185.927C153.359 185.452 152.468 185.214 151.5 185.214C150.566 185.214 149.701 185.384 148.903 185.724C148.105 186.063 147.409 186.538 146.815 187.15C146.237 187.761 145.779 188.491 145.439 189.34C145.117 190.171 144.956 191.097 144.956 192.115C144.956 193.117 145.117 194.042 145.439 194.891C145.779 195.74 146.237 196.47 146.815 197.081C147.409 197.692 148.105 198.168 148.903 198.507C149.701 198.847 150.566 199.016 151.5 199.016C152.468 199.016 153.359 198.787 154.174 198.329C155.006 197.87 155.668 197.276 156.16 196.546L157.968 197.539C157.255 198.507 156.372 199.313 155.32 199.959C154.284 200.587 153.011 200.901 151.5 200.901ZM163.794 188.041C163.794 189.348 164.125 190.333 164.787 190.995C165.466 191.64 166.451 191.962 167.741 191.962C168.454 191.962 169.15 191.912 169.83 191.81C170.509 191.708 171.12 191.564 171.663 191.377V183.61H173.777V200.595H171.663V193.261C171.103 193.414 170.483 193.55 169.804 193.669C169.125 193.788 168.378 193.847 167.563 193.847C166.561 193.847 165.687 193.711 164.94 193.439C164.21 193.151 163.599 192.752 163.107 192.243C162.631 191.733 162.275 191.122 162.037 190.409C161.799 189.679 161.681 188.881 161.681 188.015V183.61H163.794V188.041ZM191.407 200.595L189.904 196.826H181.45L179.948 200.595H177.528L184.353 183.61H186.976L193.826 200.595H191.407ZM185.677 185.8L182.061 194.942H189.268L185.677 185.8ZM204.677 200.901C203.454 200.901 202.308 200.689 201.239 200.264C200.186 199.84 199.261 199.246 198.463 198.482C197.682 197.701 197.063 196.775 196.604 195.706C196.163 194.619 195.942 193.423 195.942 192.115C195.942 190.808 196.163 189.62 196.604 188.55C197.063 187.464 197.682 186.538 198.463 185.774C199.261 184.994 200.186 184.391 201.239 183.966C202.308 183.542 203.454 183.33 204.677 183.33C205.424 183.33 206.111 183.415 206.739 183.584C207.385 183.754 207.97 183.992 208.497 184.297C209.04 184.603 209.524 184.96 209.948 185.367C210.389 185.774 210.78 186.216 211.119 186.691L209.337 187.684C208.845 186.971 208.182 186.386 207.351 185.927C206.536 185.452 205.644 185.214 204.677 185.214C203.743 185.214 202.877 185.384 202.079 185.724C201.281 186.063 200.585 186.538 199.991 187.15C199.414 187.761 198.956 188.491 198.616 189.34C198.293 190.171 198.132 191.097 198.132 192.115C198.132 193.117 198.293 194.042 198.616 194.891C198.956 195.74 199.414 196.47 199.991 197.081C200.585 197.692 201.281 198.168 202.079 198.507C202.877 198.847 203.743 199.016 204.677 199.016C205.644 199.016 206.536 198.787 207.351 198.329C208.182 197.87 208.845 197.276 209.337 196.546L211.145 197.539C210.432 198.507 209.549 199.313 208.497 199.959C207.461 200.587 206.188 200.901 204.677 200.901ZM219.568 200.595V185.494H214.195V183.61H227.081V185.494H221.682V200.595H219.568ZM233.531 183.61V190.358H238.242C239.074 190.358 239.821 190.494 240.483 190.766C241.145 191.037 241.706 191.411 242.164 191.886C242.622 192.344 242.97 192.888 243.208 193.516C243.446 194.127 243.565 194.781 243.565 195.477C243.565 196.173 243.446 196.835 243.208 197.463C242.97 198.074 242.622 198.617 242.164 199.093C241.723 199.551 241.171 199.916 240.509 200.188C239.847 200.459 239.091 200.595 238.242 200.595H231.418V183.61H233.531ZM233.531 192.243V198.711H237.988C239.006 198.711 239.821 198.414 240.432 197.82C241.06 197.225 241.375 196.444 241.375 195.477C241.375 194.509 241.06 193.728 240.432 193.134C239.821 192.54 239.006 192.243 237.988 192.243H233.531ZM247.891 200.595V183.61H259.02V185.494H250.005V190.969H258.842V192.854H250.005V198.711H259.02V200.595H247.891Z"/>
</mask>
<path d="M151.5 200.901C150.278 200.901 149.132 200.689 148.062 200.264C147.01 199.84 146.084 199.246 145.287 198.482C144.506 197.701 143.886 196.775 143.428 195.706C142.986 194.619 142.766 193.423 142.766 192.115C142.766 190.808 142.986 189.62 143.428 188.55C143.886 187.464 144.506 186.538 145.287 185.774C146.084 184.994 147.01 184.391 148.062 183.966C149.132 183.542 150.278 183.33 151.5 183.33C152.247 183.33 152.935 183.415 153.563 183.584C154.208 183.754 154.794 183.992 155.32 184.297C155.863 184.603 156.347 184.96 156.771 185.367C157.213 185.774 157.603 186.216 157.943 186.691L156.16 187.684C155.668 186.971 155.006 186.386 154.174 185.927C153.359 185.452 152.468 185.214 151.5 185.214C150.566 185.214 149.701 185.384 148.903 185.724C148.105 186.063 147.409 186.538 146.815 187.15C146.237 187.761 145.779 188.491 145.439 189.34C145.117 190.171 144.956 191.097 144.956 192.115C144.956 193.117 145.117 194.042 145.439 194.891C145.779 195.74 146.237 196.47 146.815 197.081C147.409 197.692 148.105 198.168 148.903 198.507C149.701 198.847 150.566 199.016 151.5 199.016C152.468 199.016 153.359 198.787 154.174 198.329C155.006 197.87 155.668 197.276 156.16 196.546L157.968 197.539C157.255 198.507 156.372 199.313 155.32 199.959C154.284 200.587 153.011 200.901 151.5 200.901ZM163.794 188.041C163.794 189.348 164.125 190.333 164.787 190.995C165.466 191.64 166.451 191.962 167.741 191.962C168.454 191.962 169.15 191.912 169.83 191.81C170.509 191.708 171.12 191.564 171.663 191.377V183.61H173.777V200.595H171.663V193.261C171.103 193.414 170.483 193.55 169.804 193.669C169.125 193.788 168.378 193.847 167.563 193.847C166.561 193.847 165.687 193.711 164.94 193.439C164.21 193.151 163.599 192.752 163.107 192.243C162.631 191.733 162.275 191.122 162.037 190.409C161.799 189.679 161.681 188.881 161.681 188.015V183.61H163.794V188.041ZM191.407 200.595L189.904 196.826H181.45L179.948 200.595H177.528L184.353 183.61H186.976L193.826 200.595H191.407ZM185.677 185.8L182.061 194.942H189.268L185.677 185.8ZM204.677 200.901C203.454 200.901 202.308 200.689 201.239 200.264C200.186 199.84 199.261 199.246 198.463 198.482C197.682 197.701 197.063 196.775 196.604 195.706C196.163 194.619 195.942 193.423 195.942 192.115C195.942 190.808 196.163 189.62 196.604 188.55C197.063 187.464 197.682 186.538 198.463 185.774C199.261 184.994 200.186 184.391 201.239 183.966C202.308 183.542 203.454 183.33 204.677 183.33C205.424 183.33 206.111 183.415 206.739 183.584C207.385 183.754 207.97 183.992 208.497 184.297C209.04 184.603 209.524 184.96 209.948 185.367C210.389 185.774 210.78 186.216 211.119 186.691L209.337 187.684C208.845 186.971 208.182 186.386 207.351 185.927C206.536 185.452 205.644 185.214 204.677 185.214C203.743 185.214 202.877 185.384 202.079 185.724C201.281 186.063 200.585 186.538 199.991 187.15C199.414 187.761 198.956 188.491 198.616 189.34C198.293 190.171 198.132 191.097 198.132 192.115C198.132 193.117 198.293 194.042 198.616 194.891C198.956 195.74 199.414 196.47 199.991 197.081C200.585 197.692 201.281 198.168 202.079 198.507C202.877 198.847 203.743 199.016 204.677 199.016C205.644 199.016 206.536 198.787 207.351 198.329C208.182 197.87 208.845 197.276 209.337 196.546L211.145 197.539C210.432 198.507 209.549 199.313 208.497 199.959C207.461 200.587 206.188 200.901 204.677 200.901ZM219.568 200.595V185.494H214.195V183.61H227.081V185.494H221.682V200.595H219.568ZM233.531 183.61V190.358H238.242C239.074 190.358 239.821 190.494 240.483 190.766C241.145 191.037 241.706 191.411 242.164 191.886C242.622 192.344 242.97 192.888 243.208 193.516C243.446 194.127 243.565 194.781 243.565 195.477C243.565 196.173 243.446 196.835 243.208 197.463C242.97 198.074 242.622 198.617 242.164 199.093C241.723 199.551 241.171 199.916 240.509 200.188C239.847 200.459 239.091 200.595 238.242 200.595H231.418V183.61H233.531ZM233.531 192.243V198.711H237.988C239.006 198.711 239.821 198.414 240.432 197.82C241.06 197.225 241.375 196.444 241.375 195.477C241.375 194.509 241.06 193.728 240.432 193.134C239.821 192.54 239.006 192.243 237.988 192.243H233.531ZM247.891 200.595V183.61H259.02V185.494H250.005V190.969H258.842V192.854H250.005V198.711H259.02V200.595H247.891Z" fill="black"/>
<path d="M148.062 200.264L147.751 201.035L147.756 201.037L148.062 200.264ZM145.287 198.482L144.699 199.069L144.705 199.076L144.712 199.082L145.287 198.482ZM143.428 195.706L142.658 196.019L142.661 196.026L142.664 196.033L143.428 195.706ZM143.428 188.55L142.662 188.227L142.659 188.233L143.428 188.55ZM145.287 185.774L145.868 186.369L145.868 186.368L145.287 185.774ZM148.062 183.966L147.756 183.194L147.751 183.196L148.062 183.966ZM153.563 183.584L153.346 184.387L153.351 184.388L153.563 183.584ZM155.32 184.297L154.903 185.016L154.912 185.022L155.32 184.297ZM156.771 185.367L156.196 185.967L156.202 185.972L156.208 185.978L156.771 185.367ZM157.943 186.691L158.347 187.417L159.16 186.965L158.619 186.208L157.943 186.691ZM156.16 187.684L155.476 188.157L155.905 188.778L156.565 188.41L156.16 187.684ZM154.174 185.927L153.755 186.645L153.764 186.65L153.773 186.655L154.174 185.927ZM148.903 185.724L148.577 184.959L148.577 184.959L148.903 185.724ZM146.815 187.15L146.219 186.57L146.21 186.579L146.815 187.15ZM145.439 189.34L144.668 189.031L144.664 189.039L145.439 189.34ZM145.439 194.891L144.662 195.186L144.665 195.193L144.668 195.2L145.439 194.891ZM146.815 197.081L146.21 197.652L146.219 197.66L146.815 197.081ZM148.903 198.507L149.228 197.742L148.903 198.507ZM154.174 198.329L153.773 197.601L153.766 197.604L154.174 198.329ZM156.16 196.546L156.56 195.818L155.895 195.452L155.471 196.082L156.16 196.546ZM157.968 197.539L158.637 198.032L159.201 197.268L158.368 196.811L157.968 197.539ZM155.32 199.959L155.751 200.669L155.754 200.667L155.32 199.959ZM151.5 200.07C150.376 200.07 149.335 199.875 148.369 199.492L147.756 201.037C148.929 201.502 150.179 201.732 151.5 201.732V200.07ZM148.373 199.493C147.416 199.107 146.581 198.57 145.861 197.881L144.712 199.082C145.588 199.921 146.604 200.572 147.751 201.035L148.373 199.493ZM145.874 197.894C145.172 197.192 144.611 196.356 144.192 195.378L142.664 196.033C143.161 197.195 143.839 198.21 144.699 199.069L145.874 197.894ZM144.198 195.393C143.801 194.417 143.597 193.328 143.597 192.115H141.934C141.934 193.517 142.171 194.822 142.658 196.019L144.198 195.393ZM143.597 192.115C143.597 190.903 143.801 189.824 144.196 188.867L142.659 188.233C142.171 189.415 141.934 190.713 141.934 192.115H143.597ZM144.193 188.873C144.612 187.88 145.172 187.049 145.868 186.369L144.705 185.18C143.839 186.027 143.16 187.047 142.662 188.227L144.193 188.873ZM145.868 186.368C146.587 185.665 147.42 185.122 148.373 184.737L147.751 183.196C146.6 183.66 145.582 184.322 144.705 185.18L145.868 186.368ZM148.369 184.739C149.335 184.356 150.376 184.161 151.5 184.161V182.499C150.179 182.499 148.929 182.728 147.756 183.194L148.369 184.739ZM151.5 184.161C152.184 184.161 152.798 184.239 153.346 184.387L153.78 182.782C153.071 182.591 152.31 182.499 151.5 182.499V184.161ZM153.351 184.388C153.931 184.541 154.447 184.751 154.903 185.016L155.737 183.579C155.141 183.232 154.485 182.968 153.774 182.781L153.351 184.388ZM154.912 185.022C155.398 185.295 155.825 185.61 156.196 185.967L157.347 184.767C156.869 184.309 156.328 183.911 155.727 183.573L154.912 185.022ZM156.208 185.978C156.608 186.348 156.961 186.747 157.266 187.174L158.619 186.208C158.246 185.685 157.817 185.201 157.335 184.756L156.208 185.978ZM157.538 185.965L155.756 186.958L156.565 188.41L158.347 187.417L157.538 185.965ZM156.844 187.212C156.272 186.383 155.509 185.714 154.575 185.199L153.773 186.655C154.503 187.057 155.064 187.559 155.476 188.157L156.844 187.212ZM154.593 185.209C153.647 184.658 152.611 184.383 151.5 184.383V186.045C152.325 186.045 153.071 186.246 153.755 186.645L154.593 185.209ZM151.5 184.383C150.463 184.383 149.486 184.572 148.577 184.959L149.228 186.488C149.915 186.196 150.67 186.045 151.5 186.045V184.383ZM148.577 184.959C147.68 185.341 146.891 185.878 146.219 186.57L147.41 187.729C147.926 187.198 148.53 186.785 149.228 186.488L148.577 184.959ZM146.21 186.579C145.555 187.272 145.043 188.093 144.668 189.031L146.211 189.648C146.515 188.888 146.919 188.249 147.419 187.72L146.21 186.579ZM144.664 189.039C144.3 189.979 144.124 191.008 144.124 192.115H145.787C145.787 191.185 145.934 190.364 146.214 189.64L144.664 189.039ZM144.124 192.115C144.124 193.207 144.301 194.234 144.662 195.186L146.216 194.596C145.933 193.85 145.787 193.026 145.787 192.115H144.124ZM144.668 195.2C145.043 196.137 145.555 196.958 146.21 197.652L147.419 196.51C146.919 195.982 146.515 195.343 146.211 194.582L144.668 195.2ZM146.219 197.66C146.891 198.352 147.68 198.89 148.577 199.272L149.228 197.742C148.53 197.445 147.926 197.032 147.41 196.502L146.219 197.66ZM148.577 199.272C149.486 199.658 150.463 199.848 151.5 199.848V198.185C150.67 198.185 149.915 198.035 149.228 197.742L148.577 199.272ZM151.5 199.848C152.605 199.848 153.638 199.584 154.581 199.053L153.766 197.604C153.08 197.99 152.33 198.185 151.5 198.185V199.848ZM154.575 199.057C155.513 198.54 156.278 197.859 156.849 197.011L155.471 196.082C155.058 196.694 154.498 197.201 153.773 197.601L154.575 199.057ZM155.76 197.275L157.568 198.268L158.368 196.811L156.56 195.818L155.76 197.275ZM157.299 197.046C156.651 197.925 155.849 198.659 154.886 199.25L155.754 200.667C156.896 199.968 157.859 199.089 158.637 198.032L157.299 197.046ZM154.889 199.248C154.012 199.78 152.896 200.07 151.5 200.07V201.732C153.126 201.732 154.557 201.394 155.751 200.669L154.889 199.248ZM164.787 190.995L164.2 191.583L164.207 191.59L164.215 191.597L164.787 190.995ZM169.83 191.81L169.706 190.988L169.83 191.81ZM171.663 191.377L171.933 192.163L172.494 191.97V191.377H171.663ZM171.663 183.61V182.779H170.832V183.61H171.663ZM173.777 183.61H174.608V182.779H173.777V183.61ZM173.777 200.595V201.426H174.608V200.595H173.777ZM171.663 200.595H170.832V201.426H171.663V200.595ZM171.663 193.261H172.494V192.173L171.444 192.459L171.663 193.261ZM169.804 193.669L169.661 192.85L169.804 193.669ZM164.94 193.439L164.635 194.212L164.645 194.217L164.656 194.221L164.94 193.439ZM163.107 192.243L162.499 192.81L162.504 192.815L162.509 192.82L163.107 192.243ZM162.037 190.409L161.247 190.666L161.249 190.672L162.037 190.409ZM161.681 183.61V182.779H160.849V183.61H161.681ZM163.794 183.61H164.625V182.779H163.794V183.61ZM162.963 188.041C162.963 189.48 163.329 190.711 164.2 191.583L165.375 190.407C164.922 189.954 164.625 189.216 164.625 188.041H162.963ZM164.215 191.597C165.099 192.437 166.32 192.794 167.741 192.794V191.131C166.583 191.131 165.834 190.843 165.36 190.392L164.215 191.597ZM167.741 192.794C168.494 192.794 169.231 192.74 169.953 192.632L169.706 190.988C169.069 191.083 168.415 191.131 167.741 191.131V192.794ZM169.953 192.632C170.673 192.524 171.334 192.369 171.933 192.163L171.393 190.591C170.906 190.758 170.345 190.892 169.706 190.988L169.953 192.632ZM172.494 191.377V183.61H170.832V191.377H172.494ZM171.663 184.441H173.777V182.779H171.663V184.441ZM172.945 183.61V200.595H174.608V183.61H172.945ZM173.777 199.764H171.663V201.426H173.777V199.764ZM172.494 200.595V193.261H170.832V200.595H172.494ZM171.444 192.459C170.913 192.604 170.319 192.735 169.661 192.85L169.947 194.487C170.647 194.365 171.293 194.224 171.882 194.063L171.444 192.459ZM169.661 192.85C169.037 192.959 168.338 193.016 167.563 193.016V194.678C168.418 194.678 169.213 194.616 169.947 194.487L169.661 192.85ZM167.563 193.016C166.634 193.016 165.86 192.89 165.224 192.658L164.656 194.221C165.514 194.533 166.489 194.678 167.563 194.678V193.016ZM165.246 192.667C164.614 192.417 164.106 192.08 163.704 191.665L162.509 192.82C163.092 193.424 163.806 193.885 164.635 194.212L165.246 192.667ZM163.714 191.675C163.327 191.26 163.029 190.755 162.826 190.146L161.249 190.672C161.521 191.489 161.936 192.206 162.499 192.81L163.714 191.675ZM162.827 190.152C162.62 189.515 162.512 188.805 162.512 188.015H160.849C160.849 188.958 160.979 189.843 161.247 190.666L162.827 190.152ZM162.512 188.015V183.61H160.849V188.015H162.512ZM161.681 184.441H163.794V182.779H161.681V184.441ZM162.963 183.61V188.041H164.625V183.61H162.963ZM191.407 200.595L190.635 200.903L190.844 201.426H191.407V200.595ZM189.904 196.826L190.677 196.519L190.468 195.995H189.904V196.826ZM181.45 196.826V195.995H180.887L180.678 196.519L181.45 196.826ZM179.948 200.595V201.426H180.511L180.72 200.903L179.948 200.595ZM177.528 200.595L176.757 200.285L176.299 201.426H177.528V200.595ZM184.353 183.61V182.779H183.791L183.582 183.3L184.353 183.61ZM186.976 183.61L187.747 183.299L187.537 182.779H186.976V183.61ZM193.826 200.595V201.426H195.058L194.597 200.284L193.826 200.595ZM185.677 185.8L186.451 185.496L185.68 183.533L184.904 185.494L185.677 185.8ZM182.061 194.942L181.288 194.636L180.839 195.773H182.061V194.942ZM189.268 194.942V195.773H190.487L190.041 194.638L189.268 194.942ZM192.179 200.287L190.677 196.519L189.132 197.134L190.635 200.903L192.179 200.287ZM189.904 195.995H181.45V197.658H189.904V195.995ZM180.678 196.519L179.176 200.287L180.72 200.903L182.222 197.134L180.678 196.519ZM179.948 199.764H177.528V201.426H179.948V199.764ZM178.3 200.905L185.124 183.92L183.582 183.3L176.757 200.285L178.3 200.905ZM184.353 184.441H186.976V182.779H184.353V184.441ZM186.205 183.921L193.055 200.906L194.597 200.284L187.747 183.299L186.205 183.921ZM193.826 199.764H191.407V201.426H193.826V199.764ZM184.904 185.494L181.288 194.636L182.834 195.248L186.45 186.106L184.904 185.494ZM182.061 195.773H189.268V194.111H182.061V195.773ZM190.041 194.638L186.451 185.496L184.904 186.104L188.494 195.246L190.041 194.638ZM201.239 200.264L200.928 201.035L200.932 201.037L201.239 200.264ZM198.463 198.482L197.875 199.069L197.882 199.076L197.888 199.082L198.463 198.482ZM196.604 195.706L195.834 196.019L195.837 196.026L195.84 196.033L196.604 195.706ZM196.604 188.55L195.838 188.227L195.836 188.233L196.604 188.55ZM198.463 185.774L199.044 186.369L199.045 186.368L198.463 185.774ZM201.239 183.966L200.932 183.194L200.928 183.196L201.239 183.966ZM206.739 183.584L206.523 184.387L206.528 184.388L206.739 183.584ZM208.497 184.297L208.079 185.016L208.089 185.022L208.497 184.297ZM209.948 185.367L209.372 185.967L209.378 185.972L209.384 185.978L209.948 185.367ZM211.119 186.691L211.524 187.417L212.336 186.965L211.796 186.208L211.119 186.691ZM209.337 187.684L208.653 188.157L209.082 188.778L209.741 188.41L209.337 187.684ZM207.351 185.927L206.932 186.645L206.941 186.65L206.949 186.655L207.351 185.927ZM202.079 185.724L201.754 184.959V184.959L202.079 185.724ZM199.991 187.15L199.395 186.57L199.387 186.579L199.991 187.15ZM198.616 189.34L197.844 189.031L197.841 189.039L198.616 189.34ZM198.616 194.891L197.839 195.186L197.842 195.193L197.844 195.2L198.616 194.891ZM199.991 197.081L199.387 197.652L199.395 197.66L199.991 197.081ZM202.079 198.507L202.405 197.742L202.079 198.507ZM207.351 198.329L206.949 197.601L206.943 197.604L207.351 198.329ZM209.337 196.546L209.737 195.818L209.072 195.452L208.648 196.082L209.337 196.546ZM211.145 197.539L211.814 198.032L212.377 197.268L211.545 196.811L211.145 197.539ZM208.497 199.959L208.928 200.669L208.931 200.667L208.497 199.959ZM204.677 200.07C203.553 200.07 202.511 199.875 201.545 199.492L200.932 201.037C202.105 201.502 203.356 201.732 204.677 201.732V200.07ZM201.55 199.493C200.592 199.107 199.757 198.57 199.038 197.881L197.888 199.082C198.765 199.921 199.78 200.572 200.928 201.035L201.55 199.493ZM199.051 197.894C198.349 197.192 197.787 196.356 197.368 195.378L195.84 196.033C196.338 197.195 197.016 198.21 197.875 199.069L199.051 197.894ZM197.374 195.393C196.978 194.417 196.773 193.328 196.773 192.115H195.111C195.111 193.517 195.348 194.822 195.834 196.019L197.374 195.393ZM196.773 192.115C196.773 190.903 196.978 189.824 197.373 188.867L195.836 188.233C195.348 189.415 195.111 190.713 195.111 192.115H196.773ZM197.37 188.873C197.789 187.88 198.349 187.049 199.044 186.369L197.882 185.18C197.016 186.027 196.336 187.047 195.838 188.227L197.37 188.873ZM199.045 186.368C199.763 185.665 200.596 185.122 201.55 184.737L200.928 183.196C199.776 183.66 198.759 184.322 197.882 185.18L199.045 186.368ZM201.545 184.739C202.511 184.356 203.553 184.161 204.677 184.161V182.499C203.356 182.499 202.105 182.728 200.932 183.194L201.545 184.739ZM204.677 184.161C205.361 184.161 205.975 184.239 206.523 184.387L206.956 182.782C206.248 182.591 205.486 182.499 204.677 182.499V184.161ZM206.528 184.388C207.108 184.541 207.623 184.751 208.079 185.016L208.914 183.579C208.317 183.232 207.661 182.968 206.951 182.781L206.528 184.388ZM208.089 185.022C208.575 185.295 209.001 185.61 209.372 185.967L210.524 184.767C210.046 184.309 209.505 183.911 208.904 183.573L208.089 185.022ZM209.384 185.978C209.785 186.348 210.138 186.747 210.443 187.174L211.796 186.208C211.422 185.685 210.994 185.201 210.512 184.756L209.384 185.978ZM210.715 185.965L208.932 186.958L209.741 188.41L211.524 187.417L210.715 185.965ZM210.021 187.212C209.448 186.383 208.685 185.714 207.752 185.199L206.949 186.655C207.68 187.057 208.241 187.559 208.653 188.157L210.021 187.212ZM207.769 185.209C206.824 184.658 205.788 184.383 204.677 184.383V186.045C205.501 186.045 206.247 186.246 206.932 186.645L207.769 185.209ZM204.677 184.383C203.64 184.383 202.662 184.572 201.754 184.959L202.405 186.488C203.092 186.196 203.846 186.045 204.677 186.045V184.383ZM201.754 184.959C200.856 185.341 200.068 185.878 199.395 186.57L200.587 187.729C201.103 187.198 201.707 186.785 202.405 186.488L201.754 184.959ZM199.387 186.579C198.732 187.272 198.219 188.093 197.844 189.031L199.388 189.648C199.692 188.888 200.096 188.249 200.595 187.72L199.387 186.579ZM197.841 189.039C197.476 189.979 197.301 191.008 197.301 192.115H198.963C198.963 191.185 199.11 190.364 199.391 189.64L197.841 189.039ZM197.301 192.115C197.301 193.207 197.477 194.234 197.839 195.186L199.393 194.596C199.11 193.85 198.963 193.026 198.963 192.115H197.301ZM197.844 195.2C198.219 196.137 198.732 196.958 199.387 197.652L200.595 196.51C200.096 195.982 199.692 195.343 199.388 194.582L197.844 195.2ZM199.395 197.66C200.068 198.352 200.856 198.89 201.754 199.272L202.405 197.742C201.707 197.445 201.103 197.032 200.587 196.502L199.395 197.66ZM201.754 199.272C202.662 199.658 203.64 199.848 204.677 199.848V198.185C203.846 198.185 203.092 198.035 202.405 197.742L201.754 199.272ZM204.677 199.848C205.782 199.848 206.814 199.584 207.758 199.053L206.943 197.604C206.257 197.99 205.507 198.185 204.677 198.185V199.848ZM207.752 199.057C208.69 198.54 209.454 197.859 210.026 197.011L208.648 196.082C208.235 196.694 207.675 197.201 206.949 197.601L207.752 199.057ZM208.937 197.275L210.745 198.268L211.545 196.811L209.737 195.818L208.937 197.275ZM210.476 197.046C209.828 197.925 209.026 198.659 208.062 199.25L208.931 200.667C210.072 199.968 211.036 199.089 211.814 198.032L210.476 197.046ZM208.065 199.248C207.188 199.78 206.073 200.07 204.677 200.07V201.732C206.302 201.732 207.733 201.394 208.928 200.669L208.065 199.248ZM219.568 200.595H218.737V201.426H219.568V200.595ZM219.568 185.494H220.399V184.663H219.568V185.494ZM214.195 185.494H213.364V186.325H214.195V185.494ZM214.195 183.61V182.779H213.364V183.61H214.195ZM227.081 183.61H227.912V182.779H227.081V183.61ZM227.081 185.494V186.325H227.912V185.494H227.081ZM221.682 185.494V184.663H220.851V185.494H221.682ZM221.682 200.595V201.426H222.513V200.595H221.682ZM220.399 200.595V185.494H218.737V200.595H220.399ZM219.568 184.663H214.195V186.325H219.568V184.663ZM215.026 185.494V183.61H213.364V185.494H215.026ZM214.195 184.441H227.081V182.779H214.195V184.441ZM226.249 183.61V185.494H227.912V183.61H226.249ZM227.081 184.663H221.682V186.325H227.081V184.663ZM220.851 185.494V200.595H222.513V185.494H220.851ZM221.682 199.764H219.568V201.426H221.682V199.764ZM233.531 183.61H234.362V182.779H233.531V183.61ZM233.531 190.358H232.7V191.189H233.531V190.358ZM242.164 191.886L241.566 192.463L241.571 192.468L241.576 192.474L242.164 191.886ZM243.208 193.516L242.431 193.81L242.433 193.817L243.208 193.516ZM243.208 197.463L243.983 197.764L243.985 197.757L243.208 197.463ZM242.164 199.093L241.566 198.516L241.565 198.516L242.164 199.093ZM231.418 200.595H230.586V201.426H231.418V200.595ZM231.418 183.61V182.779H230.586V183.61H231.418ZM233.531 192.243V191.411H232.7V192.243H233.531ZM233.531 198.711H232.7V199.542H233.531V198.711ZM240.432 197.82L239.861 197.216L239.853 197.224L240.432 197.82ZM240.432 193.134L239.853 193.73L239.861 193.738L240.432 193.134ZM232.7 183.61V190.358H234.362V183.61H232.7ZM233.531 191.189H238.242V189.527H233.531V191.189ZM238.242 191.189C238.983 191.189 239.621 191.31 240.168 191.535L240.799 189.997C240.022 189.678 239.165 189.527 238.242 189.527V191.189ZM240.168 191.535C240.732 191.766 241.194 192.077 241.566 192.463L242.762 191.309C242.217 190.744 241.558 190.308 240.799 189.997L240.168 191.535ZM241.576 192.474C241.948 192.846 242.233 193.288 242.431 193.81L243.985 193.222C243.708 192.487 243.296 191.843 242.752 191.298L241.576 192.474ZM242.433 193.817C242.631 194.326 242.733 194.877 242.733 195.477H244.396C244.396 194.684 244.26 193.928 243.983 193.215L242.433 193.817ZM242.733 195.477C242.733 196.076 242.632 196.638 242.431 197.169L243.985 197.757C244.26 197.032 244.396 196.27 244.396 195.477H242.733ZM242.433 197.162C242.236 197.669 241.948 198.119 241.566 198.516L242.762 199.67C243.297 199.116 243.705 198.479 243.983 197.764L242.433 197.162ZM241.565 198.516C241.213 198.882 240.762 199.186 240.193 199.419L240.824 200.957C241.58 200.647 242.232 200.221 242.763 199.669L241.565 198.516ZM240.193 199.419C239.648 199.642 239.003 199.764 238.242 199.764V201.426C239.18 201.426 240.045 201.276 240.824 200.957L240.193 199.419ZM238.242 199.764H231.418V201.426H238.242V199.764ZM232.249 200.595V183.61H230.586V200.595H232.249ZM231.418 184.441H233.531V182.779H231.418V184.441ZM232.7 192.243V198.711H234.362V192.243H232.7ZM233.531 199.542H237.988V197.88H233.531V199.542ZM237.988 199.542C239.178 199.542 240.216 199.189 241.012 198.415L239.853 197.224C239.426 197.638 238.835 197.88 237.988 197.88V199.542ZM241.004 198.423C241.818 197.653 242.206 196.643 242.206 195.477H240.543C240.543 196.246 240.303 196.798 239.861 197.216L241.004 198.423ZM242.206 195.477C242.206 194.311 241.818 193.301 241.004 192.53L239.861 193.738C240.303 194.155 240.543 194.707 240.543 195.477H242.206ZM241.012 192.538C240.216 191.764 239.178 191.411 237.988 191.411V193.074C238.835 193.074 239.426 193.315 239.853 193.73L241.012 192.538ZM237.988 191.411H233.531V193.074H237.988V191.411ZM247.891 200.595H247.06V201.426H247.891V200.595ZM247.891 183.61V182.779H247.06V183.61H247.891ZM259.02 183.61H259.851V182.779H259.02V183.61ZM259.02 185.494V186.325H259.851V185.494H259.02ZM250.005 185.494V184.663H249.174V185.494H250.005ZM250.005 190.969H249.174V191.801H250.005V190.969ZM258.842 190.969H259.673V190.138H258.842V190.969ZM258.842 192.854V193.685H259.673V192.854H258.842ZM250.005 192.854V192.023H249.174V192.854H250.005ZM250.005 198.711H249.174V199.542H250.005V198.711ZM259.02 198.711H259.851V197.88H259.02V198.711ZM259.02 200.595V201.426H259.851V200.595H259.02ZM248.723 200.595V183.61H247.06V200.595H248.723ZM247.891 184.441H259.02V182.779H247.891V184.441ZM258.189 183.61V185.494H259.851V183.61H258.189ZM259.02 184.663H250.005V186.325H259.02V184.663ZM249.174 185.494V190.969H250.836V185.494H249.174ZM250.005 191.801H258.842V190.138H250.005V191.801ZM258.01 190.969V192.854H259.673V190.969H258.01ZM258.842 192.023H250.005V193.685H258.842V192.023ZM249.174 192.854V198.711H250.836V192.854H249.174ZM250.005 199.542H259.02V197.88H250.005V199.542ZM258.189 198.711V200.595H259.851V198.711H258.189ZM259.02 199.764H247.891V201.426H259.02V199.764Z" fill="black" mask="url(#path-2-outside-1_195_873)"/>
<defs>
<filter id="filter0_f_195_873" x="0.987411" y="0.987411" width="399.103" height="380.812" filterUnits="userSpaceOnUse" color-interpolation-filters="sRGB">
<feFlood flood-opacity="0" result="BackgroundImageFix"/>
<feBlend mode="normal" in="SourceGraphic" in2="BackgroundImageFix" result="shape"/>
<feGaussianBlur stdDeviation="51.5063" result="effect1_foregroundBlur_195_873"/>
</filter>
</defs>
</svg>
