<svg width="256" height="244" viewBox="0 0 256 244" fill="none" xmlns="http://www.w3.org/2000/svg">
<g filter="url(#filter0_f_195_155)">
<ellipse cx="127.772" cy="121.92" rx="61.7718" ry="55.9197" fill="#DCBB03"/>
</g>
<mask id="path-2-outside-1_195_155" maskUnits="userSpaceOnUse" x="85" y="116" width="93" height="15" fill="black">
<rect fill="white" x="85" y="116" width="93" height="15"/>
<path d="M90.5624 128.196C90.0844 128.196 89.6336 128.147 89.21 128.049C88.7972 127.962 88.4115 127.837 88.0531 127.674C87.7055 127.511 87.3959 127.321 87.1243 127.104C86.8636 126.887 86.6463 126.653 86.4725 126.403L87.2709 125.54C87.5968 125.963 88.0531 126.311 88.6397 126.582C89.2263 126.854 89.8563 126.99 90.5298 126.99C91.388 126.99 92.056 126.811 92.534 126.452C93.0228 126.083 93.2672 125.583 93.2672 124.953C93.2672 124.616 93.1966 124.328 93.0554 124.089C92.925 123.84 92.7349 123.639 92.4851 123.486C92.2353 123.334 91.9365 123.22 91.5889 123.144C91.2413 123.068 90.8611 123.03 90.4483 123.03H88.2323V121.824H90.4483C90.8068 121.824 91.1435 121.792 91.4586 121.727C91.7845 121.651 92.0669 121.542 92.3059 121.401C92.5448 121.249 92.7349 121.064 92.8762 120.847C93.0174 120.619 93.088 120.347 93.088 120.032C93.088 119.728 93.0174 119.462 92.8762 119.234C92.7458 119.006 92.5611 118.815 92.3222 118.663C92.0832 118.5 91.8062 118.381 91.4912 118.305C91.1761 118.218 90.8394 118.175 90.4809 118.175C89.2534 118.175 88.2269 118.615 87.4013 119.494L86.6518 118.647C87.0646 118.169 87.6023 117.773 88.2649 117.458C88.9384 117.132 89.7097 116.969 90.5787 116.969C91.111 116.969 91.6106 117.034 92.0777 117.164C92.5557 117.295 92.9685 117.485 93.3161 117.735C93.6746 117.974 93.957 118.278 94.1634 118.647C94.3698 119.006 94.473 119.413 94.473 119.869C94.473 120.26 94.397 120.602 94.2449 120.896C94.0928 121.189 93.9027 121.439 93.6746 121.645C93.4465 121.852 93.1912 122.02 92.9088 122.15C92.6372 122.27 92.3765 122.351 92.1266 122.395C92.3765 122.417 92.648 122.487 92.9413 122.607C93.2346 122.726 93.5062 122.894 93.7561 123.112C94.0059 123.329 94.2123 123.601 94.3752 123.926C94.549 124.252 94.6359 124.633 94.6359 125.067C94.6359 125.523 94.5382 125.941 94.3426 126.322C94.1471 126.702 93.8701 127.033 93.5116 127.316C93.1532 127.587 92.7241 127.804 92.2244 127.967C91.7247 128.119 91.1707 128.196 90.5624 128.196ZM97.0146 126.908C97.3405 126.887 97.6284 126.821 97.8782 126.713C98.1389 126.604 98.3725 126.398 98.5789 126.094C98.7853 125.789 98.9591 125.36 99.1003 124.806C99.2524 124.252 99.3882 123.514 99.5077 122.59L100.176 117.132H106.824V126.794H107.818V130.004H106.465V128H98.3671V130.004H97.0146V126.908ZM100.844 122.688C100.703 123.84 100.491 124.736 100.208 125.377C99.9259 126.018 99.5837 126.49 99.1818 126.794H105.471V118.338H101.381L100.844 122.688ZM115.47 128.196C114.667 128.196 113.933 128.054 113.271 127.772C112.608 127.489 112.038 127.098 111.56 126.599C111.093 126.088 110.729 125.491 110.468 124.806C110.207 124.122 110.077 123.378 110.077 122.574C110.077 121.77 110.207 121.026 110.468 120.342C110.729 119.657 111.093 119.065 111.56 118.566C112.038 118.055 112.608 117.659 113.271 117.376C113.933 117.094 114.667 116.953 115.47 116.953C116.274 116.953 117.007 117.094 117.67 117.376C118.333 117.659 118.898 118.055 119.365 118.566C119.843 119.065 120.212 119.657 120.473 120.342C120.733 121.026 120.864 121.77 120.864 122.574C120.864 123.378 120.733 124.122 120.473 124.806C120.212 125.491 119.843 126.088 119.365 126.599C118.898 127.098 118.333 127.489 117.67 127.772C117.007 128.054 116.274 128.196 115.47 128.196ZM115.47 126.99C116.079 126.99 116.627 126.881 117.116 126.664C117.605 126.436 118.023 126.126 118.371 125.735C118.718 125.333 118.985 124.866 119.169 124.334C119.365 123.791 119.462 123.204 119.462 122.574C119.462 121.944 119.365 121.357 119.169 120.814C118.985 120.271 118.718 119.804 118.371 119.413C118.023 119.022 117.605 118.718 117.116 118.5C116.627 118.272 116.079 118.158 115.47 118.158C114.862 118.158 114.308 118.272 113.808 118.5C113.32 118.718 112.901 119.022 112.554 119.413C112.206 119.804 111.94 120.271 111.755 120.814C111.571 121.357 111.478 121.944 111.478 122.574C111.478 123.204 111.571 123.791 111.755 124.334C111.94 124.866 112.206 125.333 112.554 125.735C112.901 126.126 113.32 126.436 113.808 126.664C114.308 126.881 114.862 126.99 115.47 126.99ZM123.954 128V117.132H128.321C128.864 117.132 129.347 117.219 129.771 117.392C130.195 117.566 130.548 117.805 130.83 118.109C131.123 118.403 131.346 118.75 131.498 119.152C131.65 119.543 131.726 119.962 131.726 120.407C131.726 120.852 131.65 121.276 131.498 121.678C131.346 122.069 131.123 122.417 130.83 122.721C130.537 123.014 130.178 123.248 129.755 123.421C129.331 123.595 128.853 123.682 128.321 123.682H125.306V128H123.954ZM128.158 122.476C128.81 122.476 129.331 122.286 129.722 121.906C130.124 121.526 130.325 121.026 130.325 120.407C130.325 119.788 130.124 119.288 129.722 118.908C129.331 118.528 128.81 118.338 128.158 118.338H125.306V122.476H128.158ZM139.448 128.196C138.645 128.196 137.911 128.054 137.249 127.772C136.586 127.489 136.016 127.098 135.538 126.599C135.071 126.088 134.707 125.491 134.446 124.806C134.185 124.122 134.055 123.378 134.055 122.574C134.055 121.77 134.185 121.026 134.446 120.342C134.707 119.657 135.071 119.065 135.538 118.566C136.016 118.055 136.586 117.659 137.249 117.376C137.911 117.094 138.645 116.953 139.448 116.953C140.252 116.953 140.985 117.094 141.648 117.376C142.311 117.659 142.876 118.055 143.343 118.566C143.821 119.065 144.19 119.657 144.451 120.342C144.711 121.026 144.842 121.77 144.842 122.574C144.842 123.378 144.711 124.122 144.451 124.806C144.19 125.491 143.821 126.088 143.343 126.599C142.876 127.098 142.311 127.489 141.648 127.772C140.985 128.054 140.252 128.196 139.448 128.196ZM139.448 126.99C140.057 126.99 140.605 126.881 141.094 126.664C141.583 126.436 142.001 126.126 142.349 125.735C142.696 125.333 142.962 124.866 143.147 124.334C143.343 123.791 143.44 123.204 143.44 122.574C143.44 121.944 143.343 121.357 143.147 120.814C142.962 120.271 142.696 119.804 142.349 119.413C142.001 119.022 141.583 118.718 141.094 118.5C140.605 118.272 140.057 118.158 139.448 118.158C138.84 118.158 138.286 118.272 137.786 118.5C137.298 118.718 136.879 119.022 136.532 119.413C136.184 119.804 135.918 120.271 135.733 120.814C135.549 121.357 135.456 121.944 135.456 122.574C135.456 123.204 135.549 123.791 135.733 124.334C135.918 124.866 136.184 125.333 136.532 125.735C136.879 126.126 137.298 126.436 137.786 126.664C138.286 126.881 138.84 126.99 139.448 126.99ZM147.932 128V117.132H152.771C153.238 117.132 153.662 117.202 154.042 117.344C154.422 117.474 154.743 117.664 155.004 117.914C155.264 118.153 155.465 118.446 155.607 118.794C155.748 119.131 155.818 119.5 155.818 119.902C155.818 120.249 155.764 120.564 155.655 120.847C155.558 121.129 155.416 121.379 155.232 121.596C155.058 121.803 154.857 121.977 154.629 122.118C154.401 122.248 154.162 122.34 153.912 122.395C154.205 122.438 154.477 122.541 154.727 122.704C154.987 122.867 155.21 123.068 155.395 123.307C155.59 123.546 155.742 123.818 155.851 124.122C155.97 124.426 156.03 124.741 156.03 125.067C156.03 125.502 155.96 125.898 155.818 126.257C155.677 126.615 155.471 126.925 155.199 127.185C154.928 127.446 154.596 127.647 154.205 127.788C153.825 127.929 153.385 128 152.885 128H147.932ZM152.543 121.841C153.162 121.841 153.629 121.678 153.945 121.352C154.26 121.015 154.417 120.597 154.417 120.097C154.417 119.608 154.26 119.196 153.945 118.859C153.629 118.511 153.162 118.338 152.543 118.338H149.284V121.841H152.543ZM152.608 126.794C153.249 126.794 153.744 126.631 154.091 126.305C154.45 125.969 154.629 125.507 154.629 124.92C154.629 124.671 154.585 124.432 154.499 124.203C154.412 123.975 154.281 123.78 154.107 123.617C153.945 123.443 153.738 123.307 153.488 123.209C153.238 123.101 152.945 123.047 152.608 123.047H149.284V126.794H152.608ZM160.51 117.132V121.45H163.524C164.056 121.45 164.534 121.537 164.958 121.71C165.382 121.884 165.74 122.123 166.033 122.427C166.327 122.721 166.549 123.068 166.701 123.47C166.853 123.861 166.929 124.279 166.929 124.725C166.929 125.17 166.853 125.594 166.701 125.996C166.549 126.387 166.327 126.734 166.033 127.039C165.751 127.332 165.398 127.565 164.974 127.739C164.551 127.913 164.067 128 163.524 128H159.157V117.132H160.51ZM160.51 122.655V126.794H163.361C164.013 126.794 164.534 126.604 164.925 126.224C165.327 125.844 165.528 125.344 165.528 124.725C165.528 124.106 165.327 123.606 164.925 123.226C164.534 122.846 164.013 122.655 163.361 122.655H160.51ZM169.698 128V117.132H176.819V118.338H171.051V121.841H176.705V123.047H171.051V126.794H176.819V128H169.698Z"/>
</mask>
<path d="M90.5624 128.196C90.0844 128.196 89.6336 128.147 89.21 128.049C88.7972 127.962 88.4115 127.837 88.0531 127.674C87.7055 127.511 87.3959 127.321 87.1243 127.104C86.8636 126.887 86.6463 126.653 86.4725 126.403L87.2709 125.54C87.5968 125.963 88.0531 126.311 88.6397 126.582C89.2263 126.854 89.8563 126.99 90.5298 126.99C91.388 126.99 92.056 126.811 92.534 126.452C93.0228 126.083 93.2672 125.583 93.2672 124.953C93.2672 124.616 93.1966 124.328 93.0554 124.089C92.925 123.84 92.7349 123.639 92.4851 123.486C92.2353 123.334 91.9365 123.22 91.5889 123.144C91.2413 123.068 90.8611 123.03 90.4483 123.03H88.2323V121.824H90.4483C90.8068 121.824 91.1435 121.792 91.4586 121.727C91.7845 121.651 92.0669 121.542 92.3059 121.401C92.5448 121.249 92.7349 121.064 92.8762 120.847C93.0174 120.619 93.088 120.347 93.088 120.032C93.088 119.728 93.0174 119.462 92.8762 119.234C92.7458 119.006 92.5611 118.815 92.3222 118.663C92.0832 118.5 91.8062 118.381 91.4912 118.305C91.1761 118.218 90.8394 118.175 90.4809 118.175C89.2534 118.175 88.2269 118.615 87.4013 119.494L86.6518 118.647C87.0646 118.169 87.6023 117.773 88.2649 117.458C88.9384 117.132 89.7097 116.969 90.5787 116.969C91.111 116.969 91.6106 117.034 92.0777 117.164C92.5557 117.295 92.9685 117.485 93.3161 117.735C93.6746 117.974 93.957 118.278 94.1634 118.647C94.3698 119.006 94.473 119.413 94.473 119.869C94.473 120.26 94.397 120.602 94.2449 120.896C94.0928 121.189 93.9027 121.439 93.6746 121.645C93.4465 121.852 93.1912 122.02 92.9088 122.15C92.6372 122.27 92.3765 122.351 92.1266 122.395C92.3765 122.417 92.648 122.487 92.9413 122.607C93.2346 122.726 93.5062 122.894 93.7561 123.112C94.0059 123.329 94.2123 123.601 94.3752 123.926C94.549 124.252 94.6359 124.633 94.6359 125.067C94.6359 125.523 94.5382 125.941 94.3426 126.322C94.1471 126.702 93.8701 127.033 93.5116 127.316C93.1532 127.587 92.7241 127.804 92.2244 127.967C91.7247 128.119 91.1707 128.196 90.5624 128.196ZM97.0146 126.908C97.3405 126.887 97.6284 126.821 97.8782 126.713C98.1389 126.604 98.3725 126.398 98.5789 126.094C98.7853 125.789 98.9591 125.36 99.1003 124.806C99.2524 124.252 99.3882 123.514 99.5077 122.59L100.176 117.132H106.824V126.794H107.818V130.004H106.465V128H98.3671V130.004H97.0146V126.908ZM100.844 122.688C100.703 123.84 100.491 124.736 100.208 125.377C99.9259 126.018 99.5837 126.49 99.1818 126.794H105.471V118.338H101.381L100.844 122.688ZM115.47 128.196C114.667 128.196 113.933 128.054 113.271 127.772C112.608 127.489 112.038 127.098 111.56 126.599C111.093 126.088 110.729 125.491 110.468 124.806C110.207 124.122 110.077 123.378 110.077 122.574C110.077 121.77 110.207 121.026 110.468 120.342C110.729 119.657 111.093 119.065 111.56 118.566C112.038 118.055 112.608 117.659 113.271 117.376C113.933 117.094 114.667 116.953 115.47 116.953C116.274 116.953 117.007 117.094 117.67 117.376C118.333 117.659 118.898 118.055 119.365 118.566C119.843 119.065 120.212 119.657 120.473 120.342C120.733 121.026 120.864 121.77 120.864 122.574C120.864 123.378 120.733 124.122 120.473 124.806C120.212 125.491 119.843 126.088 119.365 126.599C118.898 127.098 118.333 127.489 117.67 127.772C117.007 128.054 116.274 128.196 115.47 128.196ZM115.47 126.99C116.079 126.99 116.627 126.881 117.116 126.664C117.605 126.436 118.023 126.126 118.371 125.735C118.718 125.333 118.985 124.866 119.169 124.334C119.365 123.791 119.462 123.204 119.462 122.574C119.462 121.944 119.365 121.357 119.169 120.814C118.985 120.271 118.718 119.804 118.371 119.413C118.023 119.022 117.605 118.718 117.116 118.5C116.627 118.272 116.079 118.158 115.47 118.158C114.862 118.158 114.308 118.272 113.808 118.5C113.32 118.718 112.901 119.022 112.554 119.413C112.206 119.804 111.94 120.271 111.755 120.814C111.571 121.357 111.478 121.944 111.478 122.574C111.478 123.204 111.571 123.791 111.755 124.334C111.94 124.866 112.206 125.333 112.554 125.735C112.901 126.126 113.32 126.436 113.808 126.664C114.308 126.881 114.862 126.99 115.47 126.99ZM123.954 128V117.132H128.321C128.864 117.132 129.347 117.219 129.771 117.392C130.195 117.566 130.548 117.805 130.83 118.109C131.123 118.403 131.346 118.75 131.498 119.152C131.65 119.543 131.726 119.962 131.726 120.407C131.726 120.852 131.65 121.276 131.498 121.678C131.346 122.069 131.123 122.417 130.83 122.721C130.537 123.014 130.178 123.248 129.755 123.421C129.331 123.595 128.853 123.682 128.321 123.682H125.306V128H123.954ZM128.158 122.476C128.81 122.476 129.331 122.286 129.722 121.906C130.124 121.526 130.325 121.026 130.325 120.407C130.325 119.788 130.124 119.288 129.722 118.908C129.331 118.528 128.81 118.338 128.158 118.338H125.306V122.476H128.158ZM139.448 128.196C138.645 128.196 137.911 128.054 137.249 127.772C136.586 127.489 136.016 127.098 135.538 126.599C135.071 126.088 134.707 125.491 134.446 124.806C134.185 124.122 134.055 123.378 134.055 122.574C134.055 121.77 134.185 121.026 134.446 120.342C134.707 119.657 135.071 119.065 135.538 118.566C136.016 118.055 136.586 117.659 137.249 117.376C137.911 117.094 138.645 116.953 139.448 116.953C140.252 116.953 140.985 117.094 141.648 117.376C142.311 117.659 142.876 118.055 143.343 118.566C143.821 119.065 144.19 119.657 144.451 120.342C144.711 121.026 144.842 121.77 144.842 122.574C144.842 123.378 144.711 124.122 144.451 124.806C144.19 125.491 143.821 126.088 143.343 126.599C142.876 127.098 142.311 127.489 141.648 127.772C140.985 128.054 140.252 128.196 139.448 128.196ZM139.448 126.99C140.057 126.99 140.605 126.881 141.094 126.664C141.583 126.436 142.001 126.126 142.349 125.735C142.696 125.333 142.962 124.866 143.147 124.334C143.343 123.791 143.44 123.204 143.44 122.574C143.44 121.944 143.343 121.357 143.147 120.814C142.962 120.271 142.696 119.804 142.349 119.413C142.001 119.022 141.583 118.718 141.094 118.5C140.605 118.272 140.057 118.158 139.448 118.158C138.84 118.158 138.286 118.272 137.786 118.5C137.298 118.718 136.879 119.022 136.532 119.413C136.184 119.804 135.918 120.271 135.733 120.814C135.549 121.357 135.456 121.944 135.456 122.574C135.456 123.204 135.549 123.791 135.733 124.334C135.918 124.866 136.184 125.333 136.532 125.735C136.879 126.126 137.298 126.436 137.786 126.664C138.286 126.881 138.84 126.99 139.448 126.99ZM147.932 128V117.132H152.771C153.238 117.132 153.662 117.202 154.042 117.344C154.422 117.474 154.743 117.664 155.004 117.914C155.264 118.153 155.465 118.446 155.607 118.794C155.748 119.131 155.818 119.5 155.818 119.902C155.818 120.249 155.764 120.564 155.655 120.847C155.558 121.129 155.416 121.379 155.232 121.596C155.058 121.803 154.857 121.977 154.629 122.118C154.401 122.248 154.162 122.34 153.912 122.395C154.205 122.438 154.477 122.541 154.727 122.704C154.987 122.867 155.21 123.068 155.395 123.307C155.59 123.546 155.742 123.818 155.851 124.122C155.97 124.426 156.03 124.741 156.03 125.067C156.03 125.502 155.96 125.898 155.818 126.257C155.677 126.615 155.471 126.925 155.199 127.185C154.928 127.446 154.596 127.647 154.205 127.788C153.825 127.929 153.385 128 152.885 128H147.932ZM152.543 121.841C153.162 121.841 153.629 121.678 153.945 121.352C154.26 121.015 154.417 120.597 154.417 120.097C154.417 119.608 154.26 119.196 153.945 118.859C153.629 118.511 153.162 118.338 152.543 118.338H149.284V121.841H152.543ZM152.608 126.794C153.249 126.794 153.744 126.631 154.091 126.305C154.45 125.969 154.629 125.507 154.629 124.92C154.629 124.671 154.585 124.432 154.499 124.203C154.412 123.975 154.281 123.78 154.107 123.617C153.945 123.443 153.738 123.307 153.488 123.209C153.238 123.101 152.945 123.047 152.608 123.047H149.284V126.794H152.608ZM160.51 117.132V121.45H163.524C164.056 121.45 164.534 121.537 164.958 121.71C165.382 121.884 165.74 122.123 166.033 122.427C166.327 122.721 166.549 123.068 166.701 123.47C166.853 123.861 166.929 124.279 166.929 124.725C166.929 125.17 166.853 125.594 166.701 125.996C166.549 126.387 166.327 126.734 166.033 127.039C165.751 127.332 165.398 127.565 164.974 127.739C164.551 127.913 164.067 128 163.524 128H159.157V117.132H160.51ZM160.51 122.655V126.794H163.361C164.013 126.794 164.534 126.604 164.925 126.224C165.327 125.844 165.528 125.344 165.528 124.725C165.528 124.106 165.327 123.606 164.925 123.226C164.534 122.846 164.013 122.655 163.361 122.655H160.51ZM169.698 128V117.132H176.819V118.338H171.051V121.841H176.705V123.047H171.051V126.794H176.819V128H169.698Z" fill="black"/>
<path d="M89.21 128.049L89.3296 127.531L89.3195 127.528L89.21 128.049ZM88.0531 127.674L87.8273 128.156L87.833 128.158L88.0531 127.674ZM87.1243 127.104L86.7838 127.512L86.7921 127.519L87.1243 127.104ZM86.4725 126.403L86.082 126.042L85.7919 126.356L86.036 126.707L86.4725 126.403ZM87.2709 125.54L87.6925 125.215L87.3083 124.716L86.8804 125.179L87.2709 125.54ZM88.6397 126.582L88.8631 126.1L88.6397 126.582ZM92.534 126.452L92.8531 126.878L92.8546 126.876L92.534 126.452ZM93.0554 124.089L92.5839 124.335L92.5904 124.348L92.5975 124.36L93.0554 124.089ZM88.2323 123.03H87.7005V123.562H88.2323V123.03ZM88.2323 121.824V121.293H87.7005V121.824H88.2323ZM91.4586 121.727L91.5664 122.248L91.5794 122.245L91.4586 121.727ZM92.3059 121.401L92.5764 121.859L92.584 121.854L92.5914 121.85L92.3059 121.401ZM92.8762 120.847L93.3222 121.137L93.3284 121.127L92.8762 120.847ZM92.8762 119.234L92.4144 119.498L92.4191 119.506L92.424 119.514L92.8762 119.234ZM92.3222 118.663L92.0226 119.103L92.0295 119.108L92.0366 119.112L92.3222 118.663ZM91.4912 118.305L91.3497 118.818L91.358 118.82L91.3664 118.822L91.4912 118.305ZM87.4013 119.494L87.003 119.847L87.3897 120.284L87.7891 119.858L87.4013 119.494ZM86.6518 118.647L86.2493 118.3L85.9454 118.651L86.2534 118.999L86.6518 118.647ZM88.2649 117.458L88.4932 117.938L88.4965 117.936L88.2649 117.458ZM92.0777 117.164L91.9348 117.677L91.9378 117.677L92.0777 117.164ZM93.3161 117.735L93.0057 118.166L93.0133 118.172L93.0211 118.177L93.3161 117.735ZM94.1634 118.647L93.6991 118.907L93.7025 118.912L94.1634 118.647ZM94.2449 120.896L94.717 121.141L94.2449 120.896ZM92.9088 122.15L93.123 122.637L93.1316 122.633L92.9088 122.15ZM92.1266 122.395L92.0355 121.871L92.0806 122.925L92.1266 122.395ZM92.9413 122.607L93.142 122.114L93.142 122.114L92.9413 122.607ZM93.7561 123.112L93.4071 123.513L93.7561 123.112ZM94.3752 123.926L93.8994 124.164L93.906 124.177L94.3752 123.926ZM94.3426 126.322L93.8697 126.078L94.3426 126.322ZM93.5116 127.316L93.8328 127.74L93.8408 127.733L93.5116 127.316ZM92.2244 127.967L92.3793 128.476L92.3893 128.473L92.2244 127.967ZM90.5624 127.664C90.1207 127.664 89.7103 127.619 89.3295 127.531L89.0904 128.567C89.5569 128.675 90.0481 128.727 90.5624 128.727V127.664ZM89.3195 127.528C88.9421 127.449 88.5938 127.336 88.2731 127.19L87.833 128.158C88.2293 128.338 88.6523 128.475 89.1004 128.569L89.3195 127.528ZM88.2788 127.193C87.9653 127.046 87.6921 126.877 87.4565 126.689L86.7921 127.519C87.0996 127.765 87.4456 127.977 87.8273 128.156L88.2788 127.193ZM87.4648 126.695C87.2365 126.505 87.0528 126.306 86.9091 126.099L86.036 126.707C86.2399 127 86.4907 127.268 86.7838 127.512L87.4648 126.695ZM86.863 126.764L87.6615 125.901L86.8804 125.179L86.082 126.042L86.863 126.764ZM86.8494 125.864C87.2375 126.368 87.7679 126.765 88.4162 127.065L88.8631 126.1C88.3382 125.857 87.9562 125.558 87.6925 125.215L86.8494 125.864ZM88.4162 127.065C89.0758 127.37 89.7825 127.522 90.5298 127.522V126.458C89.9302 126.458 89.3767 126.338 88.8631 126.1L88.4162 127.065ZM90.5298 127.522C91.4545 127.522 92.2506 127.329 92.8531 126.878L92.2149 126.027C91.8614 126.292 91.3214 126.458 90.5298 126.458V127.522ZM92.8546 126.876C93.4808 126.403 93.799 125.744 93.799 124.953H92.7354C92.7354 125.422 92.5648 125.762 92.2134 126.028L92.8546 126.876ZM93.799 124.953C93.799 124.541 93.7123 124.156 93.5133 123.819L92.5975 124.36C92.681 124.501 92.7354 124.691 92.7354 124.953H93.799ZM93.5269 123.843C93.35 123.504 93.0909 123.233 92.7616 123.032L92.2086 123.941C92.379 124.044 92.5001 124.175 92.5839 124.335L93.5269 123.843ZM92.7616 123.032C92.4519 122.844 92.0957 122.711 91.7026 122.625L91.4753 123.664C91.7774 123.73 92.0186 123.825 92.2086 123.941L92.7616 123.032ZM91.7026 122.625C91.3123 122.539 90.8934 122.498 90.4483 122.498V123.562C90.8288 123.562 91.1704 123.597 91.4753 123.664L91.7026 122.625ZM90.4483 122.498H88.2323V123.562H90.4483V122.498ZM88.7641 123.03V121.824H87.7005V123.03H88.7641ZM88.2323 122.356H90.4483V121.293H88.2323V122.356ZM90.4483 122.356C90.8389 122.356 91.2121 122.321 91.5663 122.248L91.3508 121.206C91.075 121.263 90.7747 121.293 90.4483 121.293V122.356ZM91.5794 122.245C91.9475 122.159 92.2825 122.032 92.5764 121.859L92.0353 120.943C91.8513 121.052 91.6214 121.143 91.3377 121.209L91.5794 122.245ZM92.5914 121.85C92.8885 121.66 93.1356 121.423 93.3221 121.137L92.4303 120.557C92.3343 120.705 92.2012 120.837 92.0203 120.952L92.5914 121.85ZM93.3284 121.127C93.5301 120.801 93.6198 120.429 93.6198 120.032H92.5562C92.5562 120.266 92.5046 120.437 92.424 120.567L93.3284 121.127ZM93.6198 120.032C93.6198 119.643 93.5283 119.277 93.3284 118.954L92.424 119.514C92.5064 119.647 92.5562 119.813 92.5562 120.032H93.6198ZM93.3379 118.97C93.1614 118.661 92.9137 118.409 92.6077 118.215L92.0366 119.112C92.2086 119.222 92.3302 119.35 92.4144 119.498L93.3379 118.97ZM92.6218 118.224C92.3237 118.021 91.986 117.877 91.6159 117.788L91.3664 118.822C91.6264 118.885 91.8427 118.98 92.0226 119.103L92.6218 118.224ZM91.6326 117.792C91.2673 117.691 90.8826 117.643 90.4809 117.643V118.706C90.7962 118.706 91.085 118.745 91.3497 118.818L91.6326 117.792ZM90.4809 117.643C89.1094 117.643 87.9415 118.141 87.0135 119.131L87.7891 119.858C88.5122 119.088 89.3974 118.706 90.4809 118.706V117.643ZM87.7996 119.142L87.0501 118.295L86.2534 118.999L87.003 119.847L87.7996 119.142ZM87.0543 118.995C87.4117 118.581 87.8866 118.226 88.4932 117.938L88.0366 116.977C87.318 117.319 86.7175 117.757 86.2493 118.3L87.0543 118.995ZM88.4965 117.936C89.087 117.651 89.777 117.501 90.5787 117.501V116.437C89.6423 116.437 88.7898 116.613 88.0333 116.979L88.4965 117.936ZM90.5787 117.501C91.0673 117.501 91.5185 117.56 91.9348 117.677L92.2207 116.652C91.7028 116.508 91.1546 116.437 90.5787 116.437V117.501ZM91.9378 117.677C92.364 117.794 92.717 117.959 93.0057 118.166L93.6265 117.303C93.22 117.011 92.7474 116.796 92.2177 116.651L91.9378 117.677ZM93.0211 118.177C93.3108 118.37 93.5347 118.612 93.6992 118.907L94.6277 118.388C94.3794 117.943 94.0384 117.577 93.6111 117.292L93.0211 118.177ZM93.7025 118.912C93.8578 119.182 93.9412 119.496 93.9412 119.869H95.0048C95.0048 119.33 94.8818 118.829 94.6243 118.382L93.7025 118.912ZM93.9412 119.869C93.9412 120.191 93.879 120.446 93.7728 120.651L94.717 121.141C94.9149 120.759 95.0048 120.33 95.0048 119.869H93.9412ZM93.7728 120.651C93.6477 120.892 93.4955 121.09 93.3178 121.251L94.0314 122.04C94.3099 121.788 94.5379 121.486 94.717 121.141L93.7728 120.651ZM93.3178 121.251C93.13 121.421 92.92 121.559 92.6859 121.667L93.1316 122.633C93.4624 122.481 93.7629 122.283 94.0314 122.04L93.3178 121.251ZM92.6946 121.664C92.4559 121.769 92.2365 121.836 92.0355 121.871L92.2178 122.919C92.5164 122.867 92.8185 122.771 93.1229 122.637L92.6946 121.664ZM92.0806 122.925C92.2655 122.941 92.4844 122.995 92.7407 123.099L93.142 122.114C92.8117 121.98 92.4875 121.892 92.1727 121.865L92.0806 122.925ZM92.7407 123.099C92.9774 123.196 93.1993 123.332 93.4071 123.513L94.105 122.71C93.8131 122.457 93.4918 122.257 93.142 122.114L92.7407 123.099ZM93.4071 123.513C93.5994 123.68 93.7646 123.894 93.8996 124.164L94.8509 123.689C94.66 123.307 94.4124 122.978 94.105 122.71L93.4071 123.513ZM93.906 124.177C94.032 124.413 94.1041 124.704 94.1041 125.067H95.1678C95.1678 124.561 95.0661 124.092 94.8445 123.676L93.906 124.177ZM94.1041 125.067C94.1041 125.445 94.024 125.779 93.8697 126.078L94.8156 126.565C95.0524 126.104 95.1678 125.602 95.1678 125.067H94.1041ZM93.8697 126.078C93.7114 126.386 93.4852 126.659 93.1825 126.898L93.8408 127.733C94.255 127.407 94.5829 127.017 94.8156 126.565L93.8697 126.078ZM93.1905 126.892C92.8864 127.122 92.5122 127.314 92.0595 127.462L92.3893 128.473C92.9359 128.295 93.4199 128.052 93.8328 127.74L93.1905 126.892ZM92.0695 127.459C91.6275 127.593 91.1267 127.664 90.5624 127.664V128.727C91.2147 128.727 91.8219 128.646 92.3792 128.476L92.0695 127.459ZM97.0146 126.908L96.9793 126.378L96.4828 126.411V126.908H97.0146ZM97.8782 126.713L97.6737 126.222L97.6662 126.225L97.8782 126.713ZM98.5789 126.094L99.019 126.392L98.5789 126.094ZM99.1003 124.806L98.5874 124.666L98.585 124.675L99.1003 124.806ZM99.5077 122.59L100.035 122.659L100.036 122.655L99.5077 122.59ZM100.176 117.132V116.6H99.705L99.6478 117.067L100.176 117.132ZM106.824 117.132H107.356V116.6H106.824V117.132ZM106.824 126.794H106.292V127.326H106.824V126.794ZM107.818 126.794H108.35V126.262H107.818V126.794ZM107.818 130.004V130.536H108.35V130.004H107.818ZM106.465 130.004H105.933V130.536H106.465V130.004ZM106.465 128H106.997V127.468H106.465V128ZM98.3671 128V127.468H97.8352V128H98.3671ZM98.3671 130.004V130.536H98.8989V130.004H98.3671ZM97.0146 130.004H96.4828V130.536H97.0146V130.004ZM100.844 122.688L100.316 122.623L100.316 122.623L100.844 122.688ZM100.208 125.377L100.695 125.591L100.208 125.377ZM99.1818 126.794L98.8609 126.37L97.5977 127.326H99.1818V126.794ZM105.471 126.794V127.326H106.003V126.794H105.471ZM105.471 118.338H106.003V117.806H105.471V118.338ZM101.381 118.338V117.806H100.911L100.854 118.272L101.381 118.338ZM97.05 127.439C97.425 127.414 97.7746 127.338 98.0903 127.2L97.6662 126.225C97.4822 126.305 97.256 126.359 96.9793 126.378L97.05 127.439ZM98.0828 127.204C98.464 127.045 98.7717 126.757 99.019 126.392L98.1388 125.795C97.9733 126.039 97.8139 126.163 97.6737 126.222L98.0828 127.204ZM99.019 126.392C99.2736 126.017 99.4667 125.522 99.6156 124.938L98.585 124.675C98.4515 125.199 98.2969 125.562 98.1388 125.795L99.019 126.392ZM99.6132 124.947C99.7745 124.359 99.9141 123.593 100.035 122.659L98.9802 122.522C98.8622 123.434 98.7303 124.145 98.5875 124.666L99.6132 124.947ZM100.036 122.655L100.704 117.196L99.6478 117.067L98.9798 122.526L100.036 122.655ZM100.176 117.664H106.824V116.6H100.176V117.664ZM106.292 117.132V126.794H107.356V117.132H106.292ZM106.824 127.326H107.818V126.262H106.824V127.326ZM107.286 126.794V130.004H108.35V126.794H107.286ZM107.818 129.472H106.465V130.536H107.818V129.472ZM106.997 130.004V128H105.933V130.004H106.997ZM106.465 127.468H98.3671V128.532H106.465V127.468ZM97.8352 128V130.004H98.8989V128H97.8352ZM98.3671 129.472H97.0146V130.536H98.3671V129.472ZM97.5465 130.004V126.908H96.4828V130.004H97.5465ZM100.316 122.623C100.177 123.752 99.9739 124.59 99.7216 125.162L100.695 125.591C101.008 124.882 101.228 123.927 101.372 122.753L100.316 122.623ZM99.7216 125.162C99.4622 125.751 99.1679 126.138 98.8609 126.37L99.5027 127.218C99.9995 126.842 100.39 126.284 100.695 125.591L99.7216 125.162ZM99.1818 127.326H105.471V126.262H99.1818V127.326ZM106.003 126.794V118.338H104.94V126.794H106.003ZM105.471 117.806H101.381V118.869H105.471V117.806ZM100.854 118.272L100.316 122.623L101.372 122.753L101.909 118.403L100.854 118.272ZM113.271 127.772L113.062 128.261L113.271 127.772ZM111.56 126.599L111.167 126.958L111.175 126.966L111.56 126.599ZM110.468 124.806L110.965 124.617L110.468 124.806ZM110.468 120.342L109.971 120.152L110.468 120.342ZM111.56 118.566L111.172 118.202L111.171 118.202L111.56 118.566ZM113.271 117.376L113.479 117.865L113.271 117.376ZM117.67 117.376L117.462 117.865L117.67 117.376ZM119.365 118.566L118.972 118.925L118.98 118.933L119.365 118.566ZM120.473 120.342L119.976 120.531V120.531L120.473 120.342ZM120.473 124.806L119.976 124.617L120.473 124.806ZM119.365 126.599L118.976 126.235L118.976 126.236L119.365 126.599ZM117.67 127.772L117.879 128.261L117.67 127.772ZM117.116 126.664L117.332 127.15L117.341 127.146L117.116 126.664ZM118.371 125.735L118.768 126.088L118.773 126.083L118.371 125.735ZM119.169 124.334L118.669 124.154L118.667 124.159L119.169 124.334ZM119.169 120.814L118.666 120.985L118.669 120.994L119.169 120.814ZM118.371 119.413L117.973 119.766L118.371 119.413ZM117.116 118.5L116.891 118.982L116.9 118.986L117.116 118.5ZM113.808 118.5L114.024 118.986L114.029 118.984L113.808 118.5ZM112.554 119.413L112.951 119.766L112.554 119.413ZM111.755 120.814L112.259 120.985L111.755 120.814ZM111.755 124.334L111.252 124.505L111.253 124.508L111.755 124.334ZM112.554 125.735L112.151 126.083L112.156 126.088L112.554 125.735ZM113.808 126.664L113.583 127.146L113.596 127.152L113.808 126.664ZM115.47 127.664C114.73 127.664 114.069 127.534 113.479 127.283L113.062 128.261C113.798 128.575 114.603 128.727 115.47 128.727V127.664ZM113.479 127.283C112.88 127.027 112.37 126.677 111.944 126.231L111.175 126.966C111.705 127.52 112.336 127.952 113.062 128.261L113.479 127.283ZM111.952 126.24C111.533 125.781 111.203 125.242 110.965 124.617L109.971 124.996C110.254 125.739 110.652 126.395 111.167 126.958L111.952 126.24ZM110.965 124.617C110.73 123.999 110.609 123.319 110.609 122.574H109.545C109.545 123.436 109.685 124.245 109.971 124.996L110.965 124.617ZM110.609 122.574C110.609 121.829 110.73 121.149 110.965 120.531L109.971 120.152C109.685 120.903 109.545 121.712 109.545 122.574H110.609ZM110.965 120.531C111.203 119.907 111.532 119.375 111.948 118.929L111.171 118.202C110.654 118.756 110.255 119.408 109.971 120.152L110.965 120.531ZM111.948 118.929C112.374 118.474 112.882 118.12 113.479 117.865L113.062 116.887C112.334 117.197 111.702 117.636 111.172 118.202L111.948 118.929ZM113.479 117.865C114.069 117.614 114.73 117.484 115.47 117.484V116.421C114.603 116.421 113.798 116.573 113.062 116.887L113.479 117.865ZM115.47 117.484C116.211 117.484 116.872 117.614 117.462 117.865L117.879 116.887C117.143 116.573 116.338 116.421 115.47 116.421V117.484ZM117.462 117.865C118.057 118.119 118.559 118.472 118.972 118.925L119.757 118.207C119.237 117.638 118.608 117.198 117.879 116.887L117.462 117.865ZM118.98 118.933C119.406 119.379 119.739 119.909 119.976 120.531L120.97 120.152C120.685 119.406 120.279 118.752 119.749 118.198L118.98 118.933ZM119.976 120.531C120.211 121.149 120.332 121.829 120.332 122.574H121.396C121.396 121.712 121.256 120.903 120.97 120.152L119.976 120.531ZM120.332 122.574C120.332 123.319 120.211 123.999 119.976 124.617L120.97 124.996C121.256 124.245 121.396 123.436 121.396 122.574H120.332ZM119.976 124.617C119.738 125.24 119.405 125.777 118.976 126.235L119.753 126.962C120.28 126.399 120.686 125.741 120.97 124.996L119.976 124.617ZM118.976 126.236C118.562 126.678 118.06 127.028 117.462 127.283L117.879 128.261C118.606 127.951 119.233 127.519 119.753 126.962L118.976 126.236ZM117.462 127.283C116.872 127.534 116.211 127.664 115.47 127.664V128.727C116.338 128.727 117.143 128.575 117.879 128.261L117.462 127.283ZM115.47 127.522C116.143 127.522 116.767 127.401 117.332 127.15L116.9 126.178C116.488 126.361 116.014 126.458 115.47 126.458V127.522ZM117.341 127.146C117.893 126.888 118.371 126.535 118.768 126.088L117.973 125.382C117.675 125.717 117.316 125.984 116.891 126.182L117.341 127.146ZM118.773 126.083C119.167 125.627 119.466 125.1 119.672 124.508L118.667 124.159C118.503 124.632 118.269 125.039 117.969 125.387L118.773 126.083ZM119.67 124.514C119.888 123.908 119.994 123.26 119.994 122.574H118.931C118.931 123.148 118.842 123.673 118.669 124.154L119.67 124.514ZM119.994 122.574C119.994 121.888 119.888 121.24 119.67 120.634L118.669 120.994C118.842 121.475 118.931 122 118.931 122.574H119.994ZM119.673 120.643C119.467 120.039 119.167 119.509 118.768 119.06L117.973 119.766C118.269 120.099 118.502 120.503 118.666 120.985L119.673 120.643ZM118.768 119.06C118.369 118.611 117.889 118.262 117.332 118.014L116.9 118.986C117.321 119.174 117.677 119.433 117.973 119.766L118.768 119.06ZM117.341 118.019C116.773 117.754 116.146 117.626 115.47 117.626V118.69C116.011 118.69 116.481 118.791 116.891 118.982L117.341 118.019ZM115.47 117.626C114.794 117.626 114.164 117.754 113.588 118.017L114.029 118.984C114.452 118.791 114.93 118.69 115.47 118.69V117.626ZM113.592 118.014C113.036 118.262 112.555 118.611 112.156 119.06L112.951 119.766C113.247 119.433 113.603 119.174 114.024 118.986L113.592 118.014ZM112.156 119.06C111.757 119.509 111.457 120.039 111.252 120.643L112.259 120.985C112.423 120.503 112.655 120.099 112.951 119.766L112.156 119.06ZM111.252 120.643C111.047 121.246 110.946 121.891 110.946 122.574H112.01C112.01 121.997 112.095 121.468 112.259 120.985L111.252 120.643ZM110.946 122.574C110.946 123.257 111.047 123.902 111.252 124.505L112.259 124.163C112.095 123.68 112.01 123.152 112.01 122.574H110.946ZM111.253 124.508C111.458 125.1 111.757 125.627 112.151 126.083L112.956 125.387C112.655 125.039 112.422 124.632 112.258 124.159L111.253 124.508ZM112.156 126.088C112.554 126.535 113.031 126.888 113.583 127.146L114.033 126.182C113.608 125.984 113.249 125.717 112.951 125.382L112.156 126.088ZM113.596 127.152C114.17 127.401 114.798 127.522 115.47 127.522V126.458C114.927 126.458 114.446 126.361 114.02 126.176L113.596 127.152ZM123.954 128H123.422V128.532H123.954V128ZM123.954 117.132V116.6H123.422V117.132H123.954ZM129.771 117.392L129.569 117.884V117.884L129.771 117.392ZM130.83 118.109L130.44 118.471L130.447 118.478L130.454 118.485L130.83 118.109ZM131.498 119.152L131.001 119.34L131.003 119.345L131.498 119.152ZM131.498 121.678L131.994 121.871L131.996 121.866L131.498 121.678ZM130.83 122.721L131.206 123.097L131.213 123.09L130.83 122.721ZM125.306 123.682V123.15H124.775V123.682H125.306ZM125.306 128V128.532H125.838V128H125.306ZM129.722 121.906L129.357 121.52L129.351 121.525L129.722 121.906ZM129.722 118.908L129.351 119.289L129.357 119.294L129.722 118.908ZM125.306 118.338V117.806H124.775V118.338H125.306ZM125.306 122.476H124.775V123.008H125.306V122.476ZM124.486 128V117.132H123.422V128H124.486ZM123.954 117.664H128.321V116.6H123.954V117.664ZM128.321 117.664C128.807 117.664 129.22 117.741 129.569 117.884L129.973 116.9C129.474 116.696 128.921 116.6 128.321 116.6V117.664ZM129.569 117.884C129.929 118.032 130.216 118.229 130.44 118.471L131.22 117.748C130.88 117.381 130.46 117.1 129.973 116.9L129.569 117.884ZM130.454 118.485C130.692 118.724 130.874 119.006 131.001 119.34L131.996 118.964C131.818 118.494 131.555 118.082 131.206 117.733L130.454 118.485ZM131.003 119.345C131.129 119.671 131.194 120.023 131.194 120.407H132.258C132.258 119.9 132.171 119.416 131.994 118.959L131.003 119.345ZM131.194 120.407C131.194 120.79 131.129 121.15 131.001 121.49L131.996 121.866C132.171 121.402 132.258 120.914 132.258 120.407H131.194ZM131.003 121.485C130.876 121.81 130.692 122.098 130.447 122.352L131.213 123.09C131.555 122.735 131.816 122.328 131.994 121.871L131.003 121.485ZM130.454 122.345C130.216 122.583 129.918 122.779 129.553 122.929L129.957 123.913C130.439 123.716 130.858 123.445 131.206 123.097L130.454 122.345ZM129.553 122.929C129.203 123.073 128.795 123.15 128.321 123.15V124.214C128.911 124.214 129.459 124.117 129.957 123.913L129.553 122.929ZM128.321 123.15H125.306V124.214H128.321V123.15ZM124.775 123.682V128H125.838V123.682H124.775ZM125.306 127.468H123.954V128.532H125.306V127.468ZM128.158 123.008C128.919 123.008 129.584 122.782 130.093 122.287L129.351 121.525C129.079 121.79 128.7 121.944 128.158 121.944V123.008ZM130.088 122.292C130.609 121.799 130.857 121.153 130.857 120.407H129.793C129.793 120.899 129.639 121.252 129.357 121.52L130.088 122.292ZM130.857 120.407C130.857 119.661 130.609 119.015 130.088 118.521L129.357 119.294C129.639 119.561 129.793 119.915 129.793 120.407H130.857ZM130.093 118.527C129.584 118.031 128.919 117.806 128.158 117.806V118.869C128.7 118.869 129.079 119.024 129.351 119.289L130.093 118.527ZM128.158 117.806H125.306V118.869H128.158V117.806ZM124.775 118.338V122.476H125.838V118.338H124.775ZM125.306 123.008H128.158V121.944H125.306V123.008ZM137.249 127.772L137.04 128.261L137.249 127.772ZM135.538 126.599L135.145 126.958L135.153 126.966L135.538 126.599ZM134.446 124.806L134.943 124.617L134.446 124.806ZM134.446 120.342L133.949 120.152L134.446 120.342ZM135.538 118.566L135.15 118.202L135.149 118.202L135.538 118.566ZM137.249 117.376L137.457 117.865L137.249 117.376ZM141.648 117.376L141.44 117.865L141.648 117.376ZM143.343 118.566L142.95 118.925L142.958 118.933L143.343 118.566ZM144.451 120.342L143.954 120.531V120.531L144.451 120.342ZM144.451 124.806L143.954 124.617L144.451 124.806ZM143.343 126.599L142.954 126.235L142.954 126.236L143.343 126.599ZM141.648 127.772L141.857 128.261L141.648 127.772ZM141.094 126.664L141.31 127.15L141.319 127.146L141.094 126.664ZM142.349 125.735L142.746 126.088L142.751 126.083L142.349 125.735ZM143.147 124.334L142.647 124.154L142.645 124.159L143.147 124.334ZM143.147 120.814L142.644 120.985L142.647 120.994L143.147 120.814ZM142.349 119.413L141.951 119.766L142.349 119.413ZM141.094 118.5L140.869 118.982L140.878 118.986L141.094 118.5ZM137.786 118.5L138.002 118.986L138.007 118.984L137.786 118.5ZM136.532 119.413L136.929 119.766L136.532 119.413ZM135.733 120.814L136.237 120.985L135.733 120.814ZM135.733 124.334L135.23 124.505L135.231 124.508L135.733 124.334ZM136.532 125.735L136.129 126.083L136.134 126.088L136.532 125.735ZM137.786 126.664L137.561 127.146L137.574 127.152L137.786 126.664ZM139.448 127.664C138.708 127.664 138.047 127.534 137.457 127.283L137.04 128.261C137.776 128.575 138.581 128.727 139.448 128.727V127.664ZM137.457 127.283C136.858 127.027 136.348 126.677 135.922 126.231L135.153 126.966C135.683 127.52 136.314 127.952 137.04 128.261L137.457 127.283ZM135.93 126.24C135.511 125.781 135.181 125.242 134.943 124.617L133.949 124.996C134.232 125.739 134.63 126.395 135.145 126.958L135.93 126.24ZM134.943 124.617C134.708 123.999 134.587 123.319 134.587 122.574H133.523C133.523 123.436 133.663 124.245 133.949 124.996L134.943 124.617ZM134.587 122.574C134.587 121.829 134.708 121.149 134.943 120.531L133.949 120.152C133.663 120.903 133.523 121.712 133.523 122.574H134.587ZM134.943 120.531C135.181 119.907 135.51 119.375 135.926 118.929L135.149 118.202C134.632 118.756 134.233 119.408 133.949 120.152L134.943 120.531ZM135.926 118.929C136.352 118.474 136.86 118.12 137.457 117.865L137.04 116.887C136.312 117.197 135.68 117.636 135.15 118.202L135.926 118.929ZM137.457 117.865C138.047 117.614 138.708 117.484 139.448 117.484V116.421C138.581 116.421 137.776 116.573 137.04 116.887L137.457 117.865ZM139.448 117.484C140.189 117.484 140.85 117.614 141.44 117.865L141.857 116.887C141.121 116.573 140.316 116.421 139.448 116.421V117.484ZM141.44 117.865C142.035 118.119 142.537 118.472 142.95 118.925L143.735 118.207C143.215 117.638 142.586 117.198 141.857 116.887L141.44 117.865ZM142.958 118.933C143.384 119.379 143.717 119.909 143.954 120.531L144.948 120.152C144.663 119.406 144.257 118.752 143.727 118.198L142.958 118.933ZM143.954 120.531C144.189 121.149 144.31 121.829 144.31 122.574H145.374C145.374 121.712 145.234 120.903 144.948 120.152L143.954 120.531ZM144.31 122.574C144.31 123.319 144.189 123.999 143.954 124.617L144.948 124.996C145.234 124.245 145.374 123.436 145.374 122.574H144.31ZM143.954 124.617C143.716 125.24 143.383 125.777 142.954 126.235L143.731 126.962C144.258 126.399 144.664 125.741 144.948 124.996L143.954 124.617ZM142.954 126.236C142.54 126.678 142.038 127.028 141.44 127.283L141.857 128.261C142.584 127.951 143.211 127.519 143.731 126.962L142.954 126.236ZM141.44 127.283C140.85 127.534 140.189 127.664 139.448 127.664V128.727C140.316 128.727 141.121 128.575 141.857 128.261L141.44 127.283ZM139.448 127.522C140.121 127.522 140.745 127.401 141.31 127.15L140.878 126.178C140.466 126.361 139.992 126.458 139.448 126.458V127.522ZM141.319 127.146C141.871 126.888 142.349 126.535 142.746 126.088L141.951 125.382C141.653 125.717 141.294 125.984 140.869 126.182L141.319 127.146ZM142.751 126.083C143.145 125.627 143.444 125.1 143.65 124.508L142.645 124.159C142.481 124.632 142.247 125.039 141.946 125.387L142.751 126.083ZM143.648 124.514C143.866 123.908 143.972 123.26 143.972 122.574H142.909C142.909 123.148 142.82 123.673 142.647 124.154L143.648 124.514ZM143.972 122.574C143.972 121.888 143.866 121.24 143.648 120.634L142.647 120.994C142.82 121.475 142.909 122 142.909 122.574H143.972ZM143.651 120.643C143.445 120.039 143.145 119.509 142.746 119.06L141.951 119.766C142.247 120.099 142.48 120.503 142.644 120.985L143.651 120.643ZM142.746 119.06C142.347 118.611 141.867 118.262 141.31 118.014L140.878 118.986C141.299 119.174 141.655 119.433 141.951 119.766L142.746 119.06ZM141.319 118.019C140.751 117.754 140.124 117.626 139.448 117.626V118.69C139.989 118.69 140.459 118.791 140.869 118.982L141.319 118.019ZM139.448 117.626C138.772 117.626 138.142 117.754 137.566 118.017L138.007 118.984C138.43 118.791 138.908 118.69 139.448 118.69V117.626ZM137.57 118.014C137.014 118.262 136.533 118.611 136.134 119.06L136.929 119.766C137.225 119.433 137.581 119.174 138.002 118.986L137.57 118.014ZM136.134 119.06C135.735 119.509 135.435 120.039 135.23 120.643L136.237 120.985C136.401 120.503 136.633 120.099 136.929 119.766L136.134 119.06ZM135.23 120.643C135.025 121.246 134.924 121.891 134.924 122.574H135.988C135.988 121.997 136.073 121.468 136.237 120.985L135.23 120.643ZM134.924 122.574C134.924 123.257 135.025 123.902 135.23 124.505L136.237 124.163C136.073 123.68 135.988 123.152 135.988 122.574H134.924ZM135.231 124.508C135.436 125.1 135.735 125.627 136.129 126.083L136.934 125.387C136.633 125.039 136.4 124.632 136.236 124.159L135.231 124.508ZM136.134 126.088C136.531 126.535 137.009 126.888 137.561 127.146L138.011 126.182C137.586 125.984 137.227 125.717 136.929 125.382L136.134 126.088ZM137.574 127.152C138.148 127.401 138.776 127.522 139.448 127.522V126.458C138.905 126.458 138.424 126.361 137.998 126.176L137.574 127.152ZM147.932 128H147.4V128.532H147.932V128ZM147.932 117.132V116.6H147.4V117.132H147.932ZM154.042 117.344L153.857 117.842L153.87 117.847L154.042 117.344ZM155.004 117.914L154.636 118.298L154.644 118.306L155.004 117.914ZM155.607 118.794L155.114 118.994L155.116 118.999L155.607 118.794ZM155.655 120.847L155.159 120.656L155.156 120.664L155.153 120.673L155.655 120.847ZM155.232 121.596L154.827 121.252L154.825 121.254L155.232 121.596ZM154.629 122.118L154.893 122.58L154.901 122.575L154.909 122.57L154.629 122.118ZM153.912 122.395L153.799 121.875L153.834 122.921L153.912 122.395ZM154.727 122.704L154.436 123.15L154.445 123.155L154.727 122.704ZM155.395 123.307L154.974 123.632L154.978 123.638L154.983 123.644L155.395 123.307ZM155.851 124.122L155.35 124.301L155.353 124.309L155.356 124.316L155.851 124.122ZM155.818 126.257L155.324 126.062L155.818 126.257ZM155.199 127.185L155.567 127.569L155.199 127.185ZM154.205 127.788L154.025 127.288L154.02 127.29L154.205 127.788ZM153.945 121.352L154.327 121.722L154.333 121.715L153.945 121.352ZM153.945 118.859L153.55 119.216L153.556 119.222L153.945 118.859ZM149.284 118.338V117.806H148.753V118.338H149.284ZM149.284 121.841H148.753V122.373H149.284V121.841ZM154.091 126.305L154.455 126.693L154.455 126.693L154.091 126.305ZM154.499 124.203L154.995 124.014L154.499 124.203ZM154.107 123.617L153.719 123.981L153.731 123.993L153.744 124.005L154.107 123.617ZM153.488 123.209L153.276 123.697L153.285 123.701L153.294 123.705L153.488 123.209ZM149.284 123.047V122.515H148.753V123.047H149.284ZM149.284 126.794H148.753V127.326H149.284V126.794ZM148.464 128V117.132H147.4V128H148.464ZM147.932 117.664H152.771V116.6H147.932V117.664ZM152.771 117.664C153.185 117.664 153.544 117.726 153.857 117.842L154.227 116.845C153.78 116.679 153.292 116.6 152.771 116.6V117.664ZM153.87 117.847C154.185 117.955 154.437 118.107 154.636 118.298L155.372 117.53C155.049 117.221 154.66 116.993 154.215 116.84L153.87 117.847ZM154.644 118.306C154.843 118.488 155 118.715 155.114 118.994L156.099 118.594C155.93 118.177 155.685 117.817 155.363 117.522L154.644 118.306ZM155.116 118.999C155.227 119.265 155.287 119.563 155.287 119.902H156.35C156.35 119.436 156.268 118.996 156.097 118.588L155.116 118.999ZM155.287 119.902C155.287 120.194 155.241 120.443 155.159 120.656L156.152 121.038C156.287 120.686 156.35 120.305 156.35 119.902H155.287ZM155.153 120.673C155.076 120.896 154.966 121.087 154.827 121.252L155.637 121.941C155.866 121.671 156.04 121.363 156.158 121.021L155.153 120.673ZM154.825 121.254C154.687 121.417 154.529 121.554 154.349 121.666L154.909 122.57C155.185 122.399 155.429 122.188 155.639 121.939L154.825 121.254ZM154.365 121.656C154.183 121.76 153.994 121.833 153.799 121.875L154.025 122.914C154.329 122.848 154.619 122.736 154.893 122.58L154.365 121.656ZM153.834 122.921C154.051 122.953 154.25 123.029 154.436 123.15L155.017 122.259C154.703 122.054 154.359 121.923 153.99 121.869L153.834 122.921ZM154.445 123.155C154.653 123.286 154.828 123.444 154.974 123.632L155.816 122.982C155.592 122.692 155.322 122.449 155.008 122.253L154.445 123.155ZM154.983 123.644C155.138 123.834 155.261 124.051 155.35 124.301L156.352 123.943C156.224 123.584 156.042 123.259 155.806 122.97L154.983 123.644ZM155.356 124.316C155.451 124.559 155.498 124.808 155.498 125.067H156.562C156.562 124.674 156.49 124.293 156.346 123.928L155.356 124.316ZM155.498 125.067C155.498 125.443 155.437 125.773 155.324 126.062L156.313 126.451C156.482 126.023 156.562 125.56 156.562 125.067H155.498ZM155.324 126.062C155.21 126.35 155.046 126.595 154.831 126.802L155.567 127.569C155.896 127.254 156.145 126.879 156.313 126.451L155.324 126.062ZM154.831 126.802C154.618 127.006 154.353 127.169 154.025 127.288L154.386 128.288C154.84 128.125 155.237 127.886 155.567 127.569L154.831 126.802ZM154.02 127.29C153.711 127.404 153.336 127.468 152.885 127.468V128.532C153.434 128.532 153.939 128.454 154.39 128.287L154.02 127.29ZM152.885 127.468H147.932V128.532H152.885V127.468ZM152.543 122.373C153.252 122.373 153.879 122.185 154.327 121.722L153.562 120.982C153.38 121.171 153.073 121.309 152.543 121.309V122.373ZM154.333 121.715C154.748 121.271 154.949 120.72 154.949 120.097H153.885C153.885 120.474 153.771 120.759 153.556 120.989L154.333 121.715ZM154.949 120.097C154.949 119.482 154.746 118.937 154.333 118.496L153.556 119.222C153.773 119.454 153.885 119.734 153.885 120.097H154.949ZM154.339 118.502C153.893 118.01 153.262 117.806 152.543 117.806V118.869C153.063 118.869 153.366 119.012 153.55 119.216L154.339 118.502ZM152.543 117.806H149.284V118.869H152.543V117.806ZM148.753 118.338V121.841H149.816V118.338H148.753ZM149.284 122.373H152.543V121.309H149.284V122.373ZM152.608 127.326C153.337 127.326 153.979 127.14 154.455 126.693L153.727 125.917C153.508 126.123 153.162 126.262 152.608 126.262V127.326ZM154.455 126.693C154.941 126.237 155.161 125.623 155.161 124.92H154.097C154.097 125.391 153.958 125.701 153.727 125.918L154.455 126.693ZM155.161 124.92C155.161 124.607 155.106 124.304 154.995 124.014L154.002 124.393C154.065 124.559 154.097 124.734 154.097 124.92H155.161ZM154.995 124.014C154.881 123.712 154.705 123.448 154.471 123.229L153.744 124.005C153.857 124.111 153.943 124.238 154.002 124.393L154.995 124.014ZM154.495 123.253C154.272 123.015 153.996 122.837 153.682 122.714L153.294 123.705C153.48 123.777 153.617 123.871 153.719 123.981L154.495 123.253ZM153.7 122.722C153.37 122.578 153.001 122.515 152.608 122.515V123.578C152.889 123.578 153.107 123.624 153.276 123.697L153.7 122.722ZM152.608 122.515H149.284V123.578H152.608V122.515ZM148.753 123.047V126.794H149.816V123.047H148.753ZM149.284 127.326H152.608V126.262H149.284V127.326ZM160.51 117.132H161.041V116.6H160.51V117.132ZM160.51 121.45H159.978V121.982H160.51V121.45ZM166.033 122.427L165.65 122.797L165.657 122.803L166.033 122.427ZM166.701 123.47L166.204 123.658L166.206 123.663L166.701 123.47ZM166.701 125.996L167.197 126.189L167.199 126.184L166.701 125.996ZM166.033 127.039L165.65 126.669L165.65 126.67L166.033 127.039ZM159.157 128H158.625V128.532H159.157V128ZM159.157 117.132V116.6H158.625V117.132H159.157ZM160.51 122.655V122.124H159.978V122.655H160.51ZM160.51 126.794H159.978V127.326H160.51V126.794ZM164.925 126.224L164.56 125.838L164.555 125.843L164.925 126.224ZM164.925 123.226L164.555 123.607L164.56 123.612L164.925 123.226ZM159.978 117.132V121.45H161.041V117.132H159.978ZM160.51 121.982H163.524V120.918H160.51V121.982ZM163.524 121.982C163.998 121.982 164.406 122.059 164.756 122.202L165.16 121.218C164.663 121.014 164.114 120.918 163.524 120.918V121.982ZM164.756 122.202C165.117 122.351 165.412 122.55 165.65 122.797L166.416 122.058C166.068 121.697 165.646 121.418 165.16 121.218L164.756 122.202ZM165.657 122.803C165.895 123.041 166.078 123.324 166.204 123.658L167.199 123.282C167.021 122.812 166.758 122.4 166.409 122.051L165.657 122.803ZM166.206 123.663C166.332 123.989 166.398 124.341 166.398 124.725H167.461C167.461 124.218 167.374 123.734 167.197 123.277L166.206 123.663ZM166.398 124.725C166.398 125.108 166.332 125.468 166.204 125.808L167.199 126.184C167.374 125.72 167.461 125.232 167.461 124.725H166.398ZM166.206 125.803C166.079 126.128 165.895 126.416 165.65 126.669L166.416 127.408C166.758 127.053 167.019 126.646 167.197 126.189L166.206 125.803ZM165.65 126.67C165.425 126.904 165.136 127.098 164.772 127.247L165.176 128.231C165.659 128.033 166.077 127.76 166.416 127.408L165.65 126.67ZM164.772 127.247C164.423 127.39 164.011 127.468 163.524 127.468V128.532C164.124 128.532 164.678 128.436 165.176 128.231L164.772 127.247ZM163.524 127.468H159.157V128.532H163.524V127.468ZM159.689 128V117.132H158.625V128H159.689ZM159.157 117.664H160.51V116.6H159.157V117.664ZM159.978 122.655V126.794H161.041V122.655H159.978ZM160.51 127.326H163.361V126.262H160.51V127.326ZM163.361 127.326C164.122 127.326 164.787 127.1 165.296 126.605L164.555 125.843C164.282 126.108 163.903 126.262 163.361 126.262V127.326ZM165.291 126.61C165.812 126.117 166.06 125.471 166.06 124.725H164.996C164.996 125.217 164.842 125.57 164.56 125.838L165.291 126.61ZM166.06 124.725C166.06 123.979 165.812 123.333 165.291 122.839L164.56 123.612C164.842 123.879 164.996 124.233 164.996 124.725H166.06ZM165.296 122.844C164.787 122.349 164.122 122.124 163.361 122.124V123.187C163.903 123.187 164.282 123.342 164.555 123.607L165.296 122.844ZM163.361 122.124H160.51V123.187H163.361V122.124ZM169.698 128H169.166V128.532H169.698V128ZM169.698 117.132V116.6H169.166V117.132H169.698ZM176.819 117.132H177.351V116.6H176.819V117.132ZM176.819 118.338V118.869H177.351V118.338H176.819ZM171.051 118.338V117.806H170.519V118.338H171.051ZM171.051 121.841H170.519V122.373H171.051V121.841ZM176.705 121.841H177.236V121.309H176.705V121.841ZM176.705 123.047V123.578H177.236V123.047H176.705ZM171.051 123.047V122.515H170.519V123.047H171.051ZM171.051 126.794H170.519V127.326H171.051V126.794ZM176.819 126.794H177.351V126.262H176.819V126.794ZM176.819 128V128.532H177.351V128H176.819ZM170.23 128V117.132H169.166V128H170.23ZM169.698 117.664H176.819V116.6H169.698V117.664ZM176.287 117.132V118.338H177.351V117.132H176.287ZM176.819 117.806H171.051V118.869H176.819V117.806ZM170.519 118.338V121.841H171.582V118.338H170.519ZM171.051 122.373H176.705V121.309H171.051V122.373ZM176.173 121.841V123.047H177.236V121.841H176.173ZM176.705 122.515H171.051V123.578H176.705V122.515ZM170.519 123.047V126.794H171.582V123.047H170.519ZM171.051 127.326H176.819V126.262H171.051V127.326ZM176.287 126.794V128H177.351V126.794H176.287ZM176.819 127.468H169.698V128.532H176.819V127.468Z" fill="black" mask="url(#path-2-outside-1_195_155)"/>
<defs>
<filter id="filter0_f_195_155" x="0.0862427" y="0.0862427" width="255.37" height="243.667" filterUnits="userSpaceOnUse" color-interpolation-filters="sRGB">
<feFlood flood-opacity="0" result="BackgroundImageFix"/>
<feBlend mode="normal" in="SourceGraphic" in2="BackgroundImageFix" result="shape"/>
<feGaussianBlur stdDeviation="32.9569" result="effect1_foregroundBlur_195_155"/>
</filter>
</defs>
</svg>
