<svg width="406" height="441" viewBox="0 0 406 441" fill="none" xmlns="http://www.w3.org/2000/svg">
<g filter="url(#filter0_f_195_143)">
<circle cx="185.5" cy="220.5" r="106.5" fill="#FFD900"/>
</g>
<mask id="path-2-outside-1_195_143" maskUnits="userSpaceOnUse" x="115" y="217" width="127" height="27" fill="black">
<rect fill="white" x="115" y="217" width="127" height="27"/>
<path d="M116.98 236.947C117.593 236.906 118.135 236.784 118.604 236.579C119.095 236.375 119.534 235.987 119.922 235.415C120.31 234.843 120.637 234.036 120.902 232.995C121.188 231.953 121.444 230.564 121.668 228.828L122.925 218.563H135.426V236.733H137.295V242.769H134.752V239H119.524V242.769H116.98V236.947ZM124.181 229.011C123.915 231.177 123.517 232.862 122.986 234.067C122.455 235.272 121.811 236.161 121.056 236.733H132.883V220.83H125.192L124.181 229.011ZM142.371 239V218.563H155.76V220.83H144.914V227.418H155.546V229.685H144.914V236.733H155.76V239H142.371ZM176.146 239V229.624H164.196V239H161.653V218.563H164.196V227.357H176.146V218.563H178.689V239H176.146ZM187.848 218.563V226.683H193.516C194.517 226.683 195.416 226.846 196.213 227.173C197.009 227.5 197.683 227.949 198.235 228.521C198.786 229.073 199.205 229.726 199.491 230.482C199.777 231.217 199.92 232.004 199.92 232.841C199.92 233.679 199.777 234.475 199.491 235.231C199.205 235.967 198.786 236.62 198.235 237.192C197.704 237.744 197.04 238.183 196.243 238.51C195.447 238.837 194.538 239 193.516 239H185.305V218.563H187.848ZM187.848 228.95V236.733H193.21C194.436 236.733 195.416 236.375 196.151 235.66C196.907 234.945 197.285 234.006 197.285 232.841C197.285 231.677 196.907 230.737 196.151 230.022C195.416 229.308 194.436 228.95 193.21 228.95H187.848ZM205.126 239V218.563H218.516V220.83H207.669V239H205.126ZM223.811 239V218.563H226.354V234.527L238.12 218.563H240.724V239H238.181V222.7L226.262 239H223.811Z"/>
</mask>
<path d="M116.98 236.947C117.593 236.906 118.135 236.784 118.604 236.579C119.095 236.375 119.534 235.987 119.922 235.415C120.31 234.843 120.637 234.036 120.902 232.995C121.188 231.953 121.444 230.564 121.668 228.828L122.925 218.563H135.426V236.733H137.295V242.769H134.752V239H119.524V242.769H116.98V236.947ZM124.181 229.011C123.915 231.177 123.517 232.862 122.986 234.067C122.455 235.272 121.811 236.161 121.056 236.733H132.883V220.83H125.192L124.181 229.011ZM142.371 239V218.563H155.76V220.83H144.914V227.418H155.546V229.685H144.914V236.733H155.76V239H142.371ZM176.146 239V229.624H164.196V239H161.653V218.563H164.196V227.357H176.146V218.563H178.689V239H176.146ZM187.848 218.563V226.683H193.516C194.517 226.683 195.416 226.846 196.213 227.173C197.009 227.5 197.683 227.949 198.235 228.521C198.786 229.073 199.205 229.726 199.491 230.482C199.777 231.217 199.92 232.004 199.92 232.841C199.92 233.679 199.777 234.475 199.491 235.231C199.205 235.967 198.786 236.62 198.235 237.192C197.704 237.744 197.04 238.183 196.243 238.51C195.447 238.837 194.538 239 193.516 239H185.305V218.563H187.848ZM187.848 228.95V236.733H193.21C194.436 236.733 195.416 236.375 196.151 235.66C196.907 234.945 197.285 234.006 197.285 232.841C197.285 231.677 196.907 230.737 196.151 230.022C195.416 229.308 194.436 228.95 193.21 228.95H187.848ZM205.126 239V218.563H218.516V220.83H207.669V239H205.126ZM223.811 239V218.563H226.354V234.527L238.12 218.563H240.724V239H238.181V222.7L226.262 239H223.811Z" fill="black"/>
<path d="M116.98 236.947L116.914 235.949L115.98 236.012V236.947H116.98ZM118.604 236.579L118.22 235.656L118.213 235.659L118.206 235.662L118.604 236.579ZM119.922 235.415L120.749 235.977L119.922 235.415ZM120.902 232.995L119.938 232.73L119.936 232.739L119.933 232.748L120.902 232.995ZM121.668 228.828L122.66 228.956L122.661 228.949L121.668 228.828ZM122.925 218.563V217.563H122.04L121.932 218.442L122.925 218.563ZM135.426 218.563H136.426V217.563H135.426V218.563ZM135.426 236.733H134.426V237.733H135.426V236.733ZM137.295 236.733H138.295V235.733H137.295V236.733ZM137.295 242.769V243.769H138.295V242.769H137.295ZM134.752 242.769H133.752V243.769H134.752V242.769ZM134.752 239H135.752V238H134.752V239ZM119.524 239V238H118.524V239H119.524ZM119.524 242.769V243.769H120.524V242.769H119.524ZM116.98 242.769H115.98V243.769H116.98V242.769ZM124.181 229.011L123.188 228.889L123.188 228.89L124.181 229.011ZM122.986 234.067L123.901 234.47L122.986 234.067ZM121.056 236.733L120.452 235.935L118.077 237.733H121.056V236.733ZM132.883 236.733V237.733H133.883V236.733H132.883ZM132.883 220.83H133.883V219.83H132.883V220.83ZM125.192 220.83V219.83H124.308L124.2 220.708L125.192 220.83ZM117.047 237.945C117.752 237.898 118.409 237.755 119.003 237.497L118.206 235.662C117.86 235.813 117.434 235.915 116.914 235.949L117.047 237.945ZM118.989 237.503C119.706 237.204 120.285 236.662 120.749 235.977L119.094 234.854C118.783 235.312 118.483 235.546 118.22 235.656L118.989 237.503ZM120.749 235.977C121.228 235.271 121.591 234.34 121.871 233.242L119.933 232.748C119.682 233.732 119.392 234.415 119.094 234.854L120.749 235.977ZM121.867 233.259C122.17 232.154 122.433 230.714 122.66 228.956L120.677 228.699C120.455 230.414 120.207 231.752 119.938 232.73L121.867 233.259ZM122.661 228.949L123.917 218.685L121.932 218.442L120.676 228.706L122.661 228.949ZM122.925 219.563H135.426V217.563H122.925V219.563ZM134.426 218.563V236.733H136.426V218.563H134.426ZM135.426 237.733H137.295V235.733H135.426V237.733ZM136.295 236.733V242.769H138.295V236.733H136.295ZM137.295 241.769H134.752V243.769H137.295V241.769ZM135.752 242.769V239H133.752V242.769H135.752ZM134.752 238H119.524V240H134.752V238ZM118.524 239V242.769H120.524V239H118.524ZM119.524 241.769H116.98V243.769H119.524V241.769ZM117.98 242.769V236.947H115.98V242.769H117.98ZM123.188 228.89C122.928 231.012 122.545 232.587 122.071 233.664L123.901 234.47C124.489 233.136 124.903 231.341 125.173 229.133L123.188 228.89ZM122.071 233.664C121.583 234.771 121.03 235.498 120.452 235.935L121.659 237.53C122.593 236.823 123.327 235.774 123.901 234.47L122.071 233.664ZM121.056 237.733H132.883V235.733H121.056V237.733ZM133.883 236.733V220.83H131.883V236.733H133.883ZM132.883 219.83H125.192V221.83H132.883V219.83ZM124.2 220.708L123.188 228.889L125.173 229.134L126.184 220.953L124.2 220.708ZM142.371 239H141.371V240H142.371V239ZM142.371 218.563V217.563H141.371V218.563H142.371ZM155.76 218.563H156.76V217.563H155.76V218.563ZM155.76 220.83V221.83H156.76V220.83H155.76ZM144.914 220.83V219.83H143.914V220.83H144.914ZM144.914 227.418H143.914V228.418H144.914V227.418ZM155.546 227.418H156.546V226.418H155.546V227.418ZM155.546 229.685V230.685H156.546V229.685H155.546ZM144.914 229.685V228.685H143.914V229.685H144.914ZM144.914 236.733H143.914V237.733H144.914V236.733ZM155.76 236.733H156.76V235.733H155.76V236.733ZM155.76 239V240H156.76V239H155.76ZM143.371 239V218.563H141.371V239H143.371ZM142.371 219.563H155.76V217.563H142.371V219.563ZM154.76 218.563V220.83H156.76V218.563H154.76ZM155.76 219.83H144.914V221.83H155.76V219.83ZM143.914 220.83V227.418H145.914V220.83H143.914ZM144.914 228.418H155.546V226.418H144.914V228.418ZM154.546 227.418V229.685H156.546V227.418H154.546ZM155.546 228.685H144.914V230.685H155.546V228.685ZM143.914 229.685V236.733H145.914V229.685H143.914ZM144.914 237.733H155.76V235.733H144.914V237.733ZM154.76 236.733V239H156.76V236.733H154.76ZM155.76 238H142.371V240H155.76V238ZM176.146 239H175.146V240H176.146V239ZM176.146 229.624H177.146V228.624H176.146V229.624ZM164.196 229.624V228.624H163.196V229.624H164.196ZM164.196 239V240H165.196V239H164.196ZM161.653 239H160.653V240H161.653V239ZM161.653 218.563V217.563H160.653V218.563H161.653ZM164.196 218.563H165.196V217.563H164.196V218.563ZM164.196 227.357H163.196V228.357H164.196V227.357ZM176.146 227.357V228.357H177.146V227.357H176.146ZM176.146 218.563V217.563H175.146V218.563H176.146ZM178.689 218.563H179.689V217.563H178.689V218.563ZM178.689 239V240H179.689V239H178.689ZM177.146 239V229.624H175.146V239H177.146ZM176.146 228.624H164.196V230.624H176.146V228.624ZM163.196 229.624V239H165.196V229.624H163.196ZM164.196 238H161.653V240H164.196V238ZM162.653 239V218.563H160.653V239H162.653ZM161.653 219.563H164.196V217.563H161.653V219.563ZM163.196 218.563V227.357H165.196V218.563H163.196ZM164.196 228.357H176.146V226.357H164.196V228.357ZM177.146 227.357V218.563H175.146V227.357H177.146ZM176.146 219.563H178.689V217.563H176.146V219.563ZM177.689 218.563V239H179.689V218.563H177.689ZM178.689 238H176.146V240H178.689V238ZM187.848 218.563H188.848V217.563H187.848V218.563ZM187.848 226.683H186.848V227.683H187.848V226.683ZM198.235 228.521L197.515 229.215L197.521 229.222L197.528 229.228L198.235 228.521ZM199.491 230.482L198.556 230.836L198.559 230.845L199.491 230.482ZM199.491 235.231L200.423 235.594L200.426 235.585L199.491 235.231ZM198.235 237.192L197.515 236.498L197.515 236.499L198.235 237.192ZM185.305 239H184.305V240H185.305V239ZM185.305 218.563V217.563H184.305V218.563H185.305ZM187.848 228.95V227.95H186.848V228.95H187.848ZM187.848 236.733H186.848V237.733H187.848V236.733ZM196.151 235.66L195.464 234.934L195.454 234.943L196.151 235.66ZM196.151 230.022L195.454 230.74L195.464 230.749L196.151 230.022ZM186.848 218.563V226.683H188.848V218.563H186.848ZM187.848 227.683H193.516V225.683H187.848V227.683ZM193.516 227.683C194.408 227.683 195.175 227.828 195.833 228.098L196.592 226.248C195.657 225.864 194.627 225.683 193.516 225.683V227.683ZM195.833 228.098C196.512 228.377 197.068 228.751 197.515 229.215L198.955 227.827C198.299 227.147 197.506 226.623 196.592 226.248L195.833 228.098ZM197.528 229.228C197.975 229.676 198.318 230.208 198.556 230.836L200.426 230.128C200.092 229.245 199.597 228.469 198.942 227.814L197.528 229.228ZM198.559 230.845C198.797 231.457 198.92 232.12 198.92 232.841H200.92C200.92 231.888 200.757 230.978 200.423 230.12L198.559 230.845ZM198.92 232.841C198.92 233.562 198.797 234.239 198.556 234.877L200.426 235.585C200.757 234.712 200.92 233.795 200.92 232.841H198.92ZM198.559 234.869C198.322 235.48 197.975 236.021 197.515 236.498L198.955 237.886C199.598 237.22 200.089 236.454 200.423 235.594L198.559 234.869ZM197.515 236.499C197.091 236.938 196.548 237.304 195.864 237.585L196.623 239.435C197.532 239.062 198.316 238.549 198.955 237.886L197.515 236.499ZM195.864 237.585C195.208 237.854 194.431 238 193.516 238V240C194.644 240 195.686 239.819 196.623 239.435L195.864 237.585ZM193.516 238H185.305V240H193.516V238ZM186.305 239V218.563H184.305V239H186.305ZM185.305 219.563H187.848V217.563H185.305V219.563ZM186.848 228.95V236.733H188.848V228.95H186.848ZM187.848 237.733H193.21V235.733H187.848V237.733ZM193.21 237.733C194.642 237.733 195.891 237.308 196.848 236.377L195.454 234.943C194.941 235.442 194.229 235.733 193.21 235.733V237.733ZM196.839 236.387C197.819 235.459 198.285 234.244 198.285 232.841H196.285C196.285 233.767 195.995 234.431 195.464 234.934L196.839 236.387ZM198.285 232.841C198.285 231.438 197.819 230.223 196.839 229.296L195.464 230.749C195.995 231.252 196.285 231.916 196.285 232.841H198.285ZM196.848 229.305C195.891 228.375 194.642 227.95 193.21 227.95V229.95C194.229 229.95 194.941 230.241 195.454 230.739L196.848 229.305ZM193.21 227.95H187.848V229.95H193.21V227.95ZM205.126 239H204.126V240H205.126V239ZM205.126 218.563V217.563H204.126V218.563H205.126ZM218.516 218.563H219.516V217.563H218.516V218.563ZM218.516 220.83V221.83H219.516V220.83H218.516ZM207.669 220.83V219.83H206.669V220.83H207.669ZM207.669 239V240H208.669V239H207.669ZM206.126 239V218.563H204.126V239H206.126ZM205.126 219.563H218.516V217.563H205.126V219.563ZM217.516 218.563V220.83H219.516V218.563H217.516ZM218.516 219.83H207.669V221.83H218.516V219.83ZM206.669 220.83V239H208.669V220.83H206.669ZM207.669 238H205.126V240H207.669V238ZM223.811 239H222.811V240H223.811V239ZM223.811 218.563V217.563H222.811V218.563H223.811ZM226.354 218.563H227.354V217.563H226.354V218.563ZM226.354 234.527H225.354V237.569L227.159 235.12L226.354 234.527ZM238.12 218.563V217.563H237.614L237.315 217.97L238.12 218.563ZM240.724 218.563H241.724V217.563H240.724V218.563ZM240.724 239V240H241.724V239H240.724ZM238.181 239H237.181V240H238.181V239ZM238.181 222.7H239.181V219.638L237.374 222.109L238.181 222.7ZM226.262 239V240H226.769L227.069 239.59L226.262 239ZM224.811 239V218.563H222.811V239H224.811ZM223.811 219.563H226.354V217.563H223.811V219.563ZM225.354 218.563V234.527H227.354V218.563H225.354ZM227.159 235.12L238.925 219.156L237.315 217.97L225.549 233.933L227.159 235.12ZM238.12 219.563H240.724V217.563H238.12V219.563ZM239.724 218.563V239H241.724V218.563H239.724ZM240.724 238H238.181V240H240.724V238ZM239.181 239V222.7H237.181V239H239.181ZM237.374 222.109L225.455 238.41L227.069 239.59L238.988 223.29L237.374 222.109ZM226.262 238H223.811V240H226.262V238Z" fill="black" mask="url(#path-2-outside-1_195_143)"/>
<defs>
<filter id="filter0_f_195_143" x="-34.6411" y="0.358925" width="440.282" height="440.282" filterUnits="userSpaceOnUse" color-interpolation-filters="sRGB">
<feFlood flood-opacity="0" result="BackgroundImageFix"/>
<feBlend mode="normal" in="SourceGraphic" in2="BackgroundImageFix" result="shape"/>
<feGaussianBlur stdDeviation="56.8205" result="effect1_foregroundBlur_195_143"/>
</filter>
</defs>
</svg>
